<svg width="26" height="26" viewBox="0 0 26 26" fill="none" xmlns="http://www.w3.org/2000/svg">
<path d="M4.615 20.3125C5.98 19.3592 7.33417 18.6279 8.6775 18.1187C10.0208 17.6096 11.4617 17.355 13 17.355C14.5383 17.355 15.9846 17.6096 17.3387 18.1187C18.6929 18.6279 20.0525 19.3592 21.4175 20.3125C22.3708 19.1425 23.0479 17.9617 23.4487 16.77C23.8496 15.5783 24.05 14.3217 24.05 13C24.05 9.85833 22.9937 7.23125 20.8812 5.11875C18.7687 3.00625 16.1417 1.95 13 1.95C9.85833 1.95 7.23125 3.00625 5.11875 5.11875C3.00625 7.23125 1.95 9.85833 1.95 13C1.95 14.3217 2.15583 15.5783 2.5675 16.77C2.97917 17.9617 3.66167 19.1425 4.615 20.3125ZM13 13.975C11.7433 13.975 10.6871 13.5471 9.83125 12.6912C8.97542 11.8354 8.5475 10.7792 8.5475 9.5225C8.5475 8.26583 8.97542 7.20958 9.83125 6.35375C10.6871 5.49792 11.7433 5.07 13 5.07C14.2567 5.07 15.3129 5.49792 16.1687 6.35375C17.0246 7.20958 17.4525 8.26583 17.4525 9.5225C17.4525 10.7792 17.0246 11.8354 16.1687 12.6912C15.3129 13.5471 14.2567 13.975 13 13.975ZM13 26C11.2233 26 9.54417 25.6587 7.9625 24.9762C6.38083 24.2937 4.99958 23.3621 3.81875 22.1812C2.63792 21.0004 1.70625 19.6192 1.02375 18.0375C0.34125 16.4558 0 14.7767 0 13C0 11.2017 0.34125 9.51708 1.02375 7.94625C1.70625 6.37542 2.63792 4.99958 3.81875 3.81875C4.99958 2.63792 6.38083 1.70625 7.9625 1.02375C9.54417 0.34125 11.2233 0 13 0C14.7983 0 16.4829 0.34125 18.0537 1.02375C19.6246 1.70625 21.0004 2.63792 22.1812 3.81875C23.3621 4.99958 24.2937 6.37542 24.9762 7.94625C25.6587 9.51708 26 11.2017 26 13C26 14.7767 25.6587 16.4558 24.9762 18.0375C24.2937 19.6192 23.3621 21.0004 22.1812 22.1812C21.0004 23.3621 19.6246 24.2937 18.0537 24.9762C16.4829 25.6587 14.7983 26 13 26ZM13 24.05C14.1917 24.05 15.3562 23.8767 16.4937 23.53C17.6312 23.1833 18.7525 22.5767 19.8575 21.71C18.7525 20.93 17.6258 20.3342 16.4775 19.9225C15.3292 19.5108 14.17 19.305 13 19.305C11.83 19.305 10.6708 19.5108 9.5225 19.9225C8.37417 20.3342 7.2475 20.93 6.1425 21.71C7.2475 22.5767 8.36875 23.1833 9.50625 23.53C10.6437 23.8767 11.8083 24.05 13 24.05ZM13 12.025C13.7367 12.025 14.3379 11.7921 14.8037 11.3262C15.2696 10.8604 15.5025 10.2592 15.5025 9.5225C15.5025 8.78583 15.2696 8.18458 14.8037 7.71875C14.3379 7.25292 13.7367 7.02 13 7.02C12.2633 7.02 11.6621 7.25292 11.1962 7.71875C10.7304 8.18458 10.4975 8.78583 10.4975 9.5225C10.4975 10.2592 10.7304 10.8604 11.1962 11.3262C11.6621 11.7921 12.2633 12.025 13 12.025Z" fill="#F0941F"/>
</svg>
