<svg width="20" height="20" viewBox="0 0 20 20" fill="none" xmlns="http://www.w3.org/2000/svg">
<path d="M1.07498 7.4C1.00831 7.36667 0.974976 7.3125 0.974976 7.2375C0.974976 7.1625 0.991642 7.09167 1.02498 7.025C2.05831 5.59167 3.36664 4.48333 4.94998 3.7C6.53331 2.91667 8.22497 2.525 10.025 2.525C11.825 2.525 13.5208 2.90833 15.1125 3.675C16.7041 4.44167 18.025 5.54167 19.075 6.975C19.125 7.05833 19.1458 7.125 19.1375 7.175C19.1291 7.225 19.1 7.275 19.05 7.325C19 7.375 18.9375 7.4 18.8625 7.4C18.7875 7.4 18.7166 7.35833 18.65 7.275C17.6666 5.90833 16.4125 4.85833 14.8875 4.125C13.3625 3.39167 11.7416 3.025 10.025 3.025C8.30831 3.025 6.69998 3.39583 5.19998 4.1375C3.69998 4.87917 2.44998 5.925 1.44998 7.275C1.38331 7.35833 1.32081 7.40833 1.26248 7.425C1.20414 7.44167 1.14164 7.43333 1.07498 7.4ZM13 19.975C11.2833 19.5417 9.87081 18.6833 8.76248 17.4C7.65414 16.1167 7.09998 14.5583 7.09998 12.725C7.09998 11.9417 7.38748 11.2833 7.96248 10.75C8.53748 10.2167 9.22497 9.95 10.025 9.95C10.825 9.95 11.5125 10.2167 12.0875 10.75C12.6625 11.2833 12.95 11.9417 12.95 12.725C12.95 13.3583 13.1958 13.8917 13.6875 14.325C14.1791 14.7583 14.75 14.975 15.4 14.975C16.0333 14.975 16.5875 14.7583 17.0625 14.325C17.5375 13.8917 17.775 13.3583 17.775 12.725C17.775 10.675 17.0125 8.95833 15.4875 7.575C13.9625 6.19167 12.1416 5.5 10.025 5.5C7.90831 5.5 6.08748 6.19167 4.56248 7.575C3.03748 8.95833 2.27498 10.675 2.27498 12.725C2.27498 13.125 2.32081 13.6458 2.41248 14.2875C2.50414 14.9292 2.69998 15.6583 2.99998 16.475C3.03331 16.5583 3.03331 16.6208 2.99998 16.6625C2.96664 16.7042 2.92498 16.7417 2.87498 16.775C2.80831 16.8083 2.73748 16.8167 2.66248 16.8C2.58748 16.7833 2.53331 16.7333 2.49998 16.65C2.28331 16.0167 2.11248 15.3708 1.98748 14.7125C1.86248 14.0542 1.79998 13.3917 1.79998 12.725C1.79998 10.575 2.61664 8.7375 4.24998 7.2125C5.88331 5.6875 7.80831 4.925 10.025 4.925C12.2916 4.925 14.2375 5.675 15.8625 7.175C17.4875 8.675 18.3 10.525 18.3 12.725C18.3 13.4917 18.0166 14.1417 17.45 14.675C16.8833 15.2083 16.2 15.475 15.4 15.475C14.5833 15.475 13.8833 15.2083 13.3 14.675C12.7166 14.1417 12.425 13.4917 12.425 12.725C12.425 12.075 12.1875 11.5333 11.7125 11.1C11.2375 10.6667 10.675 10.45 10.025 10.45C9.37498 10.45 8.80831 10.6667 8.32498 11.1C7.84164 11.5333 7.59998 12.075 7.59998 12.725C7.59998 14.4583 8.12498 15.9042 9.17498 17.0625C10.225 18.2208 11.5333 19.0333 13.1 19.5C13.2 19.5333 13.2625 19.575 13.2875 19.625C13.3125 19.675 13.3166 19.7333 13.3 19.8C13.2833 19.8833 13.25 19.9417 13.2 19.975C13.15 20.0083 13.0833 20.0083 13 19.975ZM4.17498 1.975C4.09164 2.00833 4.02914 2.0125 3.98748 1.9875C3.94581 1.9625 3.90831 1.925 3.87498 1.875C3.84164 1.84167 3.82498 1.79167 3.82498 1.725C3.82498 1.65833 3.84998 1.60833 3.89998 1.575C4.84998 1.05833 5.84581 0.666667 6.88748 0.4C7.92914 0.133333 8.97497 0 10.025 0C11.1083 0 12.1708 0.133333 13.2125 0.4C14.2541 0.666667 15.25 1.04167 16.2 1.525C16.2833 1.55833 16.3291 1.60833 16.3375 1.675C16.3458 1.74167 16.3333 1.8 16.3 1.85C16.2666 1.9 16.2208 1.94167 16.1625 1.975C16.1041 2.00833 16.0333 2.00833 15.95 1.975C15.0333 1.525 14.075 1.17083 13.075 0.9125C12.075 0.654167 11.0583 0.525 10.025 0.525C8.99164 0.525 7.98331 0.645833 6.99998 0.8875C6.01664 1.12917 5.07498 1.49167 4.17498 1.975ZM7.52498 19.7C6.55831 18.7 5.80414 17.65 5.26248 16.55C4.72081 15.45 4.44998 14.175 4.44998 12.725C4.44998 11.2417 4.99581 9.99167 6.08748 8.975C7.17914 7.95833 8.49164 7.45 10.025 7.45C11.5583 7.45 12.8791 7.95833 13.9875 8.975C15.0958 9.99167 15.65 11.2417 15.65 12.725C15.65 12.8083 15.6291 12.8708 15.5875 12.9125C15.5458 12.9542 15.4833 12.975 15.4 12.975C15.3166 12.975 15.25 12.9542 15.2 12.9125C15.15 12.8708 15.125 12.8083 15.125 12.725C15.125 11.375 14.6208 10.2417 13.6125 9.325C12.6041 8.40833 11.4083 7.95 10.025 7.95C8.64164 7.95 7.45414 8.40833 6.46248 9.325C5.47081 10.2417 4.97498 11.375 4.97498 12.725C4.97498 14.1417 5.22081 15.35 5.71248 16.35C6.20414 17.35 6.93331 18.35 7.89998 19.35C7.96664 19.4167 7.99581 19.4792 7.98748 19.5375C7.97914 19.5958 7.94998 19.65 7.89998 19.7C7.86664 19.7333 7.81248 19.7625 7.73748 19.7875C7.66248 19.8125 7.59164 19.7833 7.52498 19.7ZM15.175 17.875C13.7083 17.875 12.4375 17.3875 11.3625 16.4125C10.2875 15.4375 9.74998 14.2083 9.74998 12.725C9.74998 12.6417 9.77081 12.575 9.81248 12.525C9.85414 12.475 9.91664 12.45 9.99998 12.45C10.0833 12.45 10.1458 12.475 10.1875 12.525C10.2291 12.575 10.25 12.6417 10.25 12.725C10.25 14.075 10.7458 15.1875 11.7375 16.0625C12.7291 16.9375 13.875 17.375 15.175 17.375C15.3083 17.375 15.4666 17.3667 15.65 17.35C15.8333 17.3333 16.0333 17.3083 16.25 17.275C16.3333 17.2583 16.4 17.2708 16.45 17.3125C16.5 17.3542 16.5333 17.4 16.55 17.45C16.5666 17.5167 16.5625 17.575 16.5375 17.625C16.5125 17.675 16.4583 17.7083 16.375 17.725C16.075 17.8083 15.8125 17.8542 15.5875 17.8625C15.3625 17.8708 15.225 17.875 15.175 17.875Z" fill="black"/>
</svg>
