<svg width="26" height="22" viewBox="0 0 26 22" fill="none" xmlns="http://www.w3.org/2000/svg">
<path d="M23.8333 0.733398C25.025 0.733398 26 1.7084 26 2.90006V19.3667C26 20.5584 25.025 21.5334 23.8333 21.5334H2.16667C0.975 21.5334 0 20.5584 0 19.3667V2.90006C0 1.7084 0.975 0.733398 2.16667 0.733398H23.8333ZM2.16667 2.46673C1.93613 2.46673 1.73333 2.66953 1.73333 2.90006V5.9334H24.2667V2.90006C24.2667 2.66953 24.0639 2.46673 23.8333 2.46673H2.16667ZM23.8333 19.8001C24.0639 19.8001 24.2667 19.5973 24.2667 19.3667V11.1334H1.73333V19.3667C1.73333 19.5973 1.93613 19.8001 2.16667 19.8001H23.8333ZM3.46667 18.0667V16.3334H6.93333V18.0667H3.46667ZM8.66667 18.0667V16.3334H13.8667V18.0667H8.66667Z" fill="black"/>
</svg>
