<svg width="20" height="20" viewBox="0 0 20 20" fill="none" xmlns="http://www.w3.org/2000/svg">
<path d="M6.3786 19.2742C5.91431 19.2742 5.51967 19.1117 5.19467 18.7867C4.86967 18.4617 4.70717 18.067 4.70717 17.6027C4.70717 17.1385 4.86967 16.7438 5.19467 16.4188C5.51967 16.0938 5.91431 15.9313 6.3786 15.9313C6.84288 15.9313 7.23752 16.0938 7.56252 16.4188C7.88752 16.7438 8.05002 17.1385 8.05002 17.6027C8.05002 18.067 7.88752 18.4617 7.56252 18.7867C7.23752 19.1117 6.84288 19.2742 6.3786 19.2742ZM15.6643 19.2742C15.2 19.2742 14.8054 19.1117 14.4804 18.7867C14.1554 18.4617 13.9929 18.067 13.9929 17.6027C13.9929 17.1385 14.1554 16.7438 14.4804 16.4188C14.8054 16.0938 15.2 15.9313 15.6643 15.9313C16.1286 15.9313 16.5232 16.0938 16.8482 16.4188C17.1732 16.7438 17.3357 17.1385 17.3357 17.6027C17.3357 18.067 17.1732 18.4617 16.8482 18.7867C16.5232 19.1117 16.1286 19.2742 15.6643 19.2742ZM5.17145 3.95274L7.72502 9.24559H14.4107L17.3125 3.95274H5.17145ZM4.47502 2.55988H18.1482C18.5042 2.55988 18.775 2.72238 18.9607 3.04738C19.1465 3.37238 19.1465 3.69738 18.9607 4.02238L15.8268 9.66345C15.6566 9.9575 15.436 10.1935 15.1652 10.3715C14.8944 10.5495 14.5965 10.6385 14.2715 10.6385H7.23752L5.93752 13.0527H17.3357V14.4456H6.14645C5.49645 14.4456 5.0283 14.2289 4.74199 13.7956C4.45568 13.3623 4.45955 12.8748 4.7536 12.3331L6.23931 9.59381L2.71074 2.11881H0.900024V0.725952H3.6161L4.47502 2.55988Z" fill="white"/>
</svg>
