<svg width="243" height="243" viewBox="0 0 243 243" fill="none" xmlns="http://www.w3.org/2000/svg">
<g opacity="0.7">
<path d="M210.33 231.731C210.04 231.908 209.745 232.079 209.449 232.267L208.628 232.729L207.769 233.201L206.899 233.658L206.03 234.103L205.149 234.538L204.264 234.957L203.373 235.359C203.018 235.52 202.659 235.676 202.299 235.826L201.225 236.277C200.501 236.573 199.771 236.857 199.041 237.125L198.187 237.437L197.849 237.555C196.775 237.936 195.702 238.285 194.585 238.629C193.839 238.854 193.082 239.069 192.325 239.273L191.187 239.568C190.741 239.681 190.296 239.793 189.85 239.895L188.895 240.116C187.338 240.464 185.765 240.77 184.187 241.039C183.822 241.103 183.457 241.162 183.086 241.216C182.716 241.27 182.308 241.339 181.916 241.393C181.132 241.506 180.349 241.608 179.565 241.704L178.389 241.833L177.552 241.919L177.015 241.973C176.301 242.043 175.593 242.102 174.868 242.15C173.197 242.275 171.529 242.359 169.865 242.402H169.172H167.98H166.563C165.411 242.402 164.259 242.386 163.106 242.354C162.274 242.354 161.447 242.3 160.621 242.263L160.143 242.236C158.78 242.172 157.421 242.08 156.069 241.973C155.145 241.898 154.227 241.812 153.304 241.726H153.191L151.898 241.592L150.25 241.399L149.079 241.248L147.737 241.066C146.102 240.837 144.47 240.579 142.842 240.293L141.634 240.073C140.882 239.938 140.136 239.793 139.395 239.643L138.322 239.428C136.743 239.101 135.176 238.752 133.614 238.355C133.168 238.253 132.728 238.14 132.288 238.033L130.962 237.695C127.741 236.868 124.558 235.939 121.412 234.908L120.397 234.576C119.56 234.3 118.726 234.017 117.896 233.727L115.749 232.965C114.643 232.564 113.542 232.153 112.447 231.731C111.696 231.441 110.944 231.145 110.198 230.845C109.35 230.507 108.507 230.163 107.659 229.809C106.923 229.503 106.188 229.191 105.458 228.875L104.626 228.51C103.96 228.22 103.289 227.919 102.623 227.619C101.85 227.27 101.072 226.915 100.299 226.545L99.9501 226.384C99.1825 226.024 98.4148 225.654 97.6472 225.283C96.9869 224.967 96.3266 224.639 95.6717 224.312C94.6912 223.821 93.7124 223.324 92.7354 222.819C91.9194 222.401 91.107 221.973 90.2982 221.536L88.151 220.377L87.8557 220.216C87.14 219.815 86.4153 219.411 85.6816 219.003C85.1448 218.691 84.608 218.38 84.0443 218.063C83.4807 217.747 82.9707 217.451 82.4339 217.14L80.9201 216.243C80.0612 215.707 79.2077 215.213 78.3541 214.687C73.1739 211.498 68.1225 208.111 63.2214 204.573C54.8944 198.608 47.0244 192.03 39.6767 184.894L38.1736 183.407C35.6613 180.884 33.2296 178.291 30.9105 175.623C24.8084 168.712 19.4852 161.151 15.037 153.077C11.7805 147.117 9.15724 140.832 7.21023 134.326C6.78078 132.882 6.38891 131.432 6.03998 129.967C5.74473 128.764 5.50317 127.562 5.24013 126.343C4.26628 121.378 3.7381 116.335 3.6619 111.275C3.63327 109.69 3.65116 108.106 3.71558 106.524C4.13164 96.4592 6.12418 86.5219 9.62053 77.0745C15.1529 62.0839 23.9551 48.5139 35.3876 37.3503C58.9107 14.4177 78.1555 3.64919 111.212 1.38384C111.212 1.38384 137.983 -4.05946 154.34 29.6578C160.186 41.6985 163.793 54.888 171.379 65.9357C181.734 81.0309 198.182 90.8384 211.5 103.513C229.558 120.691 242.098 144.144 242.904 168.811C243.709 193.477 231.77 218.874 210.33 231.731Z" fill="#EDAB58" fill-opacity="0.5"/>
</g>
<path d="M180.95 58.0981H194.837C197.297 58.0981 199.657 59.0754 201.396 60.8151C203.136 62.5547 204.113 64.9141 204.113 67.3743C204.113 69.8345 203.136 72.1939 201.396 73.9335C199.657 75.6731 197.297 76.6504 194.837 76.6504H173.563C172.345 76.6511 171.138 76.4117 170.013 75.9458C168.887 75.4798 167.864 74.7966 167.003 73.9351C166.141 73.0736 165.458 72.0507 164.992 70.9249C164.526 69.7992 164.287 68.5926 164.287 67.3743C164.287 64.9141 165.265 62.5547 167.004 60.8151C168.744 59.0754 171.103 58.0981 173.563 58.0981" stroke="#263238" stroke-miterlimit="10"/>
<path d="M176.741 58.0879H179.162" stroke="#263238" stroke-miterlimit="10"/>
<path d="M177.498 65.6676V66.242H176.827V65.6139C176.827 65.0395 176.602 64.6959 176.081 64.6959C175.56 64.6959 175.351 65.0771 175.351 65.6139V68.969C175.351 69.5434 175.587 69.8869 176.092 69.8869C176.596 69.8869 176.838 69.5434 176.838 68.969V68.1423H177.498V68.9314C177.498 69.8977 177.042 70.5418 176.065 70.5418C175.088 70.5418 174.637 69.9084 174.637 68.9314V65.6676C174.637 64.7067 175.093 64.0571 176.065 64.0571C177.037 64.0571 177.498 64.7067 177.498 65.6676Z" fill="#263238"/>
<path d="M178.878 69.2101L178.631 70.4877H177.976L179.195 64.1372H180.22L181.433 70.4877H180.719L180.472 69.2101H178.878ZM178.969 68.6035H180.381L179.645 64.9317L178.969 68.6035Z" fill="#263238"/>
<path d="M182.619 70.4877H181.981V64.1372H182.866L184.337 68.727V64.1372H184.96V70.4877H184.225L182.614 65.3504L182.619 70.4877Z" fill="#263238"/>
<path d="M188.508 65.6676V66.242H187.837V65.6139C187.837 65.0395 187.612 64.6959 187.091 64.6959C186.57 64.6959 186.35 65.0395 186.35 65.6139V68.969C186.35 69.5434 186.587 69.8869 187.091 69.8869C187.596 69.8869 187.837 69.5434 187.837 68.969V68.1423H188.508V68.9314C188.508 69.8977 188.057 70.5418 187.075 70.5418C186.093 70.5418 185.652 69.9084 185.652 68.9314V65.6676C185.652 64.7067 186.103 64.0571 187.075 64.0571C188.047 64.0571 188.508 64.7067 188.508 65.6676Z" fill="#263238"/>
<path d="M191.412 66.9501V67.5835H189.845V69.8435H191.751V70.4877H189.136V64.1372H191.751V64.7814H189.845V66.9286L191.412 66.9501Z" fill="#263238"/>
<path d="M192.422 70.4877V64.1372H193.13V69.8435H194.945V70.4877H192.422Z" fill="#263238"/>
<path d="M127.72 1.31422C127.034 1.13012 126.336 0.995565 125.631 0.91161M123.908 0.809616C120.249 0.800491 116.717 2.15543 114.003 4.60995C111.288 7.06448 109.586 10.4424 109.228 14.0845C108.87 17.7265 109.882 21.3712 112.067 24.3072C114.251 27.2432 117.452 29.2598 121.043 29.9633C124.634 30.6668 128.359 30.0067 131.49 28.1119C134.621 26.2172 136.933 23.2237 137.976 19.7158C139.018 16.2078 138.716 12.4373 137.129 9.14004C135.541 5.8428 132.782 3.25553 129.389 1.88324M119.726 14.1333L128.852 24.8159C126.733 25.9699 124.283 26.3618 121.91 25.9263C119.537 25.4908 117.385 24.2543 115.814 22.4232C114.243 20.5921 113.348 18.2775 113.279 15.8659C113.209 13.4543 113.969 11.0918 115.432 9.17317L118.54 12.802L119.683 14.1333M128.138 17.6226L118.604 6.40321C120.21 5.4532 122.042 4.95259 123.908 4.95382C125.9 4.95301 127.851 5.5166 129.535 6.57929C131.22 7.64197 132.568 9.16022 133.425 10.9581C134.282 12.756 134.612 14.7598 134.376 16.7374C134.141 18.7151 133.35 20.5854 132.095 22.1318L130.822 20.6449L128.138 17.6226Z" stroke="#263238" stroke-miterlimit="10"/>
<path d="M61.7666 54.2012L62.5933 53.3691" stroke="#263238" stroke-miterlimit="10"/>
<path d="M60.0434 55.9244L52.1469 48.0332L45.6031 54.577L53.4997 62.4681L45.5978 70.3647L52.1469 76.9084L60.0434 69.0119L67.94 76.9084L74.4837 70.3647L66.5872 62.4681L74.4783 54.577L67.9346 48.0332L63.6186 52.3492" stroke="#263238" stroke-miterlimit="10"/>
<path d="M11.7516 87.0059C11.902 85.9323 12.369 84.6386 13.4319 84.6225C14.4948 84.6064 15.0101 85.9377 14.9511 86.9952C14.892 88.0527 14.586 89.1961 15.1336 90.098C16.6796 79.7053 18.9396 68.8187 25.9235 60.9651C26.6858 60.1116 27.8507 59.2312 28.8653 59.7573C30.057 60.3746 29.7242 62.1407 29.241 63.3861C25.4399 73.2632 23.0525 83.6276 22.1497 94.1724C24.9573 86.3993 29.4665 79.1416 35.8653 73.8755C36.8692 73.0541 38.1199 72.265 39.3814 72.5549C40.8738 72.9307 41.5287 74.7022 41.6092 76.2428C41.7273 79.5174 40.1706 82.5933 38.7319 85.535C33.1185 97.0362 28.7162 109.09 25.5961 121.502C24.9519 124.073 24.2862 126.795 22.445 128.706C21.6022 129.581 20.2548 130.257 19.2241 129.656C18.7291 129.333 18.3289 128.885 18.0646 128.357C14.5848 122.195 12.5647 115.318 12.1596 108.253C11.7516 101.135 10.7424 94.1402 11.7516 87.0059Z" fill="#EDAB58"/>
<path d="M0.0813361 111.372C-0.106549 110.207 -0.0421308 108.661 1.07444 108.296C2.19101 107.931 3.17875 109.171 3.46326 110.309C3.74777 111.447 3.79609 112.757 4.67109 113.53C2.89961 102.026 1.71862 89.7763 6.52847 79.1742C7.06528 78.0147 7.99397 76.7049 9.24474 76.9303C10.7049 77.1934 10.9303 79.1635 10.8552 80.6451C10.0716 92.3401 10.9445 104.087 13.448 115.538C13.8667 106.412 16.2502 97.2111 21.2962 89.5777C22.0907 88.3752 23.1428 87.1029 24.5815 87.0278C26.2886 86.9312 27.5823 88.5845 28.1459 90.195C29.3484 93.6199 28.7096 97.3776 28.1459 100.963C25.9781 114.978 25.2782 129.18 26.0577 143.34C26.2188 146.271 26.412 149.368 25.0915 151.993C24.4849 153.195 23.2824 154.355 21.9672 154.06C21.3487 153.865 20.793 153.509 20.3568 153.029C14.6414 147.657 10.234 141.046 7.47326 133.704C4.71941 126.312 1.35358 119.247 0.0813361 111.372Z" fill="#B5E78D"/>
<path d="M31.2649 175.564C31.2219 175.618 31.0985 175.639 30.9106 175.623C30.7733 175.614 30.6369 175.594 30.5026 175.564C27.9297 173.24 25.4888 170.774 23.1912 168.178C22.3481 166.258 21.3518 164.409 20.2119 162.648C18.2042 159.513 15.8744 156.609 13.5876 153.678C13.0508 152.991 12.514 152.3 11.9772 151.606C11.4404 150.86 10.8552 150.108 10.3131 149.352C8.48532 146.879 6.90656 144.233 5.59983 141.45C4.94492 139.995 4.38664 138.384 4.7302 136.828C4.8519 136.328 5.08242 135.86 5.40532 135.46C5.72822 135.059 6.13556 134.734 6.59831 134.509C6.78839 134.417 6.99098 134.353 7.19954 134.321C7.36386 134.288 7.53167 134.278 7.69877 134.289C7.88084 134.292 8.06153 134.321 8.23559 134.374C9.2448 134.686 9.88897 135.647 10.4526 136.522C11.8841 138.78 13.3031 141.04 14.7096 143.302C12.6965 138.03 10.6781 132.716 9.7494 127.106C8.82071 121.496 9.05155 115.591 11.3974 110.438C11.6 109.974 11.8715 109.543 12.2026 109.16C12.3606 108.975 12.5563 108.826 12.7766 108.722C12.9969 108.618 13.2368 108.563 13.4803 108.559C13.7026 108.559 13.9217 108.612 14.1191 108.715C14.935 109.133 15.3591 110.298 15.5738 111.281C16.9266 117.486 18.2776 123.688 19.6268 129.887L20.3032 132.995L20.5447 134.068L20.5125 132.458C20.5125 131.594 20.5125 130.724 20.5125 129.854C20.5877 124.782 21.2265 119.698 24.136 115.65C24.7408 114.723 25.5896 113.98 26.5892 113.503C26.991 113.334 27.4262 113.259 27.8615 113.283C27.9366 113.283 28.0118 113.283 28.0816 113.283C28.6407 113.403 29.1622 113.657 29.6009 114.024C30.0396 114.39 30.3823 114.858 30.5992 115.387C31.0229 116.446 31.259 117.571 31.2971 118.71C31.7802 124.422 29.0317 128.856 30.0732 143.672C30.1161 144.322 30.1698 144.987 30.2288 145.674C31.2864 157.763 37.4973 168.532 31.2649 175.564Z" fill="#EDAB58"/>
<path d="M40.7557 140.188C40.6161 146.173 37.1268 150.387 36.7886 166.878C36.6705 172.714 37.7763 178.388 38.1736 183.407C35.6613 180.884 33.2295 178.291 30.9105 175.623C30.7732 175.614 30.6368 175.594 30.5025 175.564C27.9296 173.24 25.4887 170.774 23.1911 168.177C22.348 166.257 21.3517 164.408 20.2118 162.648C18.2041 159.513 15.8744 156.609 13.5875 153.678C13.8658 153.459 14.1801 153.29 14.5162 153.179C14.6897 153.118 14.8699 153.078 15.053 153.061C15.2507 153.034 15.4512 153.034 15.6489 153.061C15.8341 153.082 16.0151 153.131 16.1857 153.206C17.152 153.619 17.6888 154.644 18.1558 155.595C19.3153 157.999 20.4856 160.394 21.6558 162.799C20.7057 159.159 19.7555 155.493 19.1274 151.789C18.7919 149.919 18.5607 148.031 18.4349 146.136C18.1033 141.658 18.7405 137.161 20.3031 132.952C20.3675 132.785 20.4373 132.619 20.5124 132.458C20.9013 131.524 21.3551 130.618 21.8706 129.747C22.1226 129.305 22.4413 128.905 22.8153 128.561C22.9901 128.394 23.1981 128.266 23.4257 128.186C23.6533 128.105 23.8953 128.074 24.1359 128.094C24.357 128.117 24.5689 128.195 24.7532 128.319C25.2744 128.736 25.624 129.33 25.7356 129.989C25.8215 130.329 25.8825 130.675 25.9181 131.025C26.5945 137.337 27.2691 143.649 27.9419 149.958C28.0922 151.386 28.2479 152.814 28.3982 154.252C28.5217 152.878 28.6505 151.477 28.8223 150.081C29.0623 147.938 29.4752 145.818 30.057 143.742C30.7814 141.014 32.1158 138.486 33.9596 136.35C34.6667 135.498 35.5957 134.859 36.6437 134.503C37.0613 134.378 37.5016 134.349 37.932 134.417L38.1467 134.46C38.691 134.638 39.1835 134.946 39.5812 135.357C39.9789 135.769 40.2697 136.272 40.4282 136.822C40.7315 137.917 40.8423 139.056 40.7557 140.188Z" fill="#B5E78D"/>
<path d="M211.822 97.9035C211.983 101.446 209.922 106.412 206.314 105.8C205.734 105.684 205.171 105.492 204.639 105.231C205.176 102.627 203.84 99.6106 205.3 97.4258C206.094 96.2179 208.043 94.0009 209.444 93.8989C211.317 93.7593 211.715 95.9549 211.822 97.9035Z" fill="#92E3A9"/>
<path d="M207.023 108.731C205.622 111.27 203.802 113.235 199.916 112.837C199.045 112.739 198.216 112.409 197.516 111.882C197.167 111.634 196.876 111.314 196.661 110.944C196.447 110.573 196.316 110.161 196.276 109.735C196.277 109.181 196.444 108.64 196.755 108.182C197.066 107.724 197.506 107.369 198.021 107.163C199.057 106.749 200.17 106.566 201.284 106.627C202.478 106.643 203.662 106.851 204.79 107.244C205.614 107.608 206.369 108.111 207.023 108.731Z" fill="#92E3A9"/>
<path d="M204.478 105.371C206.626 107.894 208.773 110.379 210.759 112.956" stroke="#92E3A9" stroke-miterlimit="10"/>
<path d="M223.809 113.192C223.787 115.189 223.124 117.127 221.92 118.721C220.76 120.197 219.166 121.013 217.442 120.46C216.892 120.256 216.365 119.993 215.87 119.676C216.299 118.436 216.251 116.992 216.256 115.618C216.262 114.244 216.31 112.907 217.051 111.801C217.872 110.604 219.778 108.312 221.286 108.382C223.288 108.489 223.852 111.077 223.809 113.192Z" fill="#92E3A9"/>
<path d="M217.673 123.439C216.856 124.568 215.784 125.487 214.544 126.124C213.114 126.732 211.522 126.849 210.018 126.456C209.238 126.294 208.516 125.923 207.93 125.383C207.642 125.145 207.417 124.84 207.276 124.494C207.134 124.149 207.08 123.773 207.12 123.402C207.229 122.871 207.475 122.378 207.832 121.97C208.19 121.563 208.647 121.255 209.159 121.077C210.193 120.717 211.294 120.598 212.38 120.729C213.546 120.82 214.682 121.145 215.719 121.684C216.466 122.153 217.127 122.747 217.673 123.439Z" fill="#92E3A9"/>
<path d="M210.781 112.956C212.681 115.328 214.404 117.83 216.079 120.353C217.754 122.876 219.235 125.533 220.594 128.249" stroke="#92E3A9" stroke-miterlimit="10"/>
<path d="M233.327 130.934C232.522 134.691 228.941 138.61 225.709 136.887C225.195 136.593 224.722 136.232 224.303 135.813C224.632 135.221 224.88 134.587 225.038 133.929C225.199 133.269 225.307 132.582 225.436 131.905C225.699 130.558 226.026 129.253 226.976 128.314C228.018 127.294 230.305 125.426 231.808 125.775C233.724 126.274 233.756 128.915 233.327 130.934Z" fill="#92E3A9"/>
<path d="M225.42 139.866C223.235 141.82 220.889 142.985 217.367 141.476C215.859 140.848 214.565 139.329 215.027 137.821C215.223 137.316 215.552 136.873 215.977 136.537C216.403 136.202 216.911 135.987 217.448 135.915C218.539 135.761 219.65 135.853 220.701 136.183C221.821 136.518 222.871 137.055 223.798 137.767C224.468 138.357 225.018 139.069 225.42 139.866Z" fill="#92E3A9"/>
<path d="M220.572 128.25C223.308 133.69 225.641 139.323 227.551 145.105" stroke="#92E3A9" stroke-miterlimit="10"/>
<path d="M239.833 149.969C239.131 151.886 237.791 153.503 236.038 154.548C234.4 155.477 232.618 155.622 231.233 154.43C230.795 154.039 230.402 153.6 230.063 153.12C230.943 152.127 231.405 150.785 231.856 149.443C232.307 148.101 232.769 146.898 233.837 146.098C234.996 145.24 237.557 143.731 238.958 144.257C239.892 144.628 240.262 145.39 240.348 146.404C240.444 147.616 240.268 148.834 239.833 149.969Z" fill="#92E3A9"/>
<path d="M230.278 157.259C227.712 158.66 225.14 159.138 222.086 157.066C220.792 156.196 219.831 154.693 220.604 153.496C220.934 153.084 221.35 152.749 221.823 152.514C222.296 152.279 222.814 152.151 223.342 152.138C224.417 152.103 225.485 152.334 226.45 152.809C227.496 153.294 228.425 153.997 229.177 154.87C229.695 155.588 230.068 156.399 230.278 157.259Z" fill="#92E3A9"/>
<path d="M227.535 145.105L228.93 149.459C229.362 150.889 229.711 152.343 229.977 153.813C230.528 156.783 230.876 159.787 231.018 162.804" stroke="#92E3A9" stroke-miterlimit="10"/>
<path d="M241.379 170.899C240.152 172.514 238.428 173.682 236.473 174.222C234.631 174.667 232.903 174.286 231.877 172.778C231.568 172.279 231.312 171.748 231.115 171.194C233.38 169.782 234.336 166.503 236.795 165.574C238.163 165.085 241.057 164.312 242.233 165.305C243.811 166.626 242.667 169.181 241.379 170.899Z" fill="#92E3A9"/>
<path d="M230.181 175.231C228.836 175.567 227.431 175.582 226.08 175.274C224.615 174.846 223.316 173.978 222.36 172.789C221.345 171.619 220.846 169.922 221.925 168.854C222.341 168.514 222.835 168.282 223.362 168.179C223.889 168.076 224.434 168.105 224.947 168.263C225.986 168.582 226.939 169.133 227.733 169.874C228.593 170.644 229.287 171.581 229.773 172.628C230.076 173.461 230.214 174.345 230.181 175.231Z" fill="#92E3A9"/>
<path d="M231.019 162.804C231.372 168.825 230.779 174.864 229.263 180.702" stroke="#92E3A9" stroke-miterlimit="10"/>
<path d="M236.011 192.173C235.104 192.747 234.105 193.16 233.058 193.397C232.068 193.623 231.044 193.656 230.041 193.494C228.184 193.161 226.783 192.034 226.477 190.273C226.405 189.693 226.383 189.107 226.413 188.523C227.733 188.324 228.92 187.535 230.117 186.784C231.314 186.032 232.463 185.297 233.788 185.259C235.238 185.259 238.244 185.415 239.001 186.816C240.064 188.679 237.949 190.939 236.011 192.173Z" fill="#92E3A9"/>
<path d="M223.933 191.722C222.586 191.413 221.331 190.79 220.272 189.903C219.178 188.899 218.361 187.631 217.899 186.22C217.362 184.835 217.469 183.375 218.795 182.924C219.311 182.808 219.847 182.806 220.364 182.917C220.881 183.028 221.368 183.251 221.791 183.568C222.647 184.215 223.34 185.054 223.815 186.016C224.331 187.013 224.614 188.114 224.641 189.237C224.594 190.108 224.351 190.957 223.933 191.722Z" fill="#92E3A9"/>
<path d="M229.263 180.701C228.47 183.579 227.354 186.358 225.935 188.984C224.496 191.578 222.688 193.949 220.567 196.022" stroke="#92E3A9" stroke-miterlimit="10"/>
<path d="M221.764 208.798C219.824 208.917 217.889 208.493 216.176 207.574C214.565 206.64 213.492 205.207 213.776 203.414C213.884 202.834 214.065 202.269 214.313 201.734C216.922 202.271 219.917 200.821 222.123 202.271C222.921 202.797 223.681 203.376 224.4 204.005C225.178 204.708 225.736 205.577 225.72 206.356C225.924 208.203 223.739 208.643 221.764 208.798Z" fill="#92E3A9"/>
<path d="M210.856 204.112C208.333 202.673 206.465 200.805 206.738 197.015C206.851 195.405 207.936 193.579 209.669 193.456C210.224 193.447 210.768 193.604 211.233 193.906C211.698 194.208 212.062 194.642 212.278 195.152C212.71 196.181 212.92 197.29 212.896 198.405C212.914 199.59 212.733 200.77 212.359 201.895C211.995 202.718 211.486 203.469 210.856 204.112Z" fill="#92E3A9"/>
<path d="M220.583 196.022C220.078 196.559 219.509 197.01 218.94 197.509L217.169 198.996L213.674 202.013C212.52 203.017 211.36 204.004 210.179 204.949C209.594 205.427 208.998 205.889 208.392 206.34C207.785 206.79 207.179 207.231 206.545 207.725" stroke="#92E3A9" stroke-miterlimit="10"/>
<path d="M208.59 219.948C207.73 219.987 206.868 219.951 206.014 219.84C205.081 219.716 204.163 219.494 203.276 219.18C201.574 218.563 200.103 217.446 200.055 215.637C200.064 215.039 200.156 214.444 200.329 213.871C203.013 213.978 205.778 212.422 208.027 213.871C209.256 214.617 211.468 216.555 211.736 217.854C211.832 218.197 211.794 218.564 211.629 218.879C211.48 219.161 211.237 219.382 210.942 219.502C210.187 219.776 209.393 219.926 208.59 219.948Z" fill="#92E3A9"/>
<path d="M197.36 216.996C195.927 216.657 194.612 216.271 193.576 215.385C192.54 214.499 191.82 213.174 191.777 210.924C191.729 209.035 192.958 206.517 194.88 206.018C195.437 205.876 196.027 205.932 196.547 206.175C197.068 206.419 197.488 206.836 197.736 207.354C198.221 208.399 198.498 209.527 198.552 210.677C198.643 211.916 198.587 213.161 198.386 214.387C198.16 215.298 197.815 216.175 197.36 216.996Z" fill="#92E3A9"/>
<path d="M206.545 207.725C201.513 211.576 197.407 216.507 194.531 222.154" stroke="#92E3A9" stroke-miterlimit="10"/>
<path d="M201.617 232.359C200.022 233.203 198.28 233.733 196.485 233.921C194.633 234.077 192.889 233.707 192.067 232.08C191.806 231.539 191.635 230.959 191.563 230.362C194.016 229.315 195.889 226.739 198.541 227.066C199.969 227.206 202.788 227.973 203.598 229.068C204.656 230.486 203.093 231.489 201.617 232.359Z" fill="#92E3A9"/>
<path d="M190.183 234.485C187.343 235.064 184.584 235.397 182.528 231.36C182.103 230.405 181.918 229.36 181.991 228.317C182.058 227.287 182.506 226.318 183.247 225.6C183.696 225.239 184.255 225.042 184.831 225.042C185.407 225.042 185.966 225.239 186.415 225.6C187.298 226.347 188.027 227.259 188.562 228.284C189.173 229.365 189.655 230.515 189.995 231.709C190.105 232.17 190.162 232.642 190.167 233.116C190.194 233.556 190.183 234.023 190.183 234.485Z" fill="#92E3A9"/>
<path d="M194.531 222.154C191.621 227.789 190.019 234.007 189.845 240.347" stroke="#92E3A9" stroke-miterlimit="10"/>
<path d="M208.633 129.173C208.644 130.172 208.462 131.163 208.097 132.093C207.775 132.964 207.274 133.758 206.626 134.423C205.413 135.658 203.856 136.125 202.363 135.416C201.882 135.186 201.429 134.9 201.016 134.563C201.461 133.383 201.644 132.121 201.553 130.864C201.553 129.576 201.521 128.276 202.09 127.214C202.745 126.059 204.21 123.714 205.74 123.858C206.771 123.955 207.506 124.755 208 125.78C208.442 126.856 208.657 128.011 208.633 129.173Z" fill="#92E3A9"/>
<path d="M202.192 138.122C201.255 139.042 200.082 139.686 198.802 139.984C197.523 140.281 196.186 140.22 194.939 139.807C193.683 139.437 192.588 138.734 192.996 137.563C193.384 136.686 194.104 135.999 194.998 135.652C195.9 135.299 196.876 135.175 197.838 135.293C198.863 135.393 199.848 135.739 200.71 136.302C201.332 136.792 201.838 137.413 202.192 138.122Z" fill="#92E3A9"/>
<path d="M200.812 134.68C202.17 137.268 203.16 140.032 203.754 142.893" stroke="#92E3A9" stroke-miterlimit="10"/>
<path d="M213.964 149.421C213.003 151.041 211.501 152.269 209.723 152.889C208.075 153.426 206.502 153.158 205.461 151.848C205.153 151.408 204.887 150.941 204.666 150.452C206.636 149.019 207.211 145.9 209.31 144.746C210.491 144.139 213.014 143.044 214.195 143.881C215.794 145.025 215.016 147.671 213.964 149.421Z" fill="#92E3A9"/>
<path d="M204.065 154.188C202.864 154.572 201.589 154.666 200.345 154.462C198.991 154.149 197.764 153.434 196.823 152.411C196.335 151.947 195.978 151.362 195.787 150.715C195.697 150.432 195.684 150.13 195.751 149.84C195.817 149.55 195.959 149.283 196.163 149.067C196.525 148.748 196.955 148.515 197.42 148.387C197.885 148.259 198.373 148.238 198.847 148.326C199.811 148.513 200.719 148.921 201.499 149.518C202.342 150.137 203.038 150.935 203.539 151.853C203.869 152.588 204.048 153.382 204.065 154.188Z" fill="#92E3A9"/>
<path d="M203.754 142.915C204.292 145.602 204.531 148.34 204.468 151.08C204.392 153.835 204.085 156.579 203.55 159.282" stroke="#92E3A9" stroke-miterlimit="10"/>
<path d="M210.947 168.645C209.525 169.784 207.775 170.437 205.955 170.508C204.242 170.534 202.734 169.885 202.154 168.36C201.969 167.854 201.852 167.325 201.805 166.787C204.097 165.982 205.643 163.293 208.043 163.03C209.353 162.896 212.069 162.847 212.901 163.985C214.002 165.462 212.455 167.448 210.947 168.645Z" fill="#92E3A9"/>
<path d="M200.168 170.223C197.516 170.276 195.192 169.643 193.672 166.535C193.034 165.22 192.958 163.464 194.172 162.713C194.608 162.486 195.095 162.377 195.586 162.394C196.077 162.412 196.555 162.557 196.974 162.815C197.825 163.33 198.545 164.036 199.078 164.876C199.677 165.76 200.098 166.752 200.318 167.796C200.417 168.607 200.366 169.43 200.168 170.223Z" fill="#92E3A9"/>
<path d="M203.55 159.261C202.404 164.709 200.702 170.024 198.472 175.124" stroke="#92E3A9" stroke-miterlimit="10"/>
<path d="M204.409 185.227C202.871 186.02 201.15 186.39 199.422 186.3C197.736 186.193 196.244 185.527 195.744 183.938C195.6 183.414 195.528 182.872 195.53 182.328C197.881 181.721 199.787 179.386 202.192 179.574C203.501 179.682 206.153 180.202 206.797 181.389C207.651 182.988 205.949 184.395 204.409 185.227Z" fill="#92E3A9"/>
<path d="M193.667 185.785C191.031 185.785 188.573 185.415 187.343 181.759C186.807 180.219 187.091 178.071 188.465 177.314C188.918 177.096 189.426 177.016 189.925 177.085C190.423 177.153 190.89 177.368 191.267 177.701C192.031 178.373 192.638 179.205 193.044 180.138C193.511 181.132 193.816 182.194 193.946 183.284C193.981 184.127 193.887 184.971 193.667 185.785Z" fill="#92E3A9"/>
<path d="M198.472 175.124C196.324 180.267 193.731 185.35 192.191 190.928" stroke="#92E3A9" stroke-miterlimit="10"/>
<path d="M200.474 198.449C199.217 199.426 197.82 200.208 196.33 200.768C194.784 201.331 193.109 201.519 192.003 200.279C191.647 199.858 191.362 199.381 191.16 198.867C192.148 198.121 192.873 197.085 193.721 196.215C194.569 195.346 195.471 194.648 196.652 194.541C197.951 194.396 200.613 194.573 201.537 195.373C202.761 196.409 201.59 197.498 200.474 198.449Z" fill="#92E3A9"/>
<path d="M190.994 202.915C189.845 203.597 188.739 204.225 187.504 204.3C186.27 204.375 184.901 203.865 183.5 202.153C182.292 200.698 181.696 197.912 182.802 196.377C183.105 195.939 183.556 195.626 184.073 195.496C184.589 195.365 185.135 195.427 185.609 195.668C186.544 196.164 187.372 196.839 188.047 197.654C188.824 198.515 189.509 199.454 190.092 200.456C190.474 201.244 190.776 202.067 190.994 202.915Z" fill="#92E3A9"/>
<path d="M192.191 190.906C191.393 193.7 190.979 196.59 190.962 199.495C190.962 202.421 189.212 208.771 191.713 229.611" stroke="#92E3A9" stroke-miterlimit="10"/>
<path d="M149.858 77.0639V135.625L123.962 165.493C119.907 169.87 114.966 173.333 109.468 175.65C106.972 176.723 103.998 176.992 103.799 177.18C102.323 178.586 85.9876 202.222 77.2966 214.859C72.1163 211.67 67.0649 208.283 62.1638 204.745C53.8212 198.773 45.9367 192.186 38.5762 185.039L66.3188 147.462C71.0803 135.652 70.4683 128.92 71.7191 117.121C72.7927 106.76 75.6271 98.1929 75.9116 94.6123C76.0136 93.3508 77.0389 78.1751 77.0604 76.8975C77.098 75.228 79.2076 71.277 79.6049 69.6505C82.8258 55.9295 85.3595 53.8735 88.9616 55.951C89.4984 56.257 94.3297 58.9572 90.0352 74.5516C89.0528 78.1268 90.4324 101.033 90.4324 101.033L149.858 77.0639Z" fill="white"/>
<mask id="mask0_432_2582" style="mask-type:luminance" maskUnits="userSpaceOnUse" x="38" y="55" width="112" height="160">
<path d="M149.858 77.0639V135.625L123.962 165.493C119.907 169.87 114.966 173.333 109.468 175.65C106.972 176.723 103.998 176.992 103.799 177.18C102.323 178.586 85.9876 202.222 77.2966 214.859C72.1163 211.67 67.0649 208.283 62.1638 204.745C53.8212 198.773 45.9367 192.186 38.5762 185.039L66.3188 147.462C71.0803 135.652 70.4683 128.92 71.7191 117.121C72.7927 106.76 75.6271 98.1929 75.9116 94.6123C76.0136 93.3508 77.0389 78.1751 77.0604 76.8975C77.098 75.228 79.2076 71.277 79.6049 69.6505C82.8258 55.9295 85.3595 53.8735 88.9616 55.951C89.4984 56.257 94.3297 58.9572 90.0352 74.5516C89.0528 78.1268 90.4324 101.033 90.4324 101.033L149.858 77.0639Z" fill="white"/>
</mask>
<g mask="url(#mask0_432_2582)">
<path d="M113.397 159.846C104.127 163.442 93.6587 164.849 84.2054 161.757L95.9884 172.16C97.8727 173.824 99.8267 175.526 102.205 176.337C106.247 177.716 110.713 176.251 114.444 174.189C124.493 168.596 131.477 158.906 138.123 149.496C139.481 147.58 140.807 144.482 137.377 146.205C134.628 147.59 132.095 149.781 129.486 151.429C124.408 154.748 119.02 157.567 113.397 159.846Z" fill="#92E3A9"/>
<path opacity="0.5" d="M113.397 159.846C104.127 163.442 93.6587 164.849 84.2054 161.757L95.9884 172.16C97.8727 173.824 99.8267 175.526 102.205 176.337C106.247 177.716 110.713 176.251 114.444 174.189C124.493 168.596 131.477 158.906 138.123 149.496C139.481 147.58 140.807 144.482 137.377 146.205C134.628 147.59 132.095 149.781 129.486 151.429C124.408 154.748 119.02 157.567 113.397 159.846Z" fill="white"/>
<path d="M86.2399 77.547C91.8925 85.4919 88.8273 100.813 86.9163 103.851C86.9163 103.851 90.6739 133.145 98.1518 144.3C101.97 125.144 103.116 105.552 101.555 86.0824C100.809 76.7848 97.7438 63.971 91.1463 57.3789C91.141 57.3521 90.7652 72.0876 86.2399 77.547Z" fill="#92E3A9"/>
<g opacity="0.5">
<path d="M86.2399 77.547C91.8925 85.4919 88.8273 100.813 86.9163 103.851C86.9163 103.851 90.6739 133.145 98.1518 144.3C101.97 125.144 103.116 105.552 101.555 86.0824C100.809 76.7848 97.7438 63.971 91.1463 57.3789C91.141 57.3521 90.7652 72.0876 86.2399 77.547Z" fill="white"/>
</g>
<path d="M91.0981 150.559C92.1717 153.984 93.2453 157.411 94.319 160.839C101.536 159.964 108.808 159.621 116.076 159.814C119.834 159.916 123.591 160.152 127.252 159.363C130.914 158.574 134.499 156.593 136.266 153.302C137.43 151.118 137.5 147.999 135.493 146.555C134.333 145.728 132.808 145.669 131.381 145.744C126.775 145.996 122.298 147.355 117.719 147.891C113.14 148.428 108.158 148.079 104.47 145.304C102.044 143.479 100.423 140.795 98.2645 138.658C96.3911 136.806 91.4685 133.827 89.434 136.769C87.2223 139.936 90.105 147.381 91.0981 150.559Z" fill="#92E3A9"/>
<path opacity="0.5" d="M91.0981 150.559C92.1717 153.984 93.2453 157.411 94.319 160.839C101.536 159.964 108.808 159.621 116.076 159.814C119.834 159.916 123.591 160.152 127.252 159.363C130.914 158.574 134.499 156.593 136.266 153.302C137.43 151.118 137.5 147.999 135.493 146.555C134.333 145.728 132.808 145.669 131.381 145.744C126.775 145.996 122.298 147.355 117.719 147.891C113.14 148.428 108.158 148.079 104.47 145.304C102.044 143.479 100.423 140.795 98.2645 138.658C96.3911 136.806 91.4685 133.827 89.434 136.769C87.2223 139.936 90.105 147.381 91.0981 150.559Z" fill="white"/>
<path d="M79.0788 163.899C78.236 166.583 76.7437 169.02 75.2674 171.414L60.2903 195.78C73.5121 181.968 79.1271 172.483 87.4209 163.915C87.0129 164.806 81.516 158.837 81.312 158.778C78.8158 157.946 79.6747 161.993 79.0788 163.899Z" fill="#92E3A9"/>
<g opacity="0.5">
<path d="M79.0788 163.899C78.236 166.583 76.7437 169.02 75.2674 171.414L60.2903 195.78C73.5121 181.968 79.1271 172.483 87.4209 163.915C87.0129 164.806 81.516 158.837 81.312 158.778C78.8158 157.946 79.6747 161.993 79.0788 163.899Z" fill="white"/>
</g>
<path d="M78.3917 187.701L86.1111 177.62C88.5321 174.453 91.388 171.028 95.3497 170.556C93.4708 170.781 91.6725 165.955 89.3535 166.352C87.3672 166.696 86.4708 170.792 85.7568 172.381C83.4449 177.556 80.9899 182.663 78.3917 187.701Z" fill="#92E3A9"/>
<path opacity="0.5" d="M78.3917 187.701L86.1111 177.62C88.5321 174.453 91.388 171.028 95.3497 170.556C93.4708 170.781 91.6725 165.955 89.3535 166.352C87.3672 166.696 86.4708 170.792 85.7568 172.381C83.4449 177.556 80.9899 182.663 78.3917 187.701Z" fill="white"/>
<path d="M66.8287 218.198L72.8518 223.136C85.5228 209.176 96.3097 193.616 104.937 176.852C103.563 176.23 102.253 176.568 98.2645 173.336C97.1587 172.44 82.5735 198.926 66.8287 218.198Z" fill="#92E3A9"/>
<path opacity="0.5" d="M66.8287 218.198L72.8518 223.136C85.5228 209.176 96.3097 193.616 104.937 176.852C103.563 176.23 102.253 176.568 98.2645 173.336C97.1587 172.44 82.5735 198.926 66.8287 218.198Z" fill="white"/>
</g>
<path d="M38.6031 185.039L66.3456 147.462C71.1071 135.652 70.4952 128.92 71.746 117.121C72.8196 106.76 75.654 98.1929 75.9385 94.6123C76.0405 93.3508 77.0658 78.1751 77.0872 76.8975C77.1248 75.228 79.2345 71.277 79.6317 69.6505C82.8526 55.9295 85.3864 53.8735 88.9884 55.951C89.5252 56.257 95.2691 58.9572 90.9746 74.5516C89.9922 78.1268 91.1464 100.753 91.1464 100.753L149.858 77.0692V135.625L123.962 165.493C119.907 169.87 114.966 173.333 109.468 175.65C106.972 176.723 103.998 176.992 103.799 177.18C102.323 178.586 85.9876 202.222 77.2966 214.859" stroke="#263238" stroke-miterlimit="10"/>
<path d="M154.979 75.8936C155.556 75.6251 156.147 75.3885 156.75 75.185C158.898 74.4603 161.92 74.1114 163.793 75.4212C165.892 76.8598 167.1 81.922 162.258 85.4381C159.353 87.5847 156.174 89.3324 152.805 90.6345C152.064 90.9366 151.265 91.0711 150.466 91.0284C149.667 90.9857 148.887 90.7669 148.183 90.3875C147.335 89.9151 146.615 89.2173 146.572 88.2027C146.363 82.2978 149.621 78.3898 154.979 75.8936Z" fill="white"/>
<mask id="mask1_432_2582" style="mask-type:luminance" maskUnits="userSpaceOnUse" x="146" y="74" width="20" height="18">
<path d="M154.979 75.8936C155.556 75.6251 156.147 75.3885 156.75 75.185C158.898 74.4603 161.92 74.1114 163.793 75.4212C165.892 76.8598 167.1 81.922 162.258 85.4381C159.353 87.5847 156.174 89.3324 152.805 90.6345C152.064 90.9366 151.265 91.0711 150.466 91.0284C149.667 90.9857 148.887 90.7669 148.183 90.3875C147.335 89.9151 146.615 89.2173 146.572 88.2027C146.363 82.2978 149.621 78.3898 154.979 75.8936Z" fill="white"/>
</mask>
<g mask="url(#mask1_432_2582)">
<path d="M153.277 79.3401C152.612 81.6109 152.939 84.0426 153.277 86.3831C153.454 87.6178 153.814 89.0672 154.947 89.5181C155.977 89.9261 157.094 89.3141 158.017 88.6861C159.796 87.5686 161.322 86.0933 162.5 84.354C163.573 82.5717 164.04 80.2903 163.257 78.3524C161.222 73.3493 154.641 74.7021 153.277 79.3401Z" fill="#92E3A9"/>
<path opacity="0.5" d="M153.277 79.3401C152.612 81.6109 152.939 84.0426 153.277 86.3831C153.454 87.6178 153.814 89.0672 154.947 89.5181C155.977 89.9261 157.094 89.3141 158.017 88.6861C159.796 87.5686 161.322 86.0933 162.5 84.354C163.573 82.5717 164.04 80.2903 163.257 78.3524C161.222 73.3493 154.641 74.7021 153.277 79.3401Z" fill="white"/>
</g>
<path d="M154.979 75.8936C155.556 75.6251 156.147 75.3885 156.75 75.185C158.898 74.4603 161.92 74.1114 163.793 75.4212C165.892 76.8598 167.1 81.922 162.258 85.4381C159.353 87.5847 156.174 89.3324 152.805 90.6345C152.064 90.9366 151.265 91.0711 150.466 91.0284C149.667 90.9857 148.887 90.7669 148.183 90.3875C147.335 89.9151 146.615 89.2173 146.572 88.2027C146.363 82.2978 149.621 78.3898 154.979 75.8936Z" stroke="#263238" stroke-miterlimit="10"/>
<path d="M154.217 103.244L145.671 107.539V94.4407L156.095 89.6094C156.095 89.6094 150.786 96.7919 154.217 103.244Z" stroke="#263238" stroke-miterlimit="10"/>
<path d="M151.302 108.226L145.671 111.35V125.989L154.909 122.58L156.095 109.128C156.095 109.128 154.657 108.511 151.302 108.226Z" stroke="#263238" stroke-miterlimit="10"/>
<path d="M155.322 42.021V147.097C155.321 149.19 154.49 151.197 153.013 152.679C151.535 154.161 149.53 154.997 147.437 155.004H99.1234C97.0267 155.003 95.0163 154.169 93.5337 152.687C92.0512 151.204 91.2176 149.194 91.2162 147.097V42.021C91.2162 39.9239 92.0493 37.9127 93.5322 36.4298C95.0151 34.9469 97.0263 34.1138 99.1234 34.1138H147.437C148.011 34.1135 148.583 34.1765 149.144 34.3017C150.898 34.6946 152.465 35.6733 153.588 37.0765C154.712 38.4797 155.323 40.2237 155.322 42.021Z" fill="#263238"/>
<path d="M144.167 37.2861H102.398C98.0309 37.2861 94.4907 40.8263 94.4907 45.1934V143.844C94.4907 148.211 98.0309 151.751 102.398 151.751H144.167C148.535 151.751 152.075 148.211 152.075 143.844V45.1934C152.075 40.8263 148.535 37.2861 144.167 37.2861Z" fill="#EDAB58"/>
<path d="M108.598 37.2861H139.288V38.1826C139.288 39.7131 138.68 41.1809 137.598 42.2631C136.515 43.3454 135.048 43.9534 133.517 43.9534H114.369C112.838 43.9534 111.371 43.3454 110.288 42.2631C109.206 41.1809 108.598 39.7131 108.598 38.1826V37.2861Z" fill="#263238"/>
<path d="M113.88 41.8543C114.702 41.8543 115.367 41.1886 115.367 40.3673C115.367 39.5461 114.702 38.8804 113.88 38.8804C113.059 38.8804 112.393 39.5461 112.393 40.3673C112.393 41.1886 113.059 41.8543 113.88 41.8543Z" fill="white" stroke="#263238" stroke-miterlimit="10"/>
<path d="M128.111 39.1758H119.785C119.077 39.1758 118.502 39.7502 118.502 40.4588V40.8614C118.502 41.5699 119.077 42.1444 119.785 42.1444H128.111C128.82 42.1444 129.394 41.5699 129.394 40.8614V40.4588C129.394 39.7502 128.82 39.1758 128.111 39.1758Z" fill="white" stroke="#263238" stroke-miterlimit="10"/>
<path d="M151.64 96.8081C151.49 97.7143 151.539 98.6422 151.784 99.5275C152.029 100.413 152.463 101.234 153.057 101.935C154.399 103.479 156.239 104.505 158.259 104.833C159.842 105.107 161.705 104.909 162.73 103.846C163.627 102.922 163.659 101.618 163.643 100.426C163.616 97.506 162.865 93.5067 158.849 92.5995C155.548 91.8479 152.123 94.1026 151.64 96.8081Z" fill="white"/>
<mask id="mask2_432_2582" style="mask-type:luminance" maskUnits="userSpaceOnUse" x="151" y="92" width="13" height="13">
<path d="M151.64 96.8081C151.49 97.7143 151.539 98.6422 151.784 99.5275C152.029 100.413 152.463 101.234 153.057 101.935C154.399 103.479 156.239 104.505 158.259 104.833C159.842 105.107 161.705 104.909 162.73 103.846C163.627 102.922 163.659 101.618 163.643 100.426C163.616 97.506 162.865 93.5067 158.849 92.5995C155.548 91.8479 152.123 94.1026 151.64 96.8081Z" fill="white"/>
</mask>
<g mask="url(#mask2_432_2582)">
<path d="M151.635 95.9168C151.377 96.9328 151.381 97.9974 151.647 99.0113C151.913 100.025 152.431 100.955 153.154 101.714C154.626 103.221 156.558 104.195 158.645 104.484C159.096 103.615 158.398 102.632 157.872 101.8C156.941 100.333 156.489 98.6129 156.579 96.8777C156.622 96.0993 156.922 95.1652 157.69 95.0149C158.372 94.8807 159 95.5034 159.204 96.1691C159.336 96.8502 159.406 97.542 159.413 98.2358C159.423 98.5861 159.529 98.927 159.718 99.222C159.907 99.517 160.173 99.7551 160.487 99.9107C160.639 98.3388 160.456 96.7523 159.95 95.2565C158.275 91.2841 152.805 91.9175 151.635 95.9168Z" fill="#92E3A9"/>
<path opacity="0.5" d="M151.635 95.9168C151.377 96.9328 151.381 97.9974 151.647 99.0113C151.913 100.025 152.431 100.955 153.154 101.714C154.626 103.221 156.558 104.195 158.645 104.484C159.096 103.615 158.398 102.632 157.872 101.8C156.941 100.333 156.489 98.6129 156.579 96.8777C156.622 96.0993 156.922 95.1652 157.69 95.0149C158.372 94.8807 159 95.5034 159.204 96.1691C159.336 96.8502 159.406 97.542 159.413 98.2358C159.423 98.5861 159.529 98.927 159.718 99.222C159.907 99.517 160.173 99.7551 160.487 99.9107C160.639 98.3388 160.456 96.7523 159.95 95.2565C158.275 91.2841 152.805 91.9175 151.635 95.9168Z" fill="white"/>
</g>
<path d="M151.64 96.8081C151.49 97.7143 151.539 98.6422 151.784 99.5275C152.029 100.413 152.463 101.234 153.057 101.935C154.399 103.479 156.239 104.505 158.259 104.833C159.842 105.107 161.705 104.909 162.73 103.846C163.627 102.922 163.659 101.618 163.643 100.426C163.616 97.506 162.865 93.5067 158.849 92.5995C155.548 91.8479 152.123 94.1026 151.64 96.8081Z" stroke="#263238" stroke-miterlimit="10"/>
<path d="M155.054 130.429L149.122 134.916C149.122 134.916 145.44 140.929 152.579 142.485L158.71 140.719C160.158 140.326 161.443 139.479 162.375 138.302C163.307 137.125 163.838 135.681 163.89 134.181C163.928 131.298 162.194 128.249 155.092 127.562L155.054 130.429Z" fill="white"/>
<mask id="mask3_432_2582" style="mask-type:luminance" maskUnits="userSpaceOnUse" x="148" y="127" width="16" height="16">
<path d="M155.054 130.429L149.122 134.916C149.122 134.916 145.44 140.929 152.579 142.485L158.71 140.719C160.158 140.326 161.443 139.479 162.375 138.302C163.307 137.125 163.838 135.681 163.89 134.181C163.928 131.298 162.194 128.249 155.092 127.562L155.054 130.429Z" fill="white"/>
</mask>
<g mask="url(#mask3_432_2582)">
<path d="M153.701 132.952C153.756 133.447 153.929 133.922 154.206 134.337C155.417 136.571 156.183 139.02 156.46 141.546C156.262 139.726 157.271 137.375 157.217 135.421C157.164 133.467 156.981 130.906 155.956 129.237C155.365 130.225 153.685 131.728 153.701 132.952Z" fill="#92E3A9"/>
<path opacity="0.5" d="M153.701 132.952C153.756 133.447 153.929 133.922 154.206 134.337C155.417 136.571 156.183 139.02 156.46 141.546C156.262 139.726 157.271 137.375 157.217 135.421C157.164 133.467 156.981 130.906 155.956 129.237C155.365 130.225 153.685 131.728 153.701 132.952Z" fill="white"/>
</g>
<path d="M155.054 130.429L149.122 134.916C149.122 134.916 145.44 140.929 152.579 142.485L158.71 140.719C160.158 140.326 161.443 139.479 162.375 138.302C163.307 137.125 163.838 135.681 163.89 134.181C163.928 131.298 162.194 128.249 155.092 127.562L155.054 130.429Z" stroke="#263238" stroke-miterlimit="10"/>
<path d="M152.923 112.854L147.437 118.758C147.437 118.758 144.624 125.903 152.574 126.215L158.785 123.182C160.33 122.452 161.68 121.367 162.724 120.015C163.768 118.663 164.477 117.082 164.792 115.403C165.382 111.968 164.083 108.484 155.908 109.123L152.923 112.854Z" fill="white"/>
<mask id="mask4_432_2582" style="mask-type:luminance" maskUnits="userSpaceOnUse" x="146" y="109" width="19" height="18">
<path d="M152.923 112.854L147.437 118.758C147.437 118.758 144.624 125.903 152.574 126.215L158.785 123.182C160.33 122.452 161.68 121.367 162.724 120.015C163.768 118.663 164.477 117.082 164.792 115.403C165.382 111.968 164.083 108.484 155.908 109.123L152.923 112.854Z" fill="white"/>
</mask>
<g mask="url(#mask4_432_2582)">
<path d="M153.309 125.549C153.846 126.022 154.769 125.683 155.129 125.061C155.43 124.404 155.509 123.667 155.355 122.962C155.22 121.888 153.846 114.55 152.177 115.446C151.194 115.983 153.116 124.234 153.309 125.549Z" fill="#92E3A9"/>
<path opacity="0.5" d="M153.309 125.549C153.846 126.022 154.769 125.683 155.129 125.061C155.43 124.404 155.509 123.667 155.355 122.962C155.22 121.888 153.846 114.55 152.177 115.446C151.194 115.983 153.116 124.234 153.309 125.549Z" fill="white"/>
</g>
<path d="M152.923 112.854L147.437 118.758C147.437 118.758 144.624 125.903 152.574 126.215L158.785 123.182C160.33 122.452 161.68 121.367 162.724 120.015C163.768 118.663 164.477 117.082 164.792 115.403C165.382 111.968 164.083 108.484 155.908 109.123L152.923 112.854Z" stroke="#263238" stroke-miterlimit="10"/>
<path d="M152.536 117.212C152.111 117.288 151.708 117.456 151.354 117.703C151 117.951 150.705 118.273 150.489 118.647C150.273 119.021 150.141 119.438 150.103 119.868C150.065 120.298 150.121 120.732 150.268 121.138C150.415 121.544 150.649 121.913 150.953 122.219C151.258 122.526 151.626 122.761 152.031 122.911C152.436 123.06 152.869 123.119 153.3 123.083C153.73 123.047 154.147 122.918 154.523 122.704" stroke="#263238" stroke-miterlimit="10"/>
<path d="M154.372 135.115C152.671 134.841 151.039 136.726 151.565 138.384C152.091 140.043 154.528 140.617 155.752 139.404" fill="white"/>
<path d="M154.372 135.115C152.671 134.841 151.039 136.726 151.565 138.384C152.091 140.043 154.528 140.617 155.752 139.404" stroke="#263238" stroke-miterlimit="10"/>
<path d="M83.6846 77.5418C86.3012 77.74 88.8979 76.9573 90.9692 75.3462" stroke="#263238" stroke-miterlimit="10"/>
<path d="M89.9976 102.246C87.8979 103.947 85.2866 104.893 82.5842 104.93" stroke="#263238" stroke-miterlimit="10"/>
<path d="M97.513 154.548C96.32 157.95 94.0292 160.858 91.0015 162.815" stroke="#263238" stroke-miterlimit="10"/>
<path d="M130.647 85.9486C133.994 81.884 133.413 75.8756 129.348 72.5285C125.283 69.1814 119.275 69.7632 115.928 73.8278C112.581 77.8925 113.163 83.9008 117.227 87.2479C121.292 90.595 127.3 90.0132 130.647 85.9486Z" stroke="#263238" stroke-miterlimit="10"/>
<path d="M121.643 85.2452L116.838 80.0543L118.019 78.9645L121.707 82.9477L129.201 75.7275L130.318 76.8924L121.643 85.2452Z" fill="#263238"/>
<path d="M120.295 66.9398L119.345 64.0518H119.882L120.585 66.2634L121.294 64.0518H121.766L120.811 66.9398V68.5503H120.311L120.295 66.9398Z" fill="#263238"/>
<path d="M123.715 66.0487V66.4996H122.614V68.1101H123.967V68.5664H122.115V64.0625H123.967V64.5188H122.614V66.0594L123.715 66.0487Z" fill="#263238"/>
<path d="M126.383 65.1307V65.2542H125.905V65.1039C125.905 64.7013 125.755 64.4597 125.368 64.4597C124.982 64.4597 124.831 64.7013 124.831 65.0985C124.831 66.1131 126.345 66.2097 126.345 67.4766C126.345 68.1584 126.018 68.6039 125.331 68.6039C124.644 68.6039 124.316 68.1584 124.316 67.4766V67.2243H124.788V67.5088C124.788 67.9114 124.955 68.153 125.325 68.153C125.696 68.153 125.862 67.9114 125.862 67.5088C125.862 66.505 124.354 66.4083 124.354 65.1361C124.354 64.4436 124.676 64.0088 125.352 64.0088C126.028 64.0088 126.383 64.449 126.383 65.1307Z" fill="#263238"/>
<path d="M123.79 133.397C132.124 133.397 138.88 126.641 138.88 118.308C138.88 109.974 132.124 103.218 123.79 103.218C115.456 103.218 108.7 109.974 108.7 118.308C108.7 126.641 115.456 133.397 123.79 133.397Z" fill="#263238"/>
<path d="M129.351 108.07L133.925 112.639L128.412 118.152L133.925 123.665L129.357 128.238L123.838 122.72L118.325 128.238L113.757 123.665L119.27 118.152L113.757 112.639L118.331 108.07L123.838 113.583L129.351 108.07Z" fill="#F0941F"/>
<path d="M116.543 96.4322V97.0066H115.872V96.4C115.872 95.8256 115.641 95.4767 115.12 95.4767C114.6 95.4767 114.374 95.8256 114.374 96.4V99.7712C114.374 100.346 114.611 100.695 115.12 100.695C115.63 100.695 115.872 100.346 115.872 99.7712V98.9445H116.543V99.7336C116.543 100.7 116.087 101.344 115.104 101.344C114.122 101.344 113.671 100.705 113.671 99.7336V96.4322C113.671 95.466 114.127 94.8218 115.104 94.8218C116.081 94.8218 116.543 95.466 116.543 96.4322Z" fill="#263238"/>
<path d="M117.912 99.9698L117.665 101.253H117.01L118.229 94.8701H119.259L120.483 101.253H119.769L119.522 99.9698H117.912ZM118.003 99.3579H119.426L118.706 95.6753L118.003 99.3579Z" fill="#263238"/>
<path d="M121.67 101.274H121.031V94.8916H121.933L123.409 99.5082V94.8916H124.037V101.274H123.28L121.67 96.1155V101.274Z" fill="#263238"/>
<path d="M127.575 96.4322V97.0066H126.898V96.4C126.898 95.8256 126.673 95.4767 126.152 95.4767C125.631 95.4767 125.406 95.8256 125.406 96.4V99.7712C125.406 100.346 125.642 100.695 126.152 100.695C126.662 100.695 126.898 100.346 126.898 99.7712V98.9445H127.575V99.7336C127.575 100.7 127.118 101.344 126.136 101.344C125.154 101.344 124.703 100.705 124.703 99.7336V96.4322C124.703 95.466 125.159 94.8218 126.136 94.8218C127.113 94.8218 127.575 95.466 127.575 96.4322Z" fill="#263238"/>
<path d="M130.506 97.7206V98.3594H128.943V100.63H130.86V101.274H128.235V94.8916H130.86V95.5411H128.943V97.7206H130.506Z" fill="#263238"/>
<path d="M131.515 101.274V94.8916H132.229V100.63H134.049V101.274H131.515Z" fill="#263238"/>
<path d="M115.12 51.8335C115.829 51.8335 116.13 52.2522 116.13 52.9071V53.4439C116.13 54.1579 115.797 54.5175 115.056 54.5175H114.61V56.2944H114.154V51.7852L115.12 51.8335ZM115.083 54.1149C115.453 54.1149 115.62 53.9431 115.62 53.5083V52.9125C115.62 52.4991 115.469 52.2951 115.083 52.2951H114.6V54.1149H115.083Z" fill="#263238"/>
<path d="M117.547 51.834C118.255 51.834 118.556 52.199 118.556 52.8647V53.2351C118.556 53.7289 118.379 54.0403 118.019 54.1584C118.433 54.2819 118.588 54.62 118.588 55.0978V55.801C118.574 55.9848 118.605 56.1692 118.68 56.3378H118.17C118.099 56.1682 118.07 55.9842 118.084 55.801V55.0924C118.084 54.5556 117.848 54.4214 117.429 54.4214H117.074V56.3486H116.57V51.8393L117.547 51.834ZM117.418 53.9812C117.821 53.9812 118.057 53.8524 118.057 53.3639V52.9344C118.057 52.5265 117.912 52.3171 117.52 52.3171H117.032V53.9812H117.418Z" fill="#263238"/>
<path d="M119.045 52.9237C119.045 52.2366 119.388 51.791 120.075 51.791C120.762 51.791 121.111 52.2366 121.111 52.9237V55.2535C121.132 55.3988 121.12 55.5469 121.077 55.6872C121.034 55.8275 120.96 55.9564 120.861 56.0647C120.762 56.1731 120.64 56.2581 120.504 56.3136C120.368 56.3692 120.222 56.394 120.075 56.3861C119.388 56.3861 119.045 55.9352 119.045 55.2535V52.9237ZM119.538 55.2803C119.538 55.6937 119.716 55.9298 120.075 55.9298C120.435 55.9298 120.612 55.6937 120.612 55.2803V52.8969C120.612 52.4942 120.446 52.2473 120.075 52.2473C119.705 52.2473 119.538 52.4942 119.538 52.8969V55.2803Z" fill="#263238"/>
<path d="M123.575 52.9237V53.3317H123.103V52.8968C123.103 52.4942 122.942 52.2473 122.566 52.2473C122.19 52.2473 122.029 52.4942 122.029 52.8968V55.2803C122.029 55.6883 122.196 55.9298 122.566 55.9298C122.936 55.9298 123.103 55.6883 123.103 55.2803V54.6952H123.575V55.232C123.575 55.9137 123.259 56.3647 122.561 56.3647C121.863 56.3647 121.552 55.9137 121.552 55.232V52.9022C121.552 52.2205 121.874 51.7695 122.561 51.7695C123.248 51.7695 123.575 52.2419 123.575 52.9237Z" fill="#263238"/>
<path d="M125.642 53.8309V54.2819H124.536V55.8923H125.889V56.3486H124.037V51.8394H125.889V52.301H124.536V53.8363L125.642 53.8309Z" fill="#263238"/>
<path d="M127.956 53.8309V54.2819H126.882V55.8923H128.235V56.3486H126.383V51.8394H128.235V52.301H126.882V53.8363L127.956 53.8309Z" fill="#263238"/>
<path d="M129.722 51.834C130.425 51.834 130.747 52.2634 130.747 52.9559V55.2266C130.747 55.9191 130.425 56.3432 129.722 56.3432H128.648V51.834H129.722ZM129.722 55.8869C130.081 55.8869 130.259 55.6615 130.259 55.2481V52.9291C130.259 52.5211 130.081 52.2956 129.722 52.2956H129.185V55.8869H129.722Z" fill="#263238"/>
<path d="M134.14 52.9291C134.14 54.0027 133.249 54.2335 133.249 55.0763C133.248 55.1597 133.259 55.2427 133.281 55.3233H132.83C132.807 55.2393 132.797 55.1526 132.798 55.0656C132.798 54.0778 133.641 53.9329 133.641 52.9183C133.641 52.5104 133.49 52.2527 133.104 52.2527C132.717 52.2527 132.567 52.5157 132.567 52.9183V53.3156H132.095V52.9452C132.095 52.2634 132.406 51.8018 133.093 51.8018C133.78 51.8018 134.14 52.2419 134.14 52.9291ZM133.286 55.7205V56.3432H132.808V55.7205H133.286Z" fill="#263238"/>
<path opacity="0.2" d="M111.309 34.1299L91.141 60.2083V42.0371C91.141 39.94 91.9741 37.9288 93.457 36.4459C94.9399 34.963 96.9511 34.1299 99.0483 34.1299H111.309Z" fill="white"/>
<path opacity="0.2" d="M149.047 34.1459L91.1464 106.702V78.6263L128.24 33.9419H147.345C147.918 33.9473 148.489 34.0157 149.047 34.1459Z" fill="white"/>
<path opacity="0.2" d="M155.322 114.716V126.869L152.08 130.847L135.031 151.751L132.379 155.004H121.863L124.563 151.751L152.08 118.618L155.322 114.716Z" fill="white"/>
<path d="M203.325 235.488C190.887 241.05 176.795 242.902 163.064 242.521C162.231 242.521 161.405 242.467 160.578 242.429L159.086 236.616C148.124 225.343 127.993 215.004 126.249 199.372C123.994 179.3 120.908 180.116 120.908 175.124C122.109 172.663 123.14 170.124 123.994 167.522C124.531 165.874 124.821 163.453 125.122 161.467C125.268 160.453 125.791 159.531 126.587 158.885C127.383 158.239 128.393 157.917 129.416 157.983C130.844 158.073 132.208 158.606 133.319 159.508C135.353 161.231 136.384 163.91 136.636 166.567C136.889 169.224 136.481 171.892 136.046 174.528C138.193 178.597 139.422 183.654 140.34 188.147C141.285 184.389 142.756 172.874 138.891 165.144C132.39 152.121 125.272 139.624 119.668 123.101C119.205 121.563 119.132 119.934 119.453 118.361C120.757 113.438 125.787 114.217 128.133 116.874C128.751 117.574 129.258 118.366 129.636 119.22C132.32 125.06 137.812 133.977 141.693 139.082L155.07 156.797L156.681 155.541C156.681 155.541 157.406 133.531 157.046 133.182C156.686 132.833 154.523 118.758 154.523 118.758C154.523 118.758 153.342 116.139 151.903 112.794C151.479 111.858 151.26 110.842 151.26 109.815C151.26 108.787 151.479 107.772 151.903 106.836C154.415 101.704 159.655 104.093 160.728 106.836C161.802 109.579 165.023 114.947 165.023 114.947L170.998 131.287C170.772 134.981 172.893 153.232 172.893 153.232L175.04 152.25L178.502 141.514L175.888 130.568C175.888 130.568 170.166 124.255 171.121 120.551C172.077 116.847 176.962 117.932 176.962 117.932L186.737 129.613H189.609L196.405 138.202C198.235 143.731 199.168 149.518 199.17 155.342C199.171 159.168 198.767 162.983 197.962 166.723L196.405 173.98V220.86C196.405 220.86 201.054 228.376 201.054 229.084C201.043 229.229 202.015 231.913 203.325 235.488Z" fill="white"/>
<mask id="mask5_432_2582" style="mask-type:luminance" maskUnits="userSpaceOnUse" x="119" y="103" width="85" height="140">
<path d="M203.324 235.488C190.886 241.05 176.795 242.902 163.063 242.521C162.231 242.521 161.405 242.467 160.578 242.429L159.086 236.616C148.124 225.343 127.993 215.004 126.249 199.372C123.994 179.3 120.907 180.116 120.907 175.124C122.109 172.663 123.14 170.124 123.994 167.522C124.531 165.874 124.821 163.453 125.121 161.467C125.268 160.453 125.791 159.531 126.587 158.885C127.383 158.239 128.393 157.917 129.416 157.983C130.844 158.073 132.208 158.606 133.319 159.508C135.353 161.231 136.384 163.91 136.636 166.567C136.888 169.224 136.48 171.892 136.046 174.528C138.193 178.597 139.422 183.654 140.34 188.147C141.285 184.389 142.756 172.874 138.891 165.144C132.39 152.121 125.272 139.624 119.667 123.101C119.205 121.563 119.131 119.934 119.453 118.361C120.757 113.438 125.787 114.217 128.133 116.874C128.751 117.574 129.258 118.366 129.636 119.22C132.32 125.06 137.812 133.977 141.693 139.082L155.07 156.797L156.681 155.541C156.681 155.541 157.405 133.531 157.046 133.182C156.686 132.833 154.523 118.758 154.523 118.758C154.523 118.758 153.342 116.139 151.903 112.794C151.479 111.858 151.26 110.842 151.26 109.815C151.26 108.787 151.479 107.772 151.903 106.836C154.415 101.704 159.655 104.093 160.728 106.836C161.802 109.579 165.023 114.947 165.023 114.947L170.997 131.287C170.772 134.981 172.892 153.232 172.892 153.232L175.04 152.25L178.502 141.514L175.888 130.568C175.888 130.568 170.165 124.255 171.121 120.551C172.076 116.847 176.961 117.932 176.961 117.932L186.737 129.613H189.609L196.405 138.202C198.235 143.731 199.168 149.518 199.169 155.342C199.171 159.168 198.766 162.983 197.962 166.723L196.405 173.98V220.86C196.405 220.86 201.054 228.376 201.054 229.084C201.043 229.229 202.015 231.913 203.324 235.488Z" fill="white"/>
</mask>
<g mask="url(#mask5_432_2582)">
<path d="M122.163 172.735C122.104 172.971 122.061 173.272 122.249 173.422C122.539 173.658 122.926 173.288 123.14 172.982C123.871 171.976 124.901 171.226 126.083 170.84C127.264 170.453 128.538 170.449 129.722 170.829C130.613 170.829 130.914 169.45 130.328 168.779C129.743 168.108 128.756 167.984 127.859 167.984C126.963 167.984 126.012 168.027 125.256 167.555C124.814 167.256 124.474 166.83 124.282 166.333C124.091 165.836 124.055 165.292 124.182 164.774C123.591 167.453 122.851 170.094 122.163 172.735Z" fill="#92E3A9"/>
<g opacity="0.5">
<path d="M122.163 172.735C122.104 172.971 122.061 173.272 122.249 173.422C122.539 173.658 122.926 173.288 123.14 172.982C123.871 171.976 124.901 171.226 126.083 170.84C127.264 170.453 128.538 170.449 129.722 170.829C130.613 170.829 130.914 169.45 130.328 168.779C129.743 168.108 128.756 167.984 127.859 167.984C126.963 167.984 126.012 168.027 125.256 167.555C124.814 167.256 124.474 166.83 124.282 166.333C124.091 165.836 124.055 165.292 124.182 164.774C123.591 167.453 122.851 170.094 122.163 172.735Z" fill="white"/>
</g>
<path d="M134.177 191.684C134.312 191.443 134.424 191.196 134.537 190.943C134.418 191.025 134.323 191.137 134.26 191.266C134.197 191.396 134.168 191.54 134.177 191.684Z" fill="#92E3A9"/>
<path d="M137.452 174.587C137.237 171.87 137.624 169.138 137.511 166.411C137.398 163.684 136.684 160.823 134.698 158.949C131.853 156.265 124.064 157.64 126.678 162.707C127.052 163.408 127.669 163.948 128.414 164.226C129.158 164.504 129.978 164.5 130.72 164.216C131.076 164.048 131.394 163.811 131.656 163.519C131.918 163.227 132.119 162.885 132.247 162.514C132.375 162.143 132.428 161.749 132.402 161.358C132.375 160.966 132.271 160.583 132.095 160.232C133.629 162.66 134.387 165.498 134.269 168.367C134.15 171.236 133.159 174.002 131.429 176.294C135.466 179.794 136.749 186.064 134.537 190.906C134.804 190.724 135.121 190.626 135.444 190.626C135.768 190.626 136.084 190.724 136.351 190.906C137.124 191.486 137.382 192.516 137.758 193.397C138.134 194.277 138.864 195.217 139.83 195.152C141.156 191.904 140.716 188.211 139.857 184.808C138.998 181.404 137.731 178.103 137.452 174.587Z" fill="#92E3A9"/>
<path d="M160.089 128.63C160.116 128.812 160.132 128.995 160.154 129.167C160.193 128.986 160.171 128.796 160.089 128.63Z" fill="#92E3A9"/>
<path d="M154.673 152.54C150.808 144.944 146.937 137.342 142.686 129.956C140.2 125.661 137.57 121.367 134.258 117.647C132.787 115.999 128.568 112.182 126.243 114.694C124.692 116.369 126.732 119.424 124.821 121.238C125.261 121.238 127.413 121.029 127.644 121.308C132.512 127.365 135.128 134.924 135.047 142.694C136.604 141.47 138.73 143.167 139.948 144.729C147.426 154.331 154.413 164.305 160.884 174.613C159.633 170.056 159.601 165.224 158.248 160.699C157.305 157.877 156.109 155.146 154.673 152.54Z" fill="#92E3A9"/>
<g opacity="0.5">
<path d="M134.177 191.684C134.312 191.443 134.424 191.196 134.537 190.943C134.418 191.025 134.323 191.137 134.26 191.266C134.197 191.396 134.168 191.54 134.177 191.684Z" fill="white"/>
<path d="M137.452 174.587C137.237 171.87 137.624 169.138 137.511 166.411C137.398 163.684 136.684 160.823 134.698 158.949C131.853 156.265 124.064 157.64 126.678 162.707C127.052 163.408 127.669 163.948 128.414 164.226C129.158 164.504 129.978 164.5 130.72 164.216C131.076 164.048 131.394 163.811 131.656 163.519C131.918 163.227 132.119 162.885 132.247 162.514C132.375 162.143 132.428 161.749 132.402 161.358C132.375 160.966 132.271 160.583 132.095 160.232C133.629 162.66 134.387 165.498 134.269 168.367C134.15 171.236 133.159 174.002 131.429 176.294C135.466 179.794 136.749 186.064 134.537 190.906C134.804 190.724 135.121 190.626 135.444 190.626C135.768 190.626 136.084 190.724 136.351 190.906C137.124 191.486 137.382 192.516 137.758 193.397C138.134 194.277 138.864 195.217 139.83 195.152C141.156 191.904 140.716 188.211 139.857 184.808C138.998 181.404 137.731 178.103 137.452 174.587Z" fill="white"/>
<path d="M160.089 128.63C160.116 128.812 160.132 128.995 160.154 129.167C160.193 128.986 160.171 128.796 160.089 128.63Z" fill="white"/>
<path d="M154.673 152.54C150.808 144.944 146.937 137.342 142.686 129.956C140.2 125.661 137.57 121.367 134.258 117.647C132.787 115.999 128.568 112.182 126.243 114.694C124.692 116.369 126.732 119.424 124.821 121.238C125.261 121.238 127.413 121.029 127.644 121.308C132.512 127.365 135.128 134.924 135.047 142.694C136.604 141.47 138.73 143.167 139.948 144.729C147.426 154.331 154.413 164.305 160.884 174.613C159.633 170.056 159.601 165.224 158.248 160.699C157.305 157.877 156.109 155.146 154.673 152.54Z" fill="white"/>
</g>
<path d="M158.527 109.756C162.707 115.18 165.052 121.795 165.221 128.641C164.032 128.841 162.959 129.473 162.206 130.414C161.454 131.356 161.075 132.542 161.141 133.746C161.372 132.136 163.734 131.685 165.028 132.672C166.322 133.66 166.767 135.357 167.057 136.967C168.77 146.41 167.471 156.12 168.158 165.692C168.415 169.305 171.481 177.19 173.526 193.692C172.989 181.689 173.526 168.94 172.989 156.942C172.597 147.816 172.452 140.301 170.976 131.309C169.902 124.867 167.003 117.572 163.852 111.849C163.095 110.481 161.201 106.277 159.665 105.724C157.142 104.801 158.86 108.092 158.527 109.756Z" fill="#92E3A9"/>
<path opacity="0.5" d="M158.527 109.756C162.707 115.18 165.052 121.795 165.221 128.641C164.032 128.841 162.959 129.473 162.206 130.414C161.454 131.356 161.075 132.542 161.141 133.746C161.372 132.136 163.734 131.685 165.028 132.672C166.322 133.66 166.767 135.357 167.057 136.967C168.77 146.41 167.471 156.12 168.158 165.692C168.415 169.305 171.481 177.19 173.526 193.692C172.989 181.689 173.526 168.94 172.989 156.942C172.597 147.816 172.452 140.301 170.976 131.309C169.902 124.867 167.003 117.572 163.852 111.849C163.095 110.481 161.201 106.277 159.665 105.724C157.142 104.801 158.86 108.092 158.527 109.756Z" fill="white"/>
<path d="M172.157 121.775C172.113 121.113 172.313 120.458 172.719 119.933C173.126 119.408 173.71 119.051 174.362 118.927C175.013 118.804 175.688 118.923 176.258 119.263C176.828 119.602 177.254 120.139 177.455 120.771C177.16 120.768 176.868 120.824 176.594 120.935C176.321 121.047 176.073 121.211 175.864 121.42C175.655 121.628 175.49 121.876 175.378 122.149C175.266 122.422 175.209 122.714 175.211 123.009L177.997 121.936C178.379 124.69 180.209 126.998 182.024 129.102C183.838 131.207 183.983 132.624 184.649 135.319C185.314 138.013 186.001 142.147 183.349 142.984C184.525 142.748 185.658 143.773 185.985 144.933C186.313 146.092 186.06 147.316 185.819 148.492C184.005 157.296 182.958 166.24 182.689 175.225C185.089 170.743 188.122 163.641 189.324 158.702C192.25 146.726 191.08 144.858 189.217 137.047C188.034 132.006 185.674 127.317 182.329 123.364C180.912 121.694 178.781 119.069 176.714 118.253C174.648 117.437 171.658 119.246 172.157 121.775Z" fill="#92E3A9"/>
<path opacity="0.5" d="M172.157 121.775C172.113 121.113 172.313 120.458 172.719 119.933C173.126 119.408 173.71 119.051 174.362 118.927C175.013 118.804 175.688 118.923 176.258 119.263C176.828 119.602 177.254 120.139 177.455 120.771C177.16 120.768 176.868 120.824 176.594 120.935C176.321 121.047 176.073 121.211 175.864 121.42C175.655 121.628 175.49 121.876 175.378 122.149C175.266 122.422 175.209 122.714 175.211 123.009L177.997 121.936C178.379 124.69 180.209 126.998 182.024 129.102C183.838 131.207 183.983 132.624 184.649 135.319C185.314 138.013 186.001 142.147 183.349 142.984C184.525 142.748 185.658 143.773 185.985 144.933C186.313 146.092 186.06 147.316 185.819 148.492C184.005 157.296 182.958 166.24 182.689 175.225C183.763 173.244 184.938 170.748 186.034 168.15C187.365 165.088 188.465 161.929 189.324 158.702C192.25 146.726 191.08 144.858 189.217 137.047C188.034 132.006 185.674 127.317 182.329 123.364C180.912 121.694 178.781 119.069 176.714 118.253C174.648 117.437 171.658 119.246 172.157 121.775Z" fill="white"/>
<path d="M190.452 140.768C191.241 139.737 192.062 138.669 193.232 138.083C194.402 137.498 195.991 137.584 196.791 138.62C194.894 136.528 193.231 134.234 191.831 131.781C191.337 130.917 190.843 129.999 190.011 129.457C189.313 129.001 187.923 128.834 187.408 129.661C186.892 130.488 187.623 131.744 187.843 132.447L190.452 140.768Z" fill="#92E3A9"/>
<path opacity="0.5" d="M190.452 140.768C191.241 139.737 192.062 138.669 193.232 138.083C194.402 137.498 195.991 137.584 196.791 138.62C194.894 136.528 193.231 134.234 191.831 131.781C191.337 130.917 190.843 129.999 190.011 129.457C189.313 129.001 187.923 128.834 187.408 129.661C186.892 130.488 187.623 131.744 187.843 132.447L190.452 140.768Z" fill="white"/>
<path d="M189.577 154.354C189.04 156.872 188.159 159.346 188.106 161.923C188.082 163.521 188.376 165.108 188.971 166.591C189.565 168.075 190.448 169.426 191.568 170.566C191.25 167.049 191.43 163.505 192.105 160.039C192.33 158.885 192.373 154.864 193.275 154.134C194.177 153.404 195.809 153.431 196.297 154.499C196.257 154.112 196.128 153.74 195.919 153.411C195.711 153.083 195.429 152.807 195.096 152.606C194.763 152.405 194.388 152.283 194.001 152.251C193.613 152.219 193.223 152.277 192.862 152.421C194.011 151.885 192.406 145.98 192.132 144.836C191.756 143.263 190.092 135.678 188.336 135.265C186.581 134.852 188.17 137.707 188.369 138.25C189 139.959 189.471 141.724 189.775 143.521C190.39 147.112 190.323 150.788 189.577 154.354Z" fill="#92E3A9"/>
<path opacity="0.5" d="M189.577 154.354C189.04 156.872 188.159 159.346 188.106 161.923C188.082 163.521 188.376 165.108 188.971 166.591C189.565 168.075 190.448 169.426 191.568 170.566C191.25 167.049 191.43 163.505 192.105 160.039C192.33 158.885 192.373 154.864 193.275 154.134C194.177 153.404 195.809 153.431 196.297 154.499C196.257 154.112 196.128 153.74 195.919 153.411C195.711 153.083 195.429 152.807 195.096 152.606C194.763 152.405 194.388 152.283 194.001 152.251C193.613 152.219 193.223 152.277 192.862 152.421C194.011 151.885 192.406 145.98 192.132 144.836C191.756 143.263 190.092 135.678 188.336 135.265C186.581 134.852 188.17 137.707 188.369 138.25C189 139.959 189.471 141.724 189.775 143.521C190.39 147.112 190.323 150.788 189.577 154.354Z" fill="white"/>
<path d="M180.923 176.879L181.293 195.587C182.956 193.904 184.217 191.867 184.981 189.628C185.099 189.274 185.341 188.974 185.662 188.783C185.983 188.592 186.362 188.522 186.73 188.587C187.097 188.652 187.429 188.848 187.665 189.137C187.901 189.427 188.025 189.792 188.014 190.165C188.014 190.433 188.014 190.702 187.971 190.965L186.409 217.403L192.368 194.9C193.442 201.524 190.575 220.189 188.557 226.572C193.495 227.388 195.288 233.55 195.433 238.548C195.578 243.546 195.524 249.434 199.55 252.414C203.432 250.701 202.927 251.839 204.919 251.877C207.356 251.877 209.471 250.53 211.307 248.313C212.09 247.278 212.561 246.041 212.665 244.748C212.74 241.763 211.146 239.273 209.814 236.744C199.996 218.149 203.421 194.706 193.753 176.084C193.737 176.056 193.713 176.033 193.683 176.019C193.654 176.006 193.621 176.001 193.589 176.007C193.557 176.013 193.527 176.029 193.505 176.052C193.482 176.076 193.468 176.106 193.463 176.138C193.012 179.896 191.547 178.983 189.238 175.966C189.238 175.966 185.824 178.269 185.808 178.248C184.165 176.025 183.859 173.121 183.607 170.373C181.385 174.152 180.923 176.879 180.923 176.879Z" fill="#92E3A9"/>
<g opacity="0.5">
<path d="M180.923 176.879L181.293 195.587C182.956 193.904 184.217 191.867 184.981 189.628C185.099 189.274 185.341 188.974 185.662 188.783C185.983 188.592 186.362 188.522 186.73 188.587C187.097 188.652 187.429 188.848 187.665 189.137C187.901 189.427 188.025 189.792 188.014 190.165C188.014 190.433 188.014 190.702 187.971 190.965L186.409 217.403L192.368 194.9C193.442 201.524 190.575 220.189 188.557 226.572C193.495 227.388 195.288 233.55 195.433 238.548C195.578 243.546 195.524 249.434 199.55 252.414C203.432 250.701 202.927 251.839 204.919 251.877C207.356 251.877 209.471 250.53 211.307 248.313C212.09 247.278 212.561 246.041 212.665 244.748C212.74 241.763 211.146 239.273 209.814 236.744C199.996 218.149 203.421 194.706 193.753 176.084C193.737 176.056 193.713 176.033 193.683 176.019C193.654 176.006 193.621 176.001 193.589 176.007C193.557 176.013 193.527 176.029 193.505 176.052C193.482 176.076 193.468 176.106 193.463 176.138C193.012 179.896 191.547 178.983 189.238 175.966C189.238 175.966 185.824 178.269 185.808 178.248C184.165 176.025 183.859 173.121 183.607 170.373C181.385 174.152 180.923 176.879 180.923 176.879Z" fill="white"/>
</g>
<path d="M162.049 248.178C162.494 244.899 163.187 238.371 162.022 235.295C161.104 233.041 159.548 231.104 157.545 229.723C154.552 227.601 150.977 226.456 147.308 226.443C147.421 228.306 149.455 228.397 150.781 229.127C152.724 230.201 154.496 231.924 155.983 233.545C158.135 235.869 162.521 244.7 162.049 248.178Z" fill="#92E3A9"/>
<path opacity="0.5" d="M162.049 248.178C162.494 244.899 163.235 238.355 162.022 235.295C161.11 233.038 159.553 231.1 157.545 229.723C154.542 227.621 150.973 226.478 147.308 226.443C147.421 228.306 149.455 228.397 150.781 229.127C152.724 230.201 154.496 231.924 155.983 233.545C158.135 235.869 162.521 244.7 162.049 248.178Z" fill="white"/>
</g>
<path d="M160.573 242.429L159.08 236.616C148.118 225.343 127.988 215.004 126.243 199.372C123.989 179.3 120.902 180.116 120.902 175.124C122.103 172.663 123.135 170.124 123.989 167.522C124.526 165.874 124.815 163.453 125.116 161.467C125.262 160.453 125.786 159.531 126.582 158.885C127.378 158.239 128.388 157.917 129.411 157.983C130.838 158.073 132.203 158.606 133.313 159.508C135.348 161.231 136.378 163.91 136.631 166.567C136.883 169.224 136.475 171.892 136.04 174.528C138.187 178.597 139.417 183.654 140.335 188.147C141.279 184.389 142.75 172.874 138.885 165.144C132.384 152.121 125.266 139.624 119.662 123.101C119.2 121.563 119.126 119.934 119.447 118.361C120.752 113.438 125.782 114.217 128.128 116.874C128.746 117.574 129.253 118.366 129.631 119.22C132.315 125.06 137.806 133.977 141.687 139.082L155.065 156.797L156.675 155.541C156.675 155.541 157.4 133.531 157.04 133.182C156.681 132.834 154.523 118.758 154.523 118.758C154.523 118.758 153.342 116.139 151.903 112.794C151.479 111.858 151.26 110.842 151.26 109.815C151.26 108.787 151.479 107.772 151.903 106.836C154.415 101.704 159.655 104.093 160.728 106.836C161.802 109.579 165.023 114.947 165.023 114.947L170.997 131.287C170.772 134.981 172.892 153.232 172.892 153.232L175.04 152.25L178.502 141.514L175.888 130.568C175.888 130.568 170.165 124.255 171.121 120.551C172.076 116.847 176.961 117.932 176.961 117.932L186.737 129.613H189.609L196.405 138.202C198.235 143.731 199.168 149.518 199.169 155.342C199.171 159.168 198.766 162.983 197.962 166.723L196.405 173.98V220.86C196.405 220.86 201.054 228.376 201.054 229.084C201.054 229.229 202.025 231.913 203.335 235.488" stroke="#263238" stroke-miterlimit="10"/>
<path d="M134.081 143.452C134.95 142.5 136.032 141.768 137.238 141.313C138.444 140.859 139.741 140.696 141.022 140.837" stroke="#263238" stroke-miterlimit="10"/>
<path d="M129.625 121.039C128.646 120.875 127.644 120.907 126.677 121.134C125.71 121.36 124.798 121.777 123.994 122.36C123.994 122.36 121.176 119.547 121.777 117.25" stroke="#263238" stroke-miterlimit="10"/>
<path d="M191.284 170.77C189.727 168.37 188.224 165.074 188.637 162.251C189.453 156.711 191.976 150.339 190.843 144.858C190.128 141.358 189.401 137.858 188.664 134.358" stroke="#263238" stroke-miterlimit="10"/>
<path d="M161.12 111.409C160.576 111.8 159.934 112.031 159.266 112.077C158.598 112.123 157.931 111.982 157.339 111.669C156.747 111.356 156.254 110.884 155.916 110.306C155.578 109.728 155.407 109.067 155.424 108.397" stroke="#263238" stroke-miterlimit="10"/>
<path d="M156.965 145.545C156.836 147.435 157.089 156.324 156.965 158.214" stroke="#263238" stroke-miterlimit="10"/>
<path d="M168.104 161.768C170.563 164.452 170.203 170.931 168.469 174.49" stroke="#263238" stroke-miterlimit="10"/>
<path d="M149.112 169.289C150.436 171.871 152.436 174.045 154.898 175.58" stroke="#263238" stroke-miterlimit="10"/>
<path d="M183.87 165.74C184.272 168.479 183.674 171.271 182.185 173.605" stroke="#263238" stroke-miterlimit="10"/>
<path d="M194.333 174.163C194.446 176.309 193.833 178.43 192.593 180.186" stroke="#263238" stroke-miterlimit="10"/>
<path d="M179.989 122.161C179.343 121.864 178.623 121.764 177.921 121.876C177.218 121.988 176.565 122.306 176.043 122.79L174.653 120.954" stroke="#263238" stroke-miterlimit="10"/>
<path d="M168.415 130.439C167.464 129.878 166.344 129.671 165.256 129.857C164.167 130.043 163.179 130.609 162.467 131.454" stroke="#263238" stroke-miterlimit="10"/>
<path d="M190.564 145.545C189.963 144.544 189.087 143.735 188.041 143.216C186.994 142.696 185.821 142.488 184.659 142.614" stroke="#263238" stroke-miterlimit="10"/>
<path d="M198.128 156.335C198.088 155.604 197.8 154.909 197.313 154.363C196.825 153.818 196.166 153.455 195.444 153.334" stroke="#263238" stroke-miterlimit="10"/>
<path d="M140.265 189.048L137.855 190.122" stroke="#263238" stroke-miterlimit="10"/>
<path d="M140.888 190.986C140.492 192.851 140.483 194.776 140.861 196.644" stroke="#263238" stroke-miterlimit="10"/>
<path d="M125.057 172.268C123.757 173.297 122.647 174.545 121.777 175.955" stroke="#263238" stroke-miterlimit="10"/>
<path d="M125.647 164.924C127.414 163.663 130.232 166.492 131.858 165.048C132.503 164.473 132.556 163.475 132.395 162.627C132.234 161.778 131.944 160.919 132.068 160.061" stroke="#263238" stroke-miterlimit="10"/>
<path d="M163.24 191.459C163.289 192.361 163.321 193.263 163.326 194.143" stroke="#263238" stroke-miterlimit="10"/>
<path d="M160.707 176.031C161.786 179.929 162.533 183.913 162.94 187.937" stroke="#263238" stroke-miterlimit="10"/>
<path d="M157.599 168.322C158.506 170.351 159.311 172.407 160.036 174.49" stroke="#263238" stroke-miterlimit="10"/>
</svg>
