<svg width="297" height="83" viewBox="0 0 297 83" fill="none" xmlns="http://www.w3.org/2000/svg">
<path d="M89.3234 22.3704C87.8469 22.6548 86.4906 23.9016 86.0312 25.3891C85.0906 28.4407 87.4969 31.4485 90.6578 31.186C93.1734 30.9673 95.1203 28.5063 94.6828 26.0673C94.2344 23.486 91.8828 21.8673 89.3234 22.3704Z" fill="#F0941F"/>
<path d="M62.8219 24.5906C62.3516 24.9406 62.4062 25.7172 62.9094 25.9578C63.1062 26.0453 65.6328 26.0781 71.9656 26.0781C80.6937 26.0781 80.7484 26.0781 81.0437 25.8484C81.4156 25.5531 81.4375 25.0063 81.0766 24.6781L80.825 24.4375H71.9109C64.7469 24.4484 62.975 24.4703 62.8219 24.5906Z" fill="#F0941F"/>
<path d="M77.8391 29.086C75.575 29.6001 73.6828 30.661 71.9766 32.3891C69.7344 34.6422 69.4172 35.7797 70.7078 36.9391C71.4078 37.5735 72.4469 37.7376 73.3109 37.3547C73.6172 37.2126 74.0219 36.8297 74.5687 36.1954C76.3953 34.0188 78.3203 33.1657 80.5953 33.5047C81.0984 33.5813 81.5687 33.6797 81.6562 33.7344C81.7656 33.8001 81.525 34.336 80.5953 36.0532C79.9281 37.2672 78.9547 39.1376 78.4297 40.1876C76.8328 43.3922 76.1875 44.3657 74.9406 45.5032C73.2453 47.0563 71.2109 47.7672 69.4609 47.4063C69.1 47.3407 68.3891 47.0782 67.8859 46.8485C66.8031 46.3454 66.3328 46.2469 65.7312 46.411C64.6484 46.7063 63.9047 47.6251 63.8937 48.6969C63.8937 49.8126 64.3641 50.3704 65.9609 51.136C67.6562 51.9344 68.6844 52.1641 70.6641 52.1532C71.9656 52.1532 72.5016 52.0985 73.2344 51.9235C75.3562 51.3876 77.0187 50.4688 78.6156 48.9485L79.6875 47.9313L80.3109 48.1719C82.3781 48.9922 85.8563 51.1469 87.0156 52.3172C87.7156 53.0172 88.2625 54.0126 89.8156 57.3594C90.3953 58.5954 90.9859 59.7657 91.1391 59.9735C91.675 60.6735 92.6375 60.9141 93.5891 60.586C94.5406 60.2469 95.1094 59.5141 95.1094 58.5954C95.1094 58.0813 94.9891 57.7313 94.1687 55.9594C92.375 52.0766 91.4672 50.4141 90.6359 49.4626C89.9578 48.6969 87.2234 46.6954 85.2984 45.5579C84.8609 45.2954 84.5 45.0547 84.5 45.0329C84.5 44.9344 86.425 41.336 87.6391 39.1704C88.6562 37.3547 88.8203 37.1141 89.0281 37.1688C90.7562 37.6391 93.3812 37.6719 94.8469 37.2454C95.9625 36.9282 97.1656 36.3485 98.1391 35.6813C99.6703 34.6313 101.628 32.4657 101.902 31.536C102.241 30.4204 101.409 29.3047 100.02 29.0204C98.8828 28.7797 98.4344 29.0422 96.925 30.8251C96.1594 31.7219 95.0328 32.4766 93.9391 32.8266C93.1297 33.0782 92.9 33.1001 91.9047 33.0563C90.4281 32.9797 89.5969 32.6735 86.9828 31.2297C83.7453 29.4469 82.5203 29.0422 80.0703 28.9657C78.9766 28.9329 78.3422 28.9657 77.8391 29.086Z" fill="#F0941F"/>
<path d="M47.575 32.5313C47.2906 32.6406 46.9844 33.0563 46.9844 33.3078C46.9844 33.4063 47.0828 33.6141 47.2141 33.7781L47.4328 34.0625H56.4453H65.4578L65.6875 33.8219C66.0922 33.3844 65.9281 32.75 65.3484 32.5422C64.9219 32.4 47.9359 32.3891 47.575 32.5313Z" fill="#F0941F"/>
<path d="M52.9453 41.85C52.4203 42.1562 52.3219 42.6156 52.6828 43.075L52.9016 43.3594H61.9141H70.9266L71.1453 43.075C71.5172 42.6047 71.4297 42.1344 70.9266 41.8828C70.6641 41.7406 69.3406 41.7188 61.8922 41.7188C55.5375 41.7297 53.1094 41.7625 52.9453 41.85Z" fill="#F0941F"/>
<path d="M46.4703 52.2187C45.9562 52.4266 45.8578 53.0719 46.2734 53.4766L46.5359 53.75H54.5859H62.6359L62.8984 53.4766C63.2266 53.1594 63.2484 52.7766 62.9641 52.4266L62.7563 52.1641L54.7281 52.1422C50.2437 52.1312 46.6016 52.1641 46.4703 52.2187Z" fill="#F0941F"/>
<path d="M112.34 52.5V31.7H125.78V36.308H117.844V39.572H124.628V44.18H117.844V47.892H126.1V52.5H112.34ZM129.34 52.5V36.5H133.82L134.204 39.252H134.332C134.93 38.164 135.634 37.3747 136.444 36.884C137.276 36.372 138.087 36.116 138.876 36.116C139.367 36.116 139.762 36.148 140.06 36.212C140.38 36.2547 140.647 36.3293 140.86 36.436L139.964 41.172C139.687 41.108 139.41 41.0547 139.132 41.012C138.855 40.948 138.535 40.916 138.172 40.916C137.596 40.916 136.988 41.1187 136.348 41.524C135.73 41.908 135.228 42.6013 134.844 43.604V52.5H129.34ZM142.382 52.5V36.5H146.862L147.246 39.252H147.374C147.971 38.164 148.675 37.3747 149.486 36.884C150.318 36.372 151.129 36.116 151.918 36.116C152.409 36.116 152.803 36.148 153.102 36.212C153.422 36.2547 153.689 36.3293 153.902 36.436L153.006 41.172C152.729 41.108 152.451 41.0547 152.174 41.012C151.897 40.948 151.577 40.916 151.214 40.916C150.638 40.916 150.03 41.1187 149.39 41.524C148.771 41.908 148.27 42.6013 147.886 43.604V52.5H142.382ZM158.615 52.884C157.612 52.884 156.748 52.66 156.023 52.212C155.319 51.7427 154.775 51.1347 154.391 50.388C154.007 49.6413 153.815 48.8307 153.815 47.956C153.815 46.292 154.498 44.9907 155.863 44.052C157.228 43.092 159.447 42.452 162.519 42.132C162.391 41.0227 161.644 40.468 160.279 40.468C159.703 40.468 159.095 40.5853 158.455 40.82C157.815 41.0333 157.079 41.364 156.247 41.812L154.327 38.228C155.458 37.5453 156.599 37.0227 157.751 36.66C158.924 36.2973 160.13 36.116 161.367 36.116C163.458 36.116 165.09 36.7133 166.263 37.908C167.436 39.0813 168.023 40.98 168.023 43.604V52.5H163.543L163.159 50.964H163.031C162.391 51.54 161.708 52.0093 160.983 52.372C160.279 52.7133 159.49 52.884 158.615 52.884ZM160.535 48.66C160.983 48.66 161.356 48.564 161.655 48.372C161.954 48.1587 162.242 47.892 162.519 47.572V45.396C161.218 45.588 160.311 45.876 159.799 46.26C159.308 46.644 159.063 47.06 159.063 47.508C159.063 48.276 159.554 48.66 160.535 48.66ZM171.278 52.5V36.5H175.758L176.142 38.42H176.27C176.91 37.8013 177.635 37.268 178.446 36.82C179.278 36.3507 180.238 36.116 181.326 36.116C183.097 36.116 184.366 36.7133 185.134 37.908C185.923 39.0813 186.318 40.66 186.318 42.644V52.5H180.814V43.348C180.814 42.324 180.686 41.6413 180.43 41.3C180.174 40.9587 179.769 40.788 179.214 40.788C178.702 40.788 178.275 40.8947 177.934 41.108C177.593 41.3213 177.209 41.62 176.782 42.004V52.5H171.278ZM195.394 52.884C193.41 52.884 191.82 52.1373 190.626 50.644C189.452 49.1293 188.866 47.0813 188.866 44.5C188.866 42.7507 189.175 41.2573 189.794 40.02C190.434 38.7613 191.255 37.8013 192.258 37.14C193.26 36.4573 194.306 36.116 195.394 36.116C196.268 36.116 196.983 36.2653 197.538 36.564C198.114 36.8413 198.636 37.2253 199.106 37.716L198.914 35.412V30.228H204.418V52.5H199.938L199.554 51.028H199.426C198.892 51.5613 198.263 52.0093 197.538 52.372C196.812 52.7133 196.098 52.884 195.394 52.884ZM196.866 48.404C197.292 48.404 197.666 48.3293 197.986 48.18C198.327 48.0093 198.636 47.7 198.914 47.252V41.364C198.594 41.0653 198.242 40.8627 197.858 40.756C197.474 40.6493 197.1 40.596 196.738 40.596C196.162 40.596 195.639 40.884 195.17 41.46C194.722 42.036 194.498 43.028 194.498 44.436C194.498 45.8653 194.711 46.8893 195.138 47.508C195.564 48.1053 196.14 48.404 196.866 48.404ZM216.695 52.884C215.223 52.884 213.879 52.18 212.663 50.772H212.535L212.087 52.5H207.799V30.228H213.303V35.412L213.175 37.716C214.348 36.6493 215.66 36.116 217.111 36.116C218.369 36.116 219.468 36.4573 220.407 37.14C221.345 37.8013 222.071 38.74 222.583 39.956C223.095 41.1507 223.351 42.5693 223.351 44.212C223.351 46.0467 223.031 47.6147 222.391 48.916C221.751 50.2173 220.919 51.2093 219.895 51.892C218.892 52.5533 217.825 52.884 216.695 52.884ZM215.351 48.404C215.991 48.404 216.545 48.1053 217.015 47.508C217.484 46.9107 217.719 45.844 217.719 44.308C217.719 42.9853 217.527 42.036 217.143 41.46C216.78 40.884 216.225 40.596 215.479 40.596C215.073 40.596 214.7 40.6813 214.359 40.852C214.017 41.0227 213.665 41.3213 213.303 41.748V47.636C213.623 47.9133 213.953 48.116 214.295 48.244C214.657 48.3507 215.009 48.404 215.351 48.404ZM233.132 52.884C231.767 52.884 230.476 52.5533 229.26 51.892C228.065 51.2307 227.084 50.2813 226.316 49.044C225.569 47.7853 225.196 46.2707 225.196 44.5C225.196 42.7293 225.569 41.2253 226.316 39.988C227.084 38.7293 228.065 37.7693 229.26 37.108C230.476 36.4467 231.767 36.116 233.132 36.116C234.497 36.116 235.777 36.4467 236.972 37.108C238.188 37.7693 239.169 38.7293 239.916 39.988C240.684 41.2253 241.068 42.7293 241.068 44.5C241.068 46.2707 240.684 47.7853 239.916 49.044C239.169 50.2813 238.188 51.2307 236.972 51.892C235.777 52.5533 234.497 52.884 233.132 52.884ZM233.132 48.468C233.964 48.468 234.551 48.116 234.892 47.412C235.255 46.6867 235.436 45.716 235.436 44.5C235.436 43.284 235.255 42.324 234.892 41.62C234.551 40.8947 233.964 40.532 233.132 40.532C232.3 40.532 231.703 40.8947 231.34 41.62C230.999 42.324 230.828 43.284 230.828 44.5C230.828 45.716 230.999 46.6867 231.34 47.412C231.703 48.116 232.3 48.468 233.132 48.468ZM243.601 52.5V36.5H249.105V52.5H243.601ZM246.353 34.516C245.457 34.516 244.731 34.2707 244.177 33.78C243.622 33.268 243.345 32.596 243.345 31.764C243.345 30.932 243.622 30.2707 244.177 29.78C244.731 29.268 245.457 29.012 246.353 29.012C247.249 29.012 247.974 29.268 248.529 29.78C249.083 30.2707 249.361 30.932 249.361 31.764C249.361 32.596 249.083 33.268 248.529 33.78C247.974 34.2707 247.249 34.516 246.353 34.516Z" fill="#F0941F"/>
</svg>
