<svg width="48" height="33" viewBox="0 0 48 33" fill="none" xmlns="http://www.w3.org/2000/svg">
<path d="M37.122 0.0784578C35.8563 0.322208 34.6938 1.39096 34.3001 2.66596C33.4938 5.28158 35.5563 7.85971 38.2657 7.63471C40.422 7.44721 42.0907 5.33783 41.7157 3.24721C41.3313 1.03471 39.3157 -0.352793 37.122 0.0784578Z" fill="#F0941F"/>
<path d="M14.4063 1.98159C14.0032 2.28159 14.0501 2.94722 14.4813 3.15347C14.6501 3.22847 16.8157 3.25659 22.2438 3.25659C29.7251 3.25659 29.772 3.25659 30.0251 3.05972C30.3438 2.80659 30.3626 2.33784 30.0532 2.05659L29.8376 1.85034H22.197C16.0563 1.85972 14.5376 1.87847 14.4063 1.98159Z" fill="#F0941F"/>
<path d="M27.2782 5.83469C25.3376 6.27532 23.7157 7.18469 22.2532 8.66594C20.3313 10.5972 20.0594 11.5722 21.1657 12.5659C21.7657 13.1097 22.6563 13.2503 23.3969 12.9222C23.6594 12.8003 24.0063 12.4722 24.4751 11.9284C26.0407 10.0628 27.6907 9.33157 29.6407 9.62219C30.0719 9.68782 30.4751 9.77219 30.5501 9.81907C30.6438 9.87532 30.4376 10.3347 29.6407 11.8066C29.0688 12.8472 28.2344 14.4503 27.7844 15.3503C26.4157 18.0972 25.8626 18.9316 24.7938 19.9066C23.3407 21.2378 21.5969 21.8472 20.0969 21.5378C19.7876 21.4816 19.1782 21.2566 18.7469 21.0597C17.8188 20.6284 17.4157 20.5441 16.9001 20.6847C15.9719 20.9378 15.3344 21.7253 15.3251 22.6441C15.3251 23.6003 15.7282 24.0784 17.0969 24.7347C18.5501 25.4191 19.4313 25.6159 21.1282 25.6066C22.2438 25.6066 22.7032 25.5597 23.3313 25.4097C25.1501 24.9503 26.5751 24.1628 27.9438 22.8597L28.8626 21.9878L29.3969 22.1941C31.1688 22.8972 34.1501 24.7441 35.1438 25.7472C35.7438 26.3472 36.2126 27.2003 37.5438 30.0691C38.0407 31.1284 38.5469 32.1316 38.6782 32.3097C39.1376 32.9097 39.9626 33.1159 40.7782 32.8347C41.5938 32.5441 42.0813 31.9159 42.0813 31.1284C42.0813 30.6878 41.9782 30.3878 41.2751 28.8691C39.7376 25.5409 38.9594 24.1159 38.2469 23.3003C37.6657 22.6441 35.3219 20.9284 33.6719 19.9534C33.2969 19.7284 32.9876 19.5222 32.9876 19.5034C32.9876 19.4191 34.6376 16.3347 35.6782 14.4784C36.5501 12.9222 36.6907 12.7159 36.8688 12.7628C38.3501 13.1659 40.6001 13.1941 41.8563 12.8284C42.8126 12.5566 43.8438 12.0597 44.6782 11.4878C45.9907 10.5878 47.6688 8.73157 47.9032 7.93469C48.1938 6.97845 47.4813 6.0222 46.2907 5.77844C45.3157 5.5722 44.9313 5.7972 43.6376 7.32532C42.9813 8.09407 42.0157 8.74094 41.0782 9.04094C40.3844 9.25657 40.1876 9.27532 39.3344 9.23782C38.0688 9.17219 37.3563 8.90969 35.1157 7.6722C32.3407 6.14407 31.2907 5.7972 29.1907 5.73157C28.2532 5.70345 27.7094 5.73157 27.2782 5.83469Z" fill="#F0941F"/>
<path d="M1.33755 8.78784C1.0938 8.88159 0.831299 9.23784 0.831299 9.45347C0.831299 9.53784 0.915674 9.71597 1.02817 9.85659L1.21567 10.1003H8.94067H16.6657L16.8625 9.89409C17.2094 9.51909 17.0688 8.97534 16.5719 8.79722C16.2063 8.67534 1.64692 8.66597 1.33755 8.78784Z" fill="#F0941F"/>
<path d="M5.94067 16.7753C5.49067 17.0378 5.40629 17.4316 5.71567 17.8253L5.90317 18.0691H13.6282H21.3532L21.5407 17.8253C21.8594 17.4222 21.7844 17.0191 21.3532 16.8035C21.1282 16.6816 19.9938 16.6628 13.6094 16.6628C8.16254 16.6722 6.08129 16.7003 5.94067 16.7753Z" fill="#F0941F"/>
<path d="M0.390699 25.6628C-0.0499257 25.841 -0.134301 26.3941 0.221949 26.741L0.446949 26.9753H7.34695H14.2469L14.4719 26.741C14.7532 26.4691 14.7719 26.141 14.5282 25.841L14.3501 25.616L7.46882 25.5972C3.62507 25.5878 0.503199 25.616 0.390699 25.6628Z" fill="#F0941F"/>
</svg>
