<svg width="375" height="298" viewBox="0 0 375 298" fill="none" xmlns="http://www.w3.org/2000/svg">
<path d="M-24 0H401V298H-24V0Z" fill="white"/>
<path d="M45.0055 164.679H49.3584L56.3989 103.325H52.0461L45.0055 164.679Z" fill="#FF6E00"/>
<path d="M51.544 107.698L55.3962 112.055L55.6436 109.901L51.7905 105.543L51.544 107.698Z" fill="white"/>
<path d="M50.9211 113.124L54.7741 117.481L55.0215 115.327L51.1684 110.97L50.9211 113.124Z" fill="white"/>
<path d="M50.2989 118.55L54.1511 122.908L54.3984 120.753L50.5454 116.396L50.2989 118.55Z" fill="white"/>
<path d="M49.676 123.976L53.529 128.334L53.7764 126.18L49.9233 121.822L49.676 123.976Z" fill="white"/>
<path d="M49.0538 129.402L52.906 133.759L53.1533 131.606L49.3003 127.248L49.0538 129.402Z" fill="white"/>
<path d="M48.4304 134.828L52.2834 139.185L52.5308 137.032L48.6777 132.674L48.4304 134.828Z" fill="white"/>
<path d="M47.8073 140.254L51.6604 144.611L51.9077 142.458L48.0547 138.1L47.8073 140.254Z" fill="white"/>
<path d="M47.1851 145.68L51.0382 150.037L51.2847 147.884L47.4324 143.527L47.1851 145.68Z" fill="white"/>
<path d="M46.5622 151.106L50.4153 155.464L50.6626 153.309L46.8096 148.953L46.5622 151.106Z" fill="white"/>
<path d="M45.94 156.532L49.793 160.89L50.0396 158.736L46.1873 154.379L45.94 156.532Z" fill="white"/>
<path d="M23.2413 164.679L30.434 227.855C30.8343 231.343 33.7821 233.976 37.2875 233.976H60.7697C64.2751 233.976 67.2228 231.343 67.6232 227.855L74.8584 164.679H23.2413Z" fill="#A9D8D5"/>
<path d="M45.3166 161.958L47.7229 164.679H49.3575L49.417 164.161L45.5639 159.805L45.3166 161.958Z" fill="white"/>
<path d="M22.0142 154.481L30.4339 227.855C30.8342 231.343 33.7822 233.976 37.2874 233.976H60.7702C64.2754 233.976 67.2234 231.343 67.6237 227.855L76.0435 154.481H22.0142Z" stroke="#A9D8D5" stroke-width="5" stroke-miterlimit="10"/>
<path d="M55.1641 192.734L32.7448 176.622C29.8697 182.904 31.513 190.36 37.0393 194.332C42.5657 198.303 50.1448 197.474 55.1641 192.734Z" fill="#F1B104"/>
<path d="M40.8803 194.286L42.8755 186.152L35.8295 190.644C36.4722 191.46 37.2361 192.197 38.1157 192.829C38.9851 193.454 39.9153 193.938 40.8803 194.286Z" fill="#F0941F"/>
<path d="M42.0117 185.009L33.3139 183.075C33.2861 185.276 33.8329 187.436 34.9226 189.31L42.0117 185.009Z" fill="#F0941F"/>
<path d="M48.8574 194.268L44.2174 186.594L42.4164 194.721C44.5453 195.167 46.7745 194.999 48.8574 194.268Z" fill="#F0941F"/>
<path d="M50.7346 193.432C51.6915 192.91 52.5963 192.256 53.4194 191.479L45.6666 185.908L50.7346 193.432Z" fill="#F0941F"/>
<path d="M42.3228 183.505L34.4899 177.876C34.0136 178.915 33.6838 179.995 33.4982 181.082L42.3228 183.505Z" fill="#F0941F"/>
<path d="M23.3207 150.287H74.7373C77.0495 150.287 78.9238 152.165 78.9238 154.481H19.1342C19.1342 152.165 21.0085 150.287 23.3207 150.287Z" stroke="#573240" stroke-width="5" stroke-miterlimit="10" stroke-linecap="round"/>
<path d="M23.1997 150.287C25.6895 139.657 35.1563 132.142 46.0568 132.142H52.0009C62.9014 132.142 72.3682 139.657 74.8579 150.287L23.1997 150.287Z" stroke="#573240" stroke-width="5" stroke-miterlimit="10" stroke-linecap="round"/>
<path d="M41.2779 229.54H50.2344C51.3536 229.54 52.2607 228.631 52.2607 227.51V218.538C52.2607 217.417 51.3536 216.508 50.2344 216.508H41.2779C40.1587 216.508 39.2515 217.417 39.2515 218.538V227.51C39.2515 228.631 40.1587 229.54 41.2779 229.54Z" fill="#E0F1F0"/>
<path d="M34.0977 213.39H41.1459C42.2651 213.39 43.1724 212.481 43.1724 211.36V204.3C43.1724 203.179 42.2651 202.271 41.1459 202.271H34.0977C32.9785 202.271 32.0714 203.179 32.0714 204.3V211.36C32.0714 212.481 32.9786 213.39 34.0977 213.39Z" fill="#E0F1F0"/>
<path d="M58.0323 218.817H65.0805C66.1997 218.817 67.1069 217.908 67.1069 216.787V209.727C67.1069 208.606 66.1997 207.697 65.0805 207.697H58.0323C56.9131 207.697 56.0059 208.606 56.0059 209.727V216.787C56.006 217.908 56.9132 218.817 58.0323 218.817Z" fill="#E0F1F0"/>
<path d="M53.2797 185.985C52.6163 185.985 52.0785 185.446 52.0785 184.782C52.0785 184.117 52.6163 183.578 53.2797 183.578C53.9431 183.578 54.481 184.117 54.481 184.782C54.481 185.446 53.9431 185.985 53.2797 185.985Z" stroke="white" stroke-width="5" stroke-miterlimit="10"/>
<path d="M59.5986 203.591C58.9352 203.591 58.3974 203.052 58.3974 202.388C58.3974 201.723 58.9352 201.185 59.5986 201.185C60.262 201.185 60.7998 201.723 60.7998 202.388C60.7998 203.052 60.262 203.591 59.5986 203.591Z" stroke="white" stroke-width="5" stroke-miterlimit="10"/>
<path d="M62.4997 176.081C61.5608 176.081 60.7997 175.318 60.7997 174.378C60.7997 173.437 61.5608 172.675 62.4997 172.675C63.4386 172.675 64.1997 173.437 64.1997 174.378C64.1997 175.318 63.4386 176.081 62.4997 176.081Z" stroke="white" stroke-width="5" stroke-miterlimit="10"/>
<path d="M33.5832 193.625C32.6443 193.625 31.8832 192.862 31.8832 191.922C31.8832 190.981 32.6443 190.219 33.5832 190.219C34.5221 190.219 35.2832 190.981 35.2832 191.922C35.2832 192.862 34.5221 193.625 33.5832 193.625Z" stroke="white" stroke-width="5" stroke-miterlimit="10"/>
<path d="M47.3863 204.346C46.8464 204.346 46.4088 203.908 46.4088 203.367C46.4088 202.826 46.8464 202.388 47.3863 202.388C47.9261 202.388 48.3638 202.826 48.3638 203.367C48.3638 203.908 47.9261 204.346 47.3863 204.346Z" stroke="white" stroke-width="5" stroke-miterlimit="10"/>
<path d="M31.2238 195.988C30.8717 195.988 30.5863 195.702 30.5863 195.35C30.5863 194.997 30.8717 194.711 31.2238 194.711C31.5759 194.711 31.8613 194.997 31.8613 195.35C31.8613 195.702 31.5759 195.988 31.2238 195.988Z" stroke="white" stroke-width="5" stroke-miterlimit="10"/>
<path d="M37.7949 174.981C37.2081 174.981 36.7324 174.505 36.7324 173.917C36.7324 173.329 37.2081 172.853 37.7949 172.853C38.3817 172.853 38.8574 173.329 38.8574 173.917C38.8574 174.505 38.3817 174.981 37.7949 174.981Z" stroke="white" stroke-width="5" stroke-miterlimit="10"/>
<path d="M65.7116 178.561C65.3595 178.561 65.0741 178.275 65.0741 177.922C65.0741 177.57 65.3595 177.284 65.7116 177.284C66.0637 177.284 66.3491 177.57 66.3491 177.922C66.3491 178.275 66.0637 178.561 65.7116 178.561Z" stroke="white" stroke-width="5" stroke-miterlimit="10"/>
<path d="M65.0744 198.455C64.7223 198.455 64.4369 198.169 64.4369 197.816C64.4369 197.464 64.7223 197.178 65.0744 197.178C65.4265 197.178 65.7119 197.464 65.7119 197.816C65.7119 198.169 65.4265 198.455 65.0744 198.455Z" stroke="white" stroke-width="5" stroke-miterlimit="10"/>
<path d="M146.658 70.8502V85.8328H153.21V70.64H185.248V85.8328H191.8V70.8502L184.985 64.0236H153.473L146.658 70.8502Z" fill="#573240"/>
<path d="M149.293 85.8334V70.8499L156.108 64.0232H187.62L194.435 70.8499V85.8334H220.647L237.647 233.977H123.347V85.8334H149.293ZM155.845 85.8334H187.883V70.6396H155.845V85.8334Z" fill="#F0941F"/>
<path d="M102.863 233.976H123.348V85.8328H119.863L102.863 233.976Z" fill="#573240"/>
<path d="M153.007 134.843C153.007 146.014 159.894 155.49 169.438 158.813V140.65C169.438 139 168.624 137.452 167.252 136.409C165.812 135.313 164.858 133.403 164.858 131.229C164.858 127.827 167.194 125.072 170.074 125.072C172.955 125.072 175.291 127.827 175.291 131.229C175.291 133.403 174.337 135.313 172.896 136.409C171.525 137.452 170.711 139 170.711 140.65V159.216C172.704 159.782 174.798 160.083 176.959 160.083C179.106 160.083 181.186 159.786 183.165 159.227V143.062C183.165 141.412 182.351 139.864 180.98 138.821C180.179 138.212 179.528 137.35 179.108 136.332C178.773 135.519 178.586 134.607 178.586 133.642V125.709C178.586 125.357 178.87 125.072 179.222 125.072H179.223C179.574 125.072 179.86 125.357 179.86 125.709V134.31C179.86 134.767 180.044 135.181 180.343 135.48C180.643 135.78 181.056 135.966 181.512 135.966C182.425 135.966 183.165 135.224 183.165 134.31V125.709C183.165 125.533 183.237 125.374 183.351 125.258C183.467 125.143 183.626 125.072 183.802 125.072C184.154 125.072 184.439 125.357 184.439 125.709V134.31C184.439 135.224 185.178 135.966 186.091 135.966H186.092C187.005 135.966 187.745 135.224 187.745 134.31V125.709C187.745 125.533 187.817 125.374 187.931 125.258C188.047 125.143 188.206 125.072 188.382 125.072C188.734 125.072 189.018 125.357 189.018 125.709V133.642C189.018 134.607 188.831 135.519 188.496 136.332C188.076 137.35 187.426 138.212 186.625 138.821C185.253 139.864 184.439 141.412 184.439 143.062V158.828C194.005 155.518 200.912 146.03 200.912 134.843C200.912 120.904 190.188 109.603 176.959 109.603C163.731 109.603 153.007 120.904 153.007 134.843Z" fill="white"/>
<path d="M194.435 70.765H149.293" stroke="#573240" stroke-width="5" stroke-miterlimit="10" stroke-linecap="round"/>
<path d="M92.0224 208.24L101.252 189.672C103.409 185.333 107.832 182.589 112.671 182.589H172.655C177.495 182.589 181.918 185.333 184.075 189.672L193.304 208.24H92.0224Z" fill="#F0941F" stroke="#573240" stroke-width="5" stroke-miterlimit="10" stroke-linecap="round"/>
<path d="M109.628 214.072C114.408 219.183 120.585 221.166 125.101 216.928C129.617 212.69 128.045 206.386 123.265 201.275C118.484 196.164 110.723 193.994 106.958 197.528C103.192 201.062 104.848 208.961 109.628 214.072Z" fill="white"/>
<path d="M112.051 210.033C111.429 206.855 113.498 203.773 116.671 203.151C119.844 202.528 122.92 204.6 123.542 207.779C124.163 210.957 122.095 214.039 118.921 214.661C115.748 215.284 112.672 213.212 112.051 210.033Z" fill="#F1B104"/>
<path d="M56.1936 203.931C54.4954 209.345 55.5575 214.501 60.341 216.006C65.1244 217.512 68.9397 213.891 70.6378 208.477C72.3359 203.063 70.7751 196.713 66.7864 195.458C62.7978 194.203 57.8917 198.517 56.1936 203.931Z" fill="white"/>
<path d="M59.7265 210.992C57.8739 209.137 57.8739 206.128 59.7265 204.272C61.5792 202.416 64.5829 202.416 66.4355 204.272C68.2882 206.128 68.2882 209.137 66.4355 210.992C64.5829 212.848 61.5792 212.848 59.7265 210.992Z" fill="#F1B104"/>
<path d="M148.187 214.857L168.847 203.448C165.388 199.504 159.282 198.475 154.189 201.288C149.096 204.1 146.704 209.822 148.187 214.857Z" fill="#FF6E00"/>
<path d="M155.881 206.342C156.241 206.997 157.865 207.967 157.865 207.967C157.865 207.967 157.912 206.074 157.552 205.419C157.191 204.765 156.525 204.44 156.064 204.695C155.602 204.95 155.52 205.687 155.881 206.342Z" stroke="#573240" stroke-width="4" stroke-miterlimit="10" stroke-linecap="round" stroke-linejoin="round"/>
<path d="M153.783 209.68C154.524 209.775 156.263 209.034 156.263 209.034C156.263 209.034 154.765 207.879 154.025 207.784C153.284 207.69 152.63 208.037 152.563 208.561C152.496 209.084 153.043 209.586 153.783 209.68Z" stroke="#573240" stroke-width="4" stroke-miterlimit="10" stroke-linecap="round" stroke-linejoin="round"/>
<path d="M161.49 205.424C161.175 206.102 159.62 207.18 159.62 207.18C159.62 207.18 159.445 205.294 159.76 204.617C160.076 203.939 160.719 203.57 161.196 203.793C161.674 204.016 161.805 204.747 161.49 205.424Z" stroke="#573240" stroke-width="4" stroke-miterlimit="10" stroke-linecap="round" stroke-linejoin="round"/>
<path d="M91.8101 210.909L74.6848 196.242C72.3549 200.722 73.5096 206.579 77.731 210.195C81.9524 213.81 87.8423 213.986 91.8101 210.909Z" fill="#F0941F"/>
<path d="M81.6457 206.922C82.1051 206.371 82.4165 204.573 82.4165 204.573C82.4165 204.573 80.7198 205.185 80.2605 205.736C79.8012 206.287 79.739 206.999 80.1215 207.327C80.504 207.655 81.1865 207.473 81.6457 206.922Z" stroke="#573240" stroke-width="4" stroke-miterlimit="10" stroke-linecap="round" stroke-linejoin="round"/>
<path d="M85.3196 207.658C85.1529 206.958 83.9057 205.647 83.9057 205.647C83.9057 205.647 83.3878 207.396 83.5545 208.096C83.7213 208.796 84.2516 209.265 84.739 209.144C85.2265 209.023 85.4864 208.358 85.3196 207.658Z" stroke="#573240" stroke-width="4" stroke-miterlimit="10" stroke-linecap="round" stroke-linejoin="round"/>
<path d="M78.9313 202.187C79.6398 202.237 81.123 203.264 81.123 203.264C81.123 203.264 79.5085 204.074 78.8 204.024C78.0915 203.974 77.5466 203.523 77.5828 203.015C77.619 202.508 78.2228 202.137 78.9313 202.187Z" stroke="#573240" stroke-width="4" stroke-miterlimit="10" stroke-linecap="round" stroke-linejoin="round"/>
<path d="M121.674 211.23C121.674 211.23 128.246 208.212 127.946 199.281C127.646 190.35 119.68 187.498 118.19 190.291C117.212 192.126 118.36 194.408 121.55 195.588C125.163 196.925 127.312 198.041 126.79 202.299C126.318 206.145 124.54 209.053 121.674 211.23Z" fill="#A9D8D5"/>
<path d="M121.674 211.23C121.674 211.23 129.242 206.108 126.433 197.761C124.095 190.814 119.451 191.423 119.451 191.423" stroke="#573240" stroke-width="4" stroke-miterlimit="10" stroke-linecap="round" stroke-linejoin="round"/>
<path d="M125.229 195.103C124.742 194.414 124.306 193.266 124.536 191.91" stroke="#573240" stroke-width="4" stroke-miterlimit="10" stroke-linecap="round" stroke-linejoin="round"/>
<path d="M136.976 214.04C133.129 214.04 130.012 210.917 130.012 207.064C130.012 203.211 133.129 200.088 136.976 200.088C140.822 200.088 143.94 203.211 143.94 207.064C143.94 210.917 140.822 214.04 136.976 214.04Z" fill="#A9D8D5"/>
<path d="M135.933 204.388C136.001 204.904 136.807 205.946 136.807 205.946C136.807 205.946 137.318 204.731 137.251 204.215C137.183 203.698 136.833 203.318 136.47 203.366C136.106 203.414 135.865 203.871 135.933 204.388Z" stroke="#573240" stroke-width="4" stroke-miterlimit="10" stroke-linecap="round" stroke-linejoin="round"/>
<path d="M137.986 209.833C137.918 209.317 137.112 208.274 137.112 208.274C137.112 208.274 136.6 209.49 136.668 210.006C136.735 210.522 137.085 210.902 137.449 210.854C137.813 210.807 138.053 210.349 137.986 209.833Z" stroke="#573240" stroke-width="4" stroke-miterlimit="10" stroke-linecap="round" stroke-linejoin="round"/>
<path d="M139.677 206.082C139.162 206.15 138.121 206.958 138.121 206.958C138.121 206.958 139.335 207.47 139.85 207.402C140.366 207.334 140.745 206.984 140.697 206.62C140.649 206.255 140.193 206.015 139.677 206.082Z" stroke="#573240" stroke-width="4" stroke-miterlimit="10" stroke-linecap="round" stroke-linejoin="round"/>
<path d="M134.241 208.139C134.757 208.071 135.797 207.263 135.797 207.263C135.797 207.263 134.584 206.751 134.069 206.819C133.553 206.886 133.174 207.237 133.222 207.601C133.269 207.966 133.726 208.206 134.241 208.139Z" stroke="#573240" stroke-width="4" stroke-miterlimit="10" stroke-linecap="round" stroke-linejoin="round"/>
<path d="M183.752 212.826C181.467 212.826 179.615 210.97 179.615 208.682C179.615 206.393 181.467 204.538 183.752 204.538C186.037 204.538 187.889 206.393 187.889 208.682C187.889 210.97 186.037 212.826 183.752 212.826Z" fill="white"/>
<path d="M168.699 208.253C170.396 208.196 172.284 207.692 174.397 206.953C182.824 204.004 182.772 196.344 180.079 195.698C177.971 195.192 176.387 197.192 176.213 200.597C176.015 204.452 175.308 207.18 171.094 207.95C170.292 208.096 169.491 208.2 168.699 208.253Z" fill="#A9D8D5"/>
<path d="M167.509 208.27C169.903 208.402 172.662 207.915 175.363 206.016C179.801 202.896 179.619 197.166 179.619 197.166" stroke="#573240" stroke-width="4" stroke-miterlimit="10" stroke-linecap="round" stroke-linejoin="round"/>
<path d="M168.09 208.166C167.778 208.217 172.828 207.756 174.207 203.351C175.234 200.073 172.691 199.313 171.672 200.345C170.535 201.495 171.42 204.648 169.977 206.739C169.559 207.346 169.616 207.915 168.09 208.166Z" fill="#A9D8D5"/>
<path d="M172.594 201.315C172.594 201.315 173.337 206.88 167.509 208.27" stroke="#573240" stroke-width="4" stroke-miterlimit="10" stroke-linecap="round" stroke-linejoin="round"/>
<path d="M96.1439 208.38C96.5133 208.456 96.8378 208.439 97.1284 208.353C94.4008 207.117 93.4875 204.435 92.8367 200.932C92.0734 196.819 89.7553 194.632 87.1747 195.573C83.8776 196.774 85.0357 206.095 96.1439 208.38Z" fill="#A9D8D5"/>
<path d="M106.288 209.614C103.252 209.911 97.8887 209.469 94.3459 207.295C88.5234 203.724 88.5146 197.316 88.5146 197.316" stroke="#573240" stroke-width="4" stroke-miterlimit="10" stroke-linecap="round" stroke-linejoin="round"/>
<path d="M105.543 209.519C105.942 209.564 99.4971 209.283 97.4883 203.967C95.9934 200.011 99.181 198.939 100.537 200.144C102.048 201.488 101.107 205.398 103.062 207.878C103.629 208.597 103.589 209.298 105.543 209.519Z" fill="#A9D8D5"/>
<path d="M99.4202 201.384C99.4202 201.384 98.799 208.239 106.288 209.614" stroke="#573240" stroke-width="4" stroke-miterlimit="10" stroke-linecap="round" stroke-linejoin="round"/>
<path d="M51.1373 208.24L60.3666 189.672C62.5239 185.333 66.9465 182.589 71.7864 182.589H112.671C107.831 182.589 103.409 185.333 101.252 189.672L92.0223 208.24H51.1373Z" stroke="#573240" stroke-width="5" stroke-miterlimit="10" stroke-linecap="round"/>
<path d="M92.0224 208.24L101.252 189.672C103.409 185.333 107.832 182.589 112.671 182.589H172.655C177.495 182.589 181.918 185.333 184.075 189.672L193.304 208.24H92.0224Z" stroke="#573240" stroke-width="5" stroke-miterlimit="10" stroke-linecap="round"/>
<path d="M131.241 182.589H160.636V196.718H131.241V182.589Z" fill="#573240"/>
<path d="M92.0224 208.325L101.252 226.894C103.409 231.233 107.832 233.976 112.671 233.976H172.655C177.495 233.976 181.918 231.233 184.075 226.894L193.304 208.325H92.0224Z" fill="white"/>
<path d="M51.1373 208.24L60.3666 226.808C62.5239 231.148 66.9465 233.891 71.7864 233.891H112.671C107.831 233.891 103.409 231.148 101.252 226.808L92.0223 208.24H51.1373Z" fill="white"/>
<path d="M51.1375 208.24L60.3667 226.808C62.524 231.148 66.9466 233.891 71.7865 233.891H172.655C177.495 233.891 181.918 231.148 184.075 226.808L193.304 208.24H51.1375Z" fill="white"/>
<path d="M60.3666 226.808C62.5239 231.148 66.9465 233.891 71.7864 233.891H112.671C107.831 233.891 103.409 231.148 101.252 226.808L92.0223 208.24" stroke="#573240" stroke-width="5" stroke-miterlimit="10" stroke-linecap="round"/>
<path d="M92.0224 208.24L101.252 226.808C103.409 231.148 107.832 233.891 112.671 233.891H175.205" stroke="#573240" stroke-width="5" stroke-miterlimit="10" stroke-linecap="round"/>
<path d="M196.225 208.325H48.2168" stroke="#573240" stroke-width="5" stroke-miterlimit="10" stroke-linecap="round"/>
<path d="M143.34 191.735H145.87V189.201C145.87 186.571 143.741 184.439 141.115 184.439H138.586V186.973C138.586 189.603 140.714 191.735 143.34 191.735Z" stroke="#A9D8D5" stroke-width="4" stroke-miterlimit="10"/>
<path d="M138.586 184.439L147.543 193.412" stroke="#A9D8D5" stroke-width="4" stroke-miterlimit="10"/>
<path d="M141.299 184.524V187.157H138.671" stroke="#A9D8D5" stroke-width="4" stroke-miterlimit="10"/>
<path d="M143.793 185.307V189.655H139.452" stroke="#A9D8D5" stroke-width="4" stroke-miterlimit="10"/>
<path d="M148.01 191.919H147.346V191.254C147.346 188.624 149.475 186.491 152.101 186.491H152.765V187.156C152.765 189.787 150.636 191.919 148.01 191.919Z" stroke="#A9D8D5" stroke-width="4" stroke-miterlimit="10"/>
<path d="M152.765 186.491L146.7 192.567" stroke="#A9D8D5" stroke-width="4" stroke-miterlimit="10"/>
<path d="M149.316 187.392V189.946H151.865" stroke="#A9D8D5" stroke-width="4" stroke-miterlimit="10"/>
<path d="M81.474 163.424L88.002 176.557C89.7714 180.117 93.3986 182.367 97.3681 182.367H114.673C110.704 182.367 107.077 180.117 105.307 176.557L98.7793 163.424H81.474Z" fill="#573240"/>
<path d="M98.779 163.424L99.4734 164.82L105.307 176.557C107.076 180.117 110.704 182.367 114.673 182.367H139.47C143.439 182.367 147.066 180.117 148.836 176.557L154.669 164.82L155.364 163.424H98.779Z" fill="#F0941F"/>
<path d="M98.7794 163.424L99.7996 165.498H154.316L155.364 163.424H98.7794Z" fill="#573240"/>
<path d="M79.0285 163.424L86.8747 147.638C88.7088 143.949 92.4686 141.617 96.5833 141.617H114.552C110.438 141.617 106.678 143.949 104.844 147.638L96.9975 163.424H79.0285Z" fill="#FCD4D0"/>
<path d="M96.9973 163.424L104.844 147.638C106.678 143.949 110.437 141.617 114.552 141.617H140.255C144.37 141.617 148.13 143.949 149.964 147.638L157.81 163.424H96.9973Z" fill="white"/>
<path d="M231.806 147.4L237.591 197.816H316.386L310.452 146.094H232.969C232.27 146.094 231.727 146.704 231.806 147.4Z" fill="#F6ACC1"/>
<path d="M243.701 146.094C244.636 146.094 245.422 146.796 245.529 147.726L246.127 152.936C246.593 157.002 250.029 160.071 254.115 160.071H316.723C321.527 160.071 325.259 155.878 324.711 151.097L324.28 147.343C324.198 146.631 323.596 146.094 322.881 146.094H243.701Z" fill="#FCD4D0"/>
<path d="M268.09 232.766C254.54 232.766 243.555 221.545 243.555 207.704C243.555 193.863 254.54 182.642 268.09 182.642C281.641 182.642 292.626 193.863 292.626 207.704C292.626 221.545 281.641 232.766 268.09 232.766Z" fill="#573240"/>
<path d="M272.425 182.642C285.976 182.642 296.961 193.863 296.961 207.704C296.961 221.545 285.976 232.765 272.425 232.765C258.875 232.765 247.89 221.545 247.89 207.704C247.89 193.863 258.875 182.642 272.425 182.642ZM272.425 216.328C276.987 216.328 280.685 212.55 280.685 207.891C280.685 203.232 276.987 199.454 272.425 199.454C267.864 199.454 264.166 203.232 264.166 207.891C264.166 212.55 267.864 216.328 272.425 216.328Z" fill="#A9D8D5"/>
<path d="M268.803 187.069H270.897C271.131 187.069 271.32 186.879 271.32 186.645V186.616C271.32 186.382 271.131 186.192 270.897 186.192H268.803C268.569 186.192 268.38 186.382 268.38 186.616V186.645C268.38 186.879 268.569 187.069 268.803 187.069Z" fill="white"/>
<path d="M265.427 196.035H267.521C267.755 196.035 267.944 195.845 267.944 195.611V195.582C267.944 195.348 267.755 195.159 267.521 195.159H265.427C265.193 195.159 265.004 195.348 265.004 195.582V195.611C265.004 195.845 265.193 196.035 265.427 196.035Z" fill="#573240"/>
<path d="M282.903 190.688L284.674 191.808C284.872 191.933 285.133 191.874 285.257 191.676L285.273 191.652C285.398 191.454 285.339 191.192 285.141 191.067L283.37 189.947C283.173 189.822 282.911 189.881 282.787 190.079L282.771 190.104C282.646 190.302 282.706 190.563 282.903 190.688Z" fill="white"/>
<path d="M255.627 194.957L256.77 196.715C256.897 196.911 257.16 196.967 257.355 196.839L257.38 196.823C257.575 196.695 257.631 196.433 257.503 196.237L256.36 194.479C256.233 194.283 255.971 194.227 255.775 194.355L255.751 194.371C255.555 194.498 255.5 194.761 255.627 194.957Z" fill="white"/>
<path d="M273.139 194.706L274.91 195.826C275.107 195.951 275.369 195.892 275.493 195.694L275.509 195.67C275.634 195.472 275.575 195.21 275.377 195.085L273.606 193.965C273.409 193.84 273.147 193.899 273.023 194.097L273.007 194.122C272.882 194.319 272.941 194.581 273.139 194.706Z" fill="white"/>
<path d="M277.604 188.884L278.825 187.179C278.961 186.989 278.918 186.724 278.728 186.588L278.704 186.571C278.514 186.434 278.25 186.478 278.114 186.668L276.893 188.373C276.757 188.563 276.8 188.828 276.99 188.964L277.014 188.981C277.203 189.117 277.468 189.074 277.604 188.884Z" fill="#573240"/>
<path d="M260.65 195.42L261.871 193.715C262.007 193.525 261.964 193.26 261.774 193.124L261.75 193.107C261.56 192.971 261.296 193.014 261.16 193.205L259.939 194.909C259.803 195.099 259.846 195.364 260.036 195.5L260.06 195.517C260.249 195.654 260.514 195.61 260.65 195.42Z" fill="#FF6E00"/>
<path d="M286.961 196.083L288.589 194.764C288.771 194.617 288.799 194.35 288.652 194.168L288.634 194.145C288.487 193.963 288.221 193.935 288.039 194.082L286.41 195.401C286.229 195.549 286.201 195.815 286.348 195.997L286.366 196.02C286.513 196.202 286.779 196.23 286.961 196.083Z" fill="#FF6E00"/>
<path d="M261.697 190.118L263.325 188.799C263.507 188.652 263.535 188.385 263.388 188.203L263.37 188.181C263.223 187.999 262.957 187.97 262.775 188.117L261.147 189.437C260.965 189.584 260.937 189.851 261.084 190.033L261.102 190.055C261.249 190.237 261.515 190.265 261.697 190.118Z" fill="white"/>
<path d="M280.843 195.573L280.487 193.506C280.447 193.275 280.228 193.121 279.998 193.161L279.969 193.165C279.739 193.205 279.585 193.425 279.625 193.655L279.981 195.722C280.021 195.953 280.24 196.108 280.47 196.068L280.499 196.063C280.729 196.023 280.883 195.804 280.843 195.573Z" fill="#F1B104"/>
<path d="M283.385 202.883L283.029 200.816C282.989 200.585 282.77 200.431 282.54 200.47L282.511 200.475C282.281 200.515 282.127 200.734 282.167 200.965L282.523 203.032C282.563 203.263 282.782 203.418 283.012 203.378L283.041 203.373C283.271 203.333 283.425 203.114 283.385 202.883Z" fill="#F1B104"/>
<path d="M273.977 190.567L272.332 189.269C272.148 189.124 271.882 189.155 271.738 189.339L271.72 189.362C271.575 189.546 271.607 189.812 271.79 189.957L273.435 191.256C273.619 191.4 273.885 191.369 274.029 191.185L274.047 191.162C274.192 190.978 274.16 190.712 273.977 190.567Z" fill="#FF6E00"/>
<path d="M267.404 191.525L267.048 189.458C267.008 189.227 266.789 189.072 266.559 189.112L266.53 189.117C266.3 189.157 266.146 189.376 266.186 189.607L266.542 191.674C266.582 191.905 266.801 192.06 267.031 192.02L267.06 192.015C267.29 191.975 267.444 191.756 267.404 191.525Z" fill="#F1B104"/>
<path d="M257.622 221.108L256.376 219.422C256.237 219.234 255.972 219.194 255.784 219.333L255.761 219.35C255.573 219.49 255.534 219.755 255.673 219.943L256.919 221.629C257.058 221.818 257.323 221.857 257.51 221.718L257.534 221.701C257.721 221.561 257.761 221.296 257.622 221.108Z" fill="white"/>
<path d="M265.851 217.91L264.605 216.223C264.466 216.035 264.201 215.996 264.013 216.135L263.99 216.152C263.802 216.291 263.763 216.557 263.902 216.745L265.148 218.431C265.287 218.619 265.552 218.659 265.739 218.52L265.763 218.503C265.95 218.363 265.99 218.098 265.851 217.91Z" fill="#573240"/>
<path d="M252.139 207.602L251.984 205.51C251.967 205.276 251.764 205.101 251.531 205.118L251.502 205.12C251.269 205.138 251.094 205.341 251.112 205.574L251.266 207.666C251.284 207.9 251.486 208.075 251.719 208.058L251.748 208.056C251.981 208.038 252.156 207.835 252.139 207.602Z" fill="white"/>
<path d="M263.687 201.015L263.532 198.923C263.515 198.69 263.312 198.514 263.079 198.532L263.05 198.534C262.817 198.551 262.642 198.754 262.66 198.988L262.814 201.08C262.831 201.313 263.034 201.488 263.267 201.471L263.296 201.469C263.529 201.452 263.704 201.248 263.687 201.015Z" fill="white"/>
<path d="M270.563 228.405L271.294 226.439C271.375 226.22 271.264 225.976 271.045 225.894L271.018 225.884C270.799 225.802 270.555 225.914 270.474 226.133L269.743 228.099C269.661 228.318 269.773 228.562 269.991 228.644L270.019 228.654C270.238 228.736 270.481 228.624 270.563 228.405Z" fill="white"/>
<path d="M261.172 213.073L261.017 210.981C261 210.748 260.797 210.573 260.564 210.59L260.535 210.592C260.302 210.609 260.127 210.813 260.144 211.046L260.299 213.138C260.316 213.372 260.519 213.547 260.752 213.529L260.781 213.527C261.014 213.51 261.189 213.307 261.172 213.073Z" fill="white"/>
<path d="M253.843 212.942L251.749 212.973C251.515 212.976 251.328 213.169 251.332 213.403L251.332 213.432C251.336 213.666 251.528 213.853 251.762 213.849L253.856 213.818C254.089 213.815 254.276 213.622 254.272 213.388L254.272 213.359C254.269 213.125 254.076 212.938 253.843 212.942Z" fill="#573240"/>
<path d="M274.066 220.072L271.972 220.103C271.738 220.106 271.551 220.299 271.555 220.533L271.555 220.562C271.559 220.796 271.751 220.983 271.985 220.979L274.079 220.948C274.312 220.945 274.499 220.752 274.496 220.518L274.495 220.489C274.492 220.255 274.299 220.068 274.066 220.072Z" fill="#573240"/>
<path d="M269.174 222.704L267.08 222.735C266.846 222.739 266.659 222.931 266.663 223.165L266.663 223.194C266.667 223.428 266.859 223.615 267.092 223.612L269.187 223.581C269.42 223.577 269.607 223.385 269.603 223.151L269.603 223.122C269.599 222.888 269.407 222.701 269.174 222.704Z" fill="#FF6E00"/>
<path d="M254.054 201.125L252.027 200.599C251.801 200.54 251.57 200.676 251.511 200.903L251.504 200.931C251.445 201.158 251.581 201.389 251.807 201.447L253.835 201.974C254.061 202.033 254.292 201.896 254.35 201.67L254.357 201.642C254.416 201.415 254.28 201.184 254.054 201.125Z" fill="#FF6E00"/>
<path d="M261.163 203.529L259.136 203.003C258.909 202.944 258.679 203.08 258.62 203.306L258.613 203.335C258.554 203.561 258.69 203.792 258.916 203.851L260.943 204.377C261.17 204.436 261.401 204.3 261.459 204.073L261.466 204.045C261.525 203.819 261.389 203.588 261.163 203.529Z" fill="#FF6E00"/>
<path d="M264.296 225.015L262.269 224.489C262.043 224.43 261.812 224.566 261.753 224.793L261.746 224.821C261.687 225.048 261.823 225.279 262.049 225.337L264.077 225.864C264.303 225.923 264.534 225.786 264.592 225.56L264.6 225.532C264.658 225.305 264.522 225.074 264.296 225.015Z" fill="white"/>
<path d="M257.284 206.354L255.837 207.871C255.676 208.04 255.682 208.308 255.851 208.47L255.872 208.49C256.041 208.652 256.309 208.646 256.47 208.476L257.917 206.959C258.078 206.79 258.072 206.522 257.903 206.36L257.882 206.34C257.713 206.179 257.446 206.185 257.284 206.354Z" fill="#F1B104"/>
<path d="M257.351 214.861L257.288 216.958C257.281 217.192 257.464 217.387 257.698 217.394L257.727 217.395C257.96 217.402 258.155 217.218 258.162 216.984L258.226 214.887C258.233 214.653 258.049 214.458 257.816 214.451L257.787 214.45C257.553 214.443 257.358 214.627 257.351 214.861Z" fill="#FF6E00"/>
<path d="M262.03 219.583L260.583 221.1C260.422 221.269 260.428 221.537 260.597 221.699L260.618 221.719C260.787 221.88 261.054 221.874 261.216 221.705L262.663 220.188C262.824 220.019 262.818 219.751 262.649 219.589L262.628 219.569C262.459 219.407 262.191 219.413 262.03 219.583Z" fill="#F1B104"/>
<path d="M291.107 213.982L290.184 215.866C290.082 216.076 290.168 216.33 290.378 216.433L290.404 216.446C290.614 216.549 290.867 216.462 290.97 216.252L291.892 214.368C291.995 214.158 291.908 213.904 291.699 213.801L291.673 213.788C291.463 213.685 291.209 213.772 291.107 213.982Z" fill="white"/>
<path d="M284.487 208.133L283.565 210.017C283.462 210.227 283.549 210.481 283.759 210.584L283.785 210.596C283.995 210.699 284.248 210.613 284.351 210.403L285.273 208.519C285.376 208.309 285.289 208.055 285.08 207.952L285.054 207.939C284.844 207.836 284.59 207.923 284.487 208.133Z" fill="#573240"/>
<path d="M281.654 225.07L279.87 226.169C279.671 226.292 279.609 226.553 279.731 226.752L279.746 226.777C279.869 226.976 280.129 227.038 280.328 226.916L282.112 225.816C282.311 225.693 282.373 225.432 282.251 225.233L282.236 225.208C282.113 225.009 281.852 224.947 281.654 225.07Z" fill="white"/>
<path d="M290.93 198.967L288.85 199.221C288.619 199.249 288.453 199.461 288.482 199.693L288.485 199.722C288.514 199.954 288.724 200.119 288.956 200.091L291.035 199.837C291.267 199.809 291.432 199.598 291.404 199.365L291.401 199.337C291.372 199.104 291.161 198.939 290.93 198.967Z" fill="white"/>
<path d="M282.351 214.519L280.568 215.619C280.369 215.741 280.307 216.002 280.429 216.202L280.444 216.226C280.567 216.426 280.827 216.488 281.026 216.365L282.81 215.265C283.009 215.143 283.071 214.882 282.948 214.682L282.933 214.658C282.811 214.458 282.55 214.396 282.351 214.519Z" fill="white"/>
<path d="M285.604 221.099L286.595 222.947C286.705 223.153 286.962 223.231 287.167 223.12L287.193 223.106C287.399 222.996 287.476 222.739 287.366 222.533L286.375 220.684C286.265 220.478 286.008 220.4 285.802 220.511L285.777 220.525C285.571 220.635 285.494 220.892 285.604 221.099Z" fill="#573240"/>
<path d="M287.21 202.973L288.201 204.821C288.311 205.028 288.568 205.105 288.773 204.994L288.799 204.981C289.005 204.87 289.082 204.613 288.972 204.407L287.981 202.558C287.871 202.352 287.614 202.275 287.408 202.385L287.383 202.399C287.177 202.51 287.1 202.767 287.21 202.973Z" fill="#FF6E00"/>
<path d="M275.031 226.344L275.497 228.389C275.549 228.617 275.776 228.76 276.004 228.708L276.032 228.702C276.26 228.65 276.402 228.422 276.35 228.194L275.885 226.149C275.833 225.921 275.606 225.778 275.378 225.83L275.35 225.836C275.122 225.888 274.98 226.115 275.031 226.344Z" fill="#FF6E00"/>
<path d="M292.084 205.663L292.55 207.708C292.602 207.936 292.828 208.079 293.056 208.027L293.084 208.021C293.312 207.969 293.455 207.741 293.403 207.513L292.937 205.468C292.885 205.24 292.659 205.097 292.431 205.149L292.403 205.155C292.175 205.207 292.032 205.435 292.084 205.663Z" fill="white"/>
<path d="M278.182 221.067L280.192 221.656C280.416 221.722 280.651 221.593 280.716 221.368L280.725 221.341C280.79 221.116 280.662 220.881 280.437 220.815L278.427 220.225C278.203 220.16 277.968 220.288 277.903 220.513L277.894 220.541C277.829 220.765 277.957 221.001 278.182 221.067Z" fill="#F1B104"/>
<path d="M285.692 217.095L287.58 216.187C287.791 216.086 287.88 215.833 287.779 215.622L287.766 215.596C287.665 215.385 287.412 215.296 287.202 215.397L285.313 216.305C285.103 216.406 285.014 216.659 285.115 216.87L285.128 216.897C285.229 217.108 285.481 217.196 285.692 217.095Z" fill="#FF6E00"/>
<path d="M287.566 209.798L290.388 210.626L290.142 211.467L287.32 210.64L287.566 209.798Z" fill="#F1B104"/>
<path d="M323.271 171.092C337.476 171.092 348.992 182.855 348.992 197.364C348.992 211.874 337.476 223.637 323.271 223.637C309.066 223.637 297.55 211.874 297.55 197.364C297.55 182.855 309.066 171.092 323.271 171.092ZM323.271 205.521C327.575 205.521 331.064 201.957 331.064 197.561C331.064 193.164 327.575 189.599 323.271 189.599C318.967 189.599 315.477 193.164 315.477 197.561C315.477 201.957 318.967 205.521 323.271 205.521Z" fill="#573240"/>
<path d="M326.756 171.092C340.961 171.092 352.477 182.855 352.477 197.364C352.477 211.874 340.961 223.637 326.756 223.637C312.551 223.637 301.035 211.874 301.035 197.364C301.035 182.855 312.551 171.092 326.756 171.092ZM326.756 206.405C331.537 206.405 335.414 202.445 335.414 197.561C335.414 192.676 331.537 188.716 326.756 188.716C321.974 188.716 318.097 192.676 318.097 197.561C318.097 202.445 321.974 206.405 326.756 206.405Z" fill="#F0941F"/>
<path d="M323.338 176.504H325.634C325.868 176.504 326.057 176.314 326.057 176.08V175.991C326.057 175.757 325.868 175.567 325.634 175.567H323.338C323.104 175.567 322.915 175.757 322.915 175.991V176.08C322.915 176.314 323.104 176.504 323.338 176.504Z" fill="white"/>
<path d="M309.774 195.92H312.07C312.304 195.92 312.493 195.73 312.493 195.496V195.407C312.493 195.173 312.304 194.983 312.07 194.983H309.774C309.541 194.983 309.351 195.173 309.351 195.407V195.496C309.351 195.73 309.541 195.92 309.774 195.92Z" fill="#A9D8D5"/>
<path d="M304.594 193.084L306.798 193.729C307.022 193.795 307.257 193.666 307.323 193.441L307.348 193.356C307.413 193.131 307.285 192.896 307.06 192.83L304.856 192.185C304.632 192.12 304.397 192.249 304.332 192.473L304.307 192.559C304.241 192.783 304.37 193.019 304.594 193.084Z" fill="#573240"/>
<path d="M338.445 195.083H340.742C340.975 195.083 341.165 194.893 341.165 194.659V194.57C341.165 194.336 340.975 194.146 340.742 194.146H338.445C338.212 194.146 338.022 194.336 338.022 194.57V194.659C338.022 194.893 338.212 195.083 338.445 195.083Z" fill="white"/>
<path d="M313.55 192.249L315.759 191.62C315.983 191.556 316.114 191.321 316.05 191.096L316.025 191.011C315.961 190.785 315.727 190.655 315.503 190.719L313.294 191.348C313.07 191.412 312.939 191.646 313.003 191.872L313.027 191.957C313.091 192.182 313.325 192.313 313.55 192.249Z" fill="#F1B104"/>
<path d="M345.383 188.716H347.679C347.913 188.716 348.103 188.526 348.103 188.292V188.203C348.103 187.969 347.913 187.78 347.679 187.78H345.383C345.15 187.78 344.96 187.969 344.96 188.203V188.292C344.961 188.526 345.15 188.716 345.383 188.716Z" fill="#F1B104"/>
<path d="M320.85 185.435H323.146C323.379 185.435 323.569 185.245 323.569 185.011V184.922C323.569 184.688 323.379 184.498 323.146 184.498H320.85C320.616 184.498 320.427 184.688 320.427 184.922V185.011C320.427 185.245 320.616 185.435 320.85 185.435Z" fill="#573240"/>
<path d="M309.851 183.052L311.839 181.902C312.041 181.785 312.111 181.526 311.994 181.324L311.95 181.246C311.833 181.044 311.574 180.974 311.372 181.091L309.383 182.241C309.181 182.358 309.112 182.617 309.228 182.82L309.273 182.897C309.39 183.1 309.648 183.169 309.851 183.052Z" fill="#F6ACC1"/>
<path d="M337.193 180.608L339.135 181.836C339.332 181.961 339.593 181.902 339.718 181.704L339.766 181.629C339.89 181.431 339.831 181.169 339.634 181.044L337.692 179.816C337.495 179.691 337.234 179.75 337.109 179.948L337.061 180.024C336.937 180.222 336.996 180.483 337.193 180.608Z" fill="white"/>
<path d="M308.197 186.596L309.45 188.524C309.577 188.72 309.839 188.775 310.035 188.647L310.11 188.599C310.305 188.471 310.361 188.209 310.233 188.013L308.98 186.085C308.853 185.889 308.591 185.834 308.395 185.961L308.32 186.01C308.125 186.138 308.069 186.4 308.197 186.596Z" fill="white"/>
<path d="M327.067 185.559L329.009 186.787C329.206 186.912 329.467 186.853 329.592 186.655L329.64 186.58C329.764 186.382 329.705 186.12 329.508 185.995L327.567 184.767C327.369 184.642 327.108 184.702 326.983 184.899L326.935 184.975C326.811 185.173 326.87 185.434 327.067 185.559Z" fill="white"/>
<path d="M333.487 185.175L334.281 183.017C334.362 182.797 334.249 182.553 334.03 182.472L333.947 182.442C333.728 182.361 333.484 182.473 333.404 182.693L332.61 184.851C332.529 185.07 332.641 185.314 332.861 185.395L332.944 185.426C333.163 185.507 333.406 185.394 333.487 185.175Z" fill="#F1B104"/>
<path d="M332.755 178.467L334.093 176.598C334.229 176.408 334.186 176.143 333.996 176.007L333.924 175.955C333.734 175.819 333.469 175.862 333.333 176.052L331.995 177.921C331.859 178.111 331.902 178.376 332.092 178.512L332.164 178.564C332.354 178.701 332.618 178.657 332.755 178.467Z" fill="#573240"/>
<path d="M313.28 186.642L314.618 184.773C314.755 184.583 314.711 184.318 314.521 184.182L314.449 184.13C314.259 183.994 313.995 184.037 313.859 184.227L312.52 186.096C312.384 186.286 312.428 186.551 312.617 186.687L312.69 186.739C312.88 186.876 313.144 186.832 313.28 186.642Z" fill="#573240"/>
<path d="M342.747 185.414L344.532 183.967C344.714 183.82 344.742 183.553 344.595 183.371L344.539 183.302C344.392 183.12 344.126 183.092 343.945 183.239L342.159 184.685C341.978 184.833 341.95 185.099 342.096 185.281L342.152 185.351C342.299 185.532 342.566 185.561 342.747 185.414Z" fill="#A9D8D5"/>
<path d="M315.751 179.781L317.536 178.335C317.718 178.188 317.746 177.921 317.599 177.739L317.543 177.67C317.396 177.488 317.13 177.459 316.948 177.607L315.163 179.053C314.982 179.2 314.953 179.467 315.1 179.649L315.156 179.718C315.303 179.9 315.57 179.928 315.751 179.781Z" fill="#F1B104"/>
<path d="M346.669 195.283L348.09 193.477C348.234 193.293 348.203 193.027 348.019 192.882L347.95 192.827C347.766 192.682 347.5 192.714 347.355 192.897L345.934 194.704C345.79 194.888 345.821 195.154 346.005 195.299L346.075 195.354C346.258 195.499 346.524 195.467 346.669 195.283Z" fill="#A9D8D5"/>
<path d="M338.69 188.098L338.299 185.832C338.259 185.601 338.04 185.446 337.81 185.486L337.722 185.501C337.492 185.541 337.337 185.76 337.377 185.991L337.768 188.257C337.808 188.488 338.027 188.643 338.257 188.603L338.345 188.588C338.575 188.548 338.729 188.328 338.69 188.098Z" fill="#F6ACC1"/>
<path d="M329.827 181.17L328.024 179.747C327.84 179.602 327.574 179.633 327.43 179.817L327.375 179.887C327.23 180.071 327.261 180.337 327.445 180.482L329.248 181.906C329.432 182.051 329.698 182.019 329.843 181.835L329.898 181.765C330.042 181.581 330.011 181.315 329.827 181.17Z" fill="#A9D8D5"/>
<path d="M343.856 191.647L342.052 190.224C341.869 190.079 341.603 190.111 341.458 190.294L341.403 190.364C341.259 190.548 341.29 190.815 341.474 190.96L343.277 192.383C343.461 192.528 343.727 192.496 343.871 192.312L343.926 192.242C344.071 192.059 344.039 191.792 343.856 191.647Z" fill="#573240"/>
<path d="M321.878 181.295L321.487 179.028C321.447 178.798 321.228 178.643 320.998 178.683L320.911 178.698C320.68 178.738 320.526 178.957 320.566 179.188L320.957 181.454C320.996 181.685 321.215 181.839 321.446 181.799L321.533 181.784C321.763 181.744 321.918 181.525 321.878 181.295Z" fill="#F6ACC1"/>
<path d="M319.17 188.321L317.642 186.605C317.487 186.43 317.219 186.415 317.045 186.571L316.978 186.63C316.804 186.786 316.789 187.054 316.944 187.228L318.473 188.945C318.628 189.119 318.896 189.134 319.07 188.979L319.136 188.919C319.311 188.764 319.326 188.496 319.17 188.321Z" fill="#A9D8D5"/>
<path d="M329.815 218.643L327.52 218.678C327.286 218.682 327.1 218.874 327.103 219.108L327.104 219.198C327.108 219.432 327.3 219.618 327.534 219.615L329.83 219.58C330.063 219.576 330.25 219.383 330.246 219.15L330.245 219.06C330.241 218.826 330.049 218.64 329.815 218.643Z" fill="white"/>
<path d="M343.082 199.022L340.786 199.057C340.553 199.061 340.366 199.254 340.37 199.487L340.371 199.577C340.375 199.811 340.567 199.997 340.8 199.994L343.096 199.959C343.33 199.955 343.516 199.763 343.513 199.529L343.511 199.44C343.508 199.205 343.316 199.019 343.082 199.022Z" fill="#A9D8D5"/>
<path d="M348.305 201.778L346.091 201.167C345.866 201.105 345.633 201.237 345.571 201.463L345.547 201.549C345.485 201.774 345.617 202.008 345.843 202.07L348.056 202.681C348.281 202.743 348.514 202.611 348.576 202.385L348.6 202.299C348.662 202.074 348.53 201.84 348.305 201.778Z" fill="#573240"/>
<path d="M314.427 200.298L312.131 200.333C311.897 200.336 311.711 200.529 311.714 200.763L311.716 200.852C311.719 201.086 311.912 201.273 312.145 201.269L314.441 201.234C314.674 201.23 314.861 201.038 314.857 200.804L314.856 200.715C314.853 200.481 314.66 200.294 314.427 200.298Z" fill="white"/>
<path d="M339.362 202.75L337.164 203.413C336.94 203.481 336.813 203.717 336.881 203.941L336.906 204.026C336.974 204.251 337.21 204.377 337.433 204.31L339.632 203.647C339.856 203.58 339.982 203.343 339.915 203.119L339.889 203.034C339.822 202.81 339.586 202.683 339.362 202.75Z" fill="#F1B104"/>
<path d="M307.586 206.769L305.291 206.804C305.057 206.808 304.871 207.001 304.874 207.235L304.875 207.324C304.879 207.558 305.071 207.744 305.305 207.741L307.601 207.706C307.834 207.702 308.021 207.51 308.017 207.276L308.016 207.187C308.012 206.953 307.82 206.766 307.586 206.769Z" fill="#F1B104"/>
<path d="M332.167 209.675L329.872 209.711C329.638 209.714 329.452 209.907 329.455 210.141L329.456 210.23C329.46 210.464 329.652 210.651 329.886 210.647L332.182 210.612C332.415 210.608 332.602 210.416 332.598 210.182L332.597 210.093C332.593 209.859 332.401 209.672 332.167 209.675Z" fill="#573240"/>
<path d="M343.201 211.89L341.231 213.07C341.03 213.19 340.965 213.45 341.085 213.651L341.13 213.727C341.25 213.928 341.51 213.994 341.711 213.874L343.681 212.693C343.882 212.573 343.947 212.313 343.827 212.112L343.782 212.036C343.662 211.835 343.402 211.769 343.201 211.89Z" fill="#F6ACC1"/>
<path d="M315.899 214.751L313.94 213.553C313.74 213.431 313.48 213.494 313.358 213.694L313.312 213.77C313.19 213.97 313.253 214.23 313.452 214.352L315.412 215.55C315.612 215.672 315.872 215.609 315.994 215.409L316.04 215.333C316.162 215.134 316.099 214.873 315.899 214.751Z" fill="white"/>
<path d="M344.801 208.321L343.519 206.413C343.389 206.219 343.126 206.167 342.932 206.298L342.858 206.348C342.665 206.478 342.613 206.742 342.744 206.936L344.026 208.844C344.156 209.038 344.419 209.089 344.613 208.959L344.687 208.909C344.88 208.778 344.932 208.515 344.801 208.321Z" fill="white"/>
<path d="M325.949 209.646L323.989 208.448C323.789 208.326 323.529 208.389 323.407 208.589L323.361 208.665C323.239 208.865 323.302 209.125 323.502 209.247L325.462 210.445C325.661 210.567 325.921 210.504 326.043 210.304L326.089 210.228C326.211 210.029 326.148 209.768 325.949 209.646Z" fill="white"/>
<path d="M319.536 210.129L318.775 212.298C318.697 212.519 318.813 212.761 319.034 212.839L319.118 212.868C319.338 212.946 319.58 212.83 319.657 212.609L320.418 210.439C320.495 210.218 320.379 209.976 320.159 209.899L320.075 209.869C319.854 209.792 319.613 209.908 319.536 210.129Z" fill="#F1B104"/>
<path d="M320.37 216.824L319.06 218.713C318.927 218.905 318.974 219.169 319.166 219.303L319.239 219.354C319.431 219.487 319.695 219.44 319.828 219.247L321.138 217.359C321.271 217.166 321.224 216.902 321.032 216.769L320.959 216.718C320.767 216.584 320.503 216.632 320.37 216.824Z" fill="#573240"/>
<path d="M339.718 208.353L338.408 210.241C338.275 210.434 338.322 210.698 338.514 210.831L338.587 210.882C338.779 211.016 339.043 210.968 339.176 210.776L340.486 208.887C340.619 208.695 340.572 208.431 340.38 208.297L340.307 208.246C340.115 208.113 339.851 208.16 339.718 208.353Z" fill="#573240"/>
<path d="M310.273 210.031L308.51 211.505C308.33 211.655 308.306 211.922 308.456 212.101L308.513 212.17C308.663 212.35 308.929 212.374 309.109 212.224L310.872 210.75C311.051 210.6 311.075 210.333 310.926 210.154L310.869 210.085C310.719 209.905 310.452 209.881 310.273 210.031Z" fill="#A9D8D5"/>
<path d="M337.351 215.251L335.588 216.724C335.409 216.874 335.385 217.141 335.534 217.321L335.591 217.389C335.741 217.569 336.008 217.593 336.187 217.443L337.95 215.97C338.129 215.82 338.153 215.553 338.004 215.373L337.947 215.305C337.797 215.125 337.53 215.101 337.351 215.251Z" fill="#F1B104"/>
<path d="M306.201 200.222L304.808 202.05C304.666 202.236 304.702 202.502 304.887 202.644L304.958 202.698C305.144 202.84 305.409 202.805 305.551 202.619L306.944 200.791C307.086 200.605 307.051 200.339 306.865 200.197L306.794 200.143C306.609 200.001 306.343 200.036 306.201 200.222Z" fill="#A9D8D5"/>
<path d="M314.289 207.285L314.714 209.545C314.758 209.775 314.979 209.927 315.208 209.883L315.296 209.867C315.525 209.823 315.676 209.602 315.633 209.372L315.208 207.112C315.165 206.882 314.943 206.731 314.714 206.774L314.626 206.79C314.397 206.834 314.246 207.055 314.289 207.285Z" fill="#F6ACC1"/>
<path d="M323.256 214.077L325.081 215.472C325.267 215.614 325.532 215.579 325.674 215.393L325.728 215.322C325.87 215.136 325.834 214.87 325.649 214.728L323.824 213.332C323.638 213.19 323.373 213.226 323.231 213.412L323.177 213.483C323.035 213.669 323.071 213.935 323.256 214.077Z" fill="#A9D8D5"/>
<path d="M309.069 203.815L310.894 205.211C311.08 205.353 311.345 205.317 311.487 205.131L311.541 205.06C311.683 204.874 311.647 204.608 311.462 204.466L309.637 203.071C309.451 202.929 309.186 202.964 309.044 203.15L308.99 203.221C308.848 203.407 308.884 203.673 309.069 203.815Z" fill="#573240"/>
<path d="M331.203 213.831L331.628 216.091C331.671 216.321 331.892 216.472 332.122 216.429L332.209 216.412C332.439 216.369 332.59 216.147 332.547 215.917L332.121 213.657C332.078 213.427 331.857 213.276 331.627 213.319L331.54 213.336C331.31 213.379 331.159 213.601 331.203 213.831Z" fill="#F6ACC1"/>
<path d="M333.803 206.764L335.357 208.457C335.515 208.629 335.783 208.64 335.955 208.482L336.02 208.421C336.192 208.263 336.203 207.995 336.045 207.823L334.491 206.13C334.333 205.958 334.065 205.946 333.893 206.105L333.828 206.165C333.656 206.324 333.644 206.592 333.803 206.764Z" fill="#A9D8D5"/>
<path d="M245.624 148.56L245.693 149.156H324.488L324.419 148.56H245.624Z" fill="#FDE5E3"/>
<path d="M247.011 155.792C247.118 155.996 247.236 156.195 247.36 156.388H323.476C323.601 156.195 323.719 155.995 323.827 155.792H247.011Z" fill="#FDE5E3"/>
<path d="M246.039 152.176L246.108 152.772H324.73C324.748 152.575 324.759 152.377 324.763 152.176H246.039Z" fill="#FDE5E3"/>
<path d="M237.647 197.816H269.889V233.977H237.647V197.816Z" fill="#F6ACC1"/>
<path d="M269.889 197.816H357.866V233.977H269.889V197.816Z" fill="#FCD4D0"/>
<path d="M269.85 201.134H357.866V201.73H269.85V201.134Z" fill="#FDE5E3"/>
<path d="M269.889 204.75H357.866V205.346H269.889V204.75Z" fill="#FDE5E3"/>
<path d="M269.889 208.367H357.866V208.963H269.889V208.367Z" fill="#FDE5E3"/>
<path d="M269.889 211.983H357.866V212.579H269.889V211.983Z" fill="#FDE5E3"/>
<path d="M269.889 215.599H357.866V216.195H269.889V215.599Z" fill="#FDE5E3"/>
<path d="M269.889 219.215H357.866V219.811H269.889V219.215Z" fill="#FDE5E3"/>
<path d="M269.889 226.447H357.866V227.043H269.889V226.447Z" fill="#FDE5E3"/>
<path d="M269.889 222.831H357.866V223.427H269.889V222.831Z" fill="#FDE5E3"/>
<path d="M269.889 230.062H357.866V230.658H269.889V230.062Z" fill="#FDE5E3"/>
<path d="M237.647 201.134H269.85V201.73H237.647V201.134Z" fill="#FABFD6"/>
<path d="M237.647 204.75H269.889V205.346H237.647V204.75Z" fill="#FABFD6"/>
<path d="M237.647 208.367H269.889V208.963H237.647V208.367Z" fill="#FABFD6"/>
<path d="M237.647 211.983H269.889V212.579H237.647V211.983Z" fill="#FABFD6"/>
<path d="M237.647 215.599H269.889V216.195H237.647V215.599Z" fill="#FABFD6"/>
<path d="M237.647 219.215H269.889V219.811H237.647V219.215Z" fill="#FABFD6"/>
<path d="M237.647 226.447H269.889V227.043H237.647V226.447Z" fill="#FABFD6"/>
<path d="M237.647 222.831H269.889V223.427H237.647V222.831Z" fill="#FABFD6"/>
<path d="M237.647 230.062H269.889V230.658H237.647V230.062Z" fill="#FABFD6"/>
<path d="M204.432 167.194L212.094 233.976H250.156L257.818 167.194H204.432Z" fill="white"/>
<path d="M204.432 167.193L212.095 233.976H220.387L213.017 169.748H257.526L257.819 167.193H204.432Z" fill="#E0F1F0"/>
<path d="M200.299 167.194H261.951L261.462 164.463C261.253 163.297 260.24 162.447 259.056 162.447H257.999L257.223 159.483C256.679 157.401 254.8 155.95 252.652 155.95H209.598C207.45 155.95 205.572 157.401 205.027 159.483L204.252 162.447H203.194C202.01 162.447 200.997 163.297 200.789 164.463L200.299 167.194Z" fill="#573240"/>
<path d="M250.156 233.976H212.094" stroke="#573240" stroke-width="5" stroke-miterlimit="10" stroke-linecap="round"/>
<path d="M232.579 208.847C225.983 208.847 220.636 203.129 220.636 196.075C220.636 189.022 225.983 183.304 232.579 183.304C239.175 183.304 244.521 189.022 244.521 196.075C244.521 203.129 239.175 208.847 232.579 208.847Z" fill="#A9D8D5"/>
<path d="M230.715 192.446L234.986 199.016C235.211 199.363 235.711 199.385 235.966 199.059C237.04 197.691 237.068 195.525 235.906 193.738C234.744 191.95 232.756 191.1 231.072 191.53C230.671 191.633 230.489 192.099 230.715 192.446Z" fill="#573240"/>
<path d="M229.15 198.144C230.3 199.914 232.261 200.764 233.934 200.365C234.338 200.268 234.524 199.797 234.297 199.447L230.042 192.903C229.815 192.553 229.31 192.533 229.058 192.864C228.016 194.235 227.999 196.375 229.15 198.144Z" fill="#573240"/>
</svg>
