<svg width="8" height="12" viewBox="0 0 8 12" fill="none" xmlns="http://www.w3.org/2000/svg">
<path d="M3.75 0C1.67888 0 0 1.67888 0 3.75C0 7.5 3.75 12 3.75 12C3.75 12 7.5 7.5 7.5 3.75C7.5 1.67888 5.82113 0 3.75 0ZM3.75 6.04688C2.48137 6.04688 1.45312 5.01862 1.45312 3.75C1.45312 2.48137 2.48137 1.45312 3.75 1.45312C5.01862 1.45312 6.04688 2.48137 6.04688 3.75C6.04688 5.01862 5.01862 6.04688 3.75 6.04688ZM2.29688 3.75C2.29688 2.9475 2.9475 2.29688 3.75 2.29688C4.5525 2.29688 5.20312 2.9475 5.20312 3.75C5.20312 4.5525 4.5525 5.20312 3.75 5.20312C2.9475 5.20312 2.29688 4.5525 2.29688 3.75Z" fill="#F0941F"/>
</svg>
