<svg width="16" height="24" viewBox="0 0 16 24" fill="none" xmlns="http://www.w3.org/2000/svg">
<path d="M8 0C3.85775 0 0.5 3.35775 0.5 7.5C0.5 15 8 24 8 24C8 24 15.5 15 15.5 7.5C15.5 3.35775 12.1423 0 8 0ZM8 12.0938C5.46275 12.0938 3.40625 10.0372 3.40625 7.5C3.40625 4.96275 5.46275 2.90625 8 2.90625C10.5372 2.90625 12.5938 4.96275 12.5938 7.5C12.5938 10.0372 10.5372 12.0938 8 12.0938ZM5.09375 7.5C5.09375 5.895 6.395 4.59375 8 4.59375C9.605 4.59375 10.9062 5.895 10.9062 7.5C10.9062 9.105 9.605 10.4062 8 10.4062C6.395 10.4062 5.09375 9.105 5.09375 7.5Z" fill="black"/>
</svg>
