<svg width="32" height="23" viewBox="0 0 32 23" fill="none" xmlns="http://www.w3.org/2000/svg">
<path d="M15.5413 3.79172C14.3884 3.02816 13.0276 2.61127 11.6382 2.61127C7.73511 2.61127 4.56889 5.77838 4.56889 9.66727C4.56889 13.5704 7.736 16.7366 11.6382 16.7366C13.0276 16.7366 14.3884 16.3197 15.5413 15.5562C11.8187 12.5286 11.8471 6.81927 15.5413 3.79172ZM16 4.12505C12.4169 6.94461 12.4027 12.4166 16 15.2219C19.5973 12.4166 19.5831 6.94461 16 4.12505ZM16.4587 3.79172C20.1396 6.81927 20.1947 12.5419 16.4587 15.5553C17.6116 16.3188 18.9867 16.7357 20.3618 16.7357C24.2649 16.7357 27.4311 13.5686 27.4311 9.66639C27.4311 5.7775 24.264 2.61039 20.3618 2.61039C18.9724 2.61039 17.6116 3.02816 16.4587 3.79172ZM26.7502 13.8193H26.8471V13.7775H26.6107V13.8193H26.7076V14.0557H26.7493L26.7502 13.8193ZM27.1529 14.0557H27.2089V13.7775H27.1396L27.056 13.9579L26.9724 13.7775H26.9031V14.0557H26.9449V13.8477L27.0284 14.0282H27.0844L27.1538 13.8477L27.1529 14.0557ZM27.0418 20.1668V20.1944H26.9724V20.1526H27.0418V20.1668ZM27.0418 20.2922H27.0836L27.0276 20.2228C27.0551 20.2228 27.0551 20.2086 27.0693 20.2086C27.0836 20.1944 27.0836 20.1811 27.0836 20.1668C27.0836 20.1526 27.0836 20.1393 27.0693 20.1251C27.0551 20.1251 27.0418 20.1108 27.0133 20.1108H26.9298V20.2913H26.9716V20.2219H26.9858L27.0418 20.2922ZM9.51378 19.3473C9.51378 19.0139 9.72178 18.7499 10.0836 18.7499C10.4169 18.7499 10.6391 19.0139 10.6391 19.3473C10.6391 19.6948 10.4169 19.9446 10.0836 19.9446C9.72267 19.9446 9.51378 19.6806 9.51378 19.3473ZM16.0836 18.7366C16.3476 18.7366 16.528 18.8895 16.5698 19.1811H15.5973C15.6391 18.9171 15.8053 18.7366 16.0836 18.7366ZM21.0276 19.3473C21.0276 19.0139 21.2356 18.7499 21.5831 18.7499C21.9307 18.7499 22.1529 19.0139 22.1529 19.3473C22.1529 19.6948 21.9307 19.9446 21.5831 19.9446C21.2356 19.9446 21.0276 19.6806 21.0276 19.3473ZM24.8053 19.3473C24.8053 19.0139 25.0276 18.7499 25.3751 18.7499C25.7084 18.7499 25.9449 19.0139 25.9449 19.3473C25.9449 19.6948 25.7084 19.9446 25.3751 19.9446C25.0276 19.9446 24.8053 19.6806 24.8053 19.3473ZM27 20.3473C26.9858 20.3473 26.9724 20.3473 26.944 20.3331C26.9298 20.3331 26.9164 20.3188 26.9022 20.3055C26.888 20.2922 26.8747 20.2779 26.8747 20.2637C26.8747 20.2495 26.8604 20.2219 26.8604 20.2077C26.8604 20.1935 26.8604 20.1659 26.8747 20.1517C26.8747 20.1242 26.8889 20.1099 26.9022 20.0957C26.9156 20.0815 26.9298 20.0815 26.944 20.0682C26.9582 20.0548 26.9858 20.0539 27 20.0539C27.0142 20.0539 27.0418 20.0539 27.056 20.0682C27.0702 20.0824 27.0978 20.0824 27.112 20.0957C27.1262 20.1091 27.1262 20.1233 27.1396 20.1517C27.1396 20.1659 27.1538 20.1793 27.1538 20.2077C27.1538 20.2219 27.1396 20.2353 27.1396 20.2637C27.1253 20.2779 27.1253 20.2913 27.112 20.3055C27.0987 20.3197 27.0844 20.3331 27.056 20.3331C27.0418 20.3473 27.0284 20.3473 27 20.3473ZM8.31911 20.2922H8.736V19.1117C8.736 18.6673 8.44444 18.3757 7.98578 18.3615C7.74933 18.3615 7.49956 18.4308 7.33333 18.6948C7.208 18.4868 7 18.3615 6.70844 18.3615C6.51378 18.3615 6.31911 18.4308 6.16711 18.6397V18.4175H5.75022V20.2922H6.16711V19.2504C6.16711 18.9171 6.34756 18.7508 6.62578 18.7508C6.904 18.7508 7.04267 18.9313 7.04267 19.2504V20.2922H7.44533V19.2504C7.44533 18.9171 7.64 18.7508 7.904 18.7508C8.18222 18.7508 8.32089 18.9313 8.32089 19.2504V20.2922H8.31911ZM10.6249 20.2922H11.0276V18.4175H10.6249V18.6397C10.4862 18.4735 10.2916 18.3615 10.0276 18.3615C9.49956 18.3615 9.09689 18.7784 9.09689 19.3473C9.09689 19.9162 9.49956 20.3331 10.0276 20.3331C10.2916 20.3331 10.4862 20.2362 10.6249 20.0548V20.2913V20.2922ZM13.0969 19.7224C13.0969 19.3891 12.8471 19.2228 12.4444 19.1668L12.2498 19.1393C12.0693 19.1117 11.9307 19.0699 11.9307 18.9446C11.9307 18.8193 12.056 18.7366 12.2782 18.7366C12.528 18.7366 12.7502 18.8202 12.8756 18.8895L13.0418 18.5562C12.8471 18.4308 12.5831 18.3615 12.2782 18.3615C11.8062 18.3615 11.5004 18.5979 11.5004 18.9731C11.5004 19.2788 11.7227 19.4593 12.1529 19.5144L12.3333 19.5419C12.5698 19.5837 12.6667 19.6388 12.6667 19.7366C12.6667 19.8895 12.5138 19.9731 12.2364 19.9731C11.9591 19.9731 11.7502 19.8762 11.6116 19.7784L11.4311 20.0975C11.6533 20.2504 11.9307 20.3339 12.2364 20.3339C12.7778 20.3339 13.0969 20.0842 13.0969 19.7224ZM14.9031 20.1944L14.792 19.8468C14.6667 19.9162 14.5422 19.9437 14.4311 19.9437C14.2231 19.9437 14.1671 19.8184 14.1671 19.6379V18.7908H14.8338V18.4157H14.1671V17.8459H13.7502V18.4157H13.3609V18.7908H13.7502V19.6379C13.7502 20.0682 13.9164 20.3322 14.4027 20.3322C14.5689 20.3322 14.7778 20.2762 14.9022 20.1935L14.9031 20.1944ZM16.0969 18.3615C15.5556 18.3615 15.1662 18.7642 15.1662 19.3473C15.1662 19.9446 15.5689 20.3331 16.1244 20.3331C16.4027 20.3331 16.6658 20.2637 16.888 20.0691L16.6933 19.7633C16.5404 19.8886 16.3324 19.9713 16.152 19.9713C15.888 19.9713 15.6524 19.8459 15.5822 19.5126H16.9849V19.3464C16.9849 18.7633 16.624 18.3606 16.096 18.3606L16.0969 18.3615ZM18.3058 18.3615C18.0693 18.3615 17.9164 18.4726 17.8196 18.6397V18.4175H17.4027V20.2922H17.8196V19.2362C17.8196 18.9304 17.9449 18.7499 18.2222 18.7499C18.3058 18.7499 18.3884 18.7642 18.472 18.8059L18.5973 18.4166C18.5004 18.3748 18.3893 18.3615 18.3058 18.3615ZM18.7227 19.3473C18.7227 19.9171 19.112 20.3331 19.7227 20.3331C20.0009 20.3331 20.1947 20.2771 20.3893 20.1108L20.1947 19.7775C20.0418 19.8886 19.8889 19.9579 19.7084 19.9437C19.3751 19.9437 19.1387 19.7073 19.1387 19.3464C19.1387 18.9855 19.3751 18.7491 19.7084 18.7491C19.8889 18.7491 20.0418 18.8051 20.1947 18.9153L20.3893 18.5819C20.1947 18.4291 20 18.3597 19.7227 18.3597C19.1111 18.3597 18.7227 18.7766 18.7227 19.3455V19.3473ZM22.1253 20.2922H22.5422V18.4175H22.1253V18.6397C22 18.4735 21.8062 18.3615 21.5422 18.3615C21.0142 18.3615 20.5982 18.7784 20.5982 19.3473C20.5982 19.9162 21.0151 20.3331 21.5422 20.3331C21.8062 20.3331 22.0009 20.2362 22.1253 20.0548V20.2913V20.2922ZM23.9724 18.3615C23.736 18.3615 23.5831 18.4726 23.4862 18.6397V18.4175H23.0836V20.2922H23.4862V19.2362C23.4862 18.9304 23.6249 18.7499 23.8889 18.7499C23.9724 18.7499 24.0551 18.7642 24.1387 18.8059L24.264 18.4166C24.1804 18.3748 24.056 18.3615 23.9724 18.3615ZM25.9164 20.2922H26.3191V17.6531H25.9164V18.6388C25.7911 18.4726 25.5973 18.3606 25.3191 18.3606C24.8053 18.3606 24.3884 18.7775 24.3884 19.3464C24.3884 19.9153 24.8053 20.3322 25.3191 20.3322C25.5973 20.3322 25.7911 20.2353 25.9164 20.0539V20.2904V20.2922ZM27 20.0139C26.9858 20.0139 26.9582 20.0282 26.9307 20.0282C26.9031 20.0424 26.8889 20.0557 26.8747 20.0699C26.8471 20.0842 26.8329 20.1117 26.8329 20.1259C26.8187 20.1535 26.8187 20.1819 26.8187 20.2095C26.8187 20.2237 26.8187 20.2513 26.8329 20.2788C26.8329 20.2931 26.8471 20.3206 26.8747 20.3348C26.8889 20.3491 26.9022 20.3624 26.9307 20.3766C26.9591 20.3908 26.9867 20.3908 27 20.3908C27.0276 20.3908 27.056 20.3908 27.0836 20.3766C27.0978 20.3624 27.1253 20.3491 27.1396 20.3348C27.1538 20.3206 27.1671 20.2931 27.1813 20.2788C27.1956 20.2513 27.1956 20.2228 27.1956 20.2095C27.1956 20.1819 27.1956 20.1535 27.1813 20.1259C27.1671 20.1117 27.1538 20.0842 27.1396 20.0699C27.1253 20.0557 27.0978 20.0424 27.0836 20.0282C27.056 20.0282 27.0276 20.0139 27 20.0139ZM32 2.61127V20.3891C32 21.3615 31.1947 22.1668 30.2222 22.1668H1.77778C0.805333 22.1668 0 21.3615 0 20.3891V2.61127C0 1.63883 0.805333 0.833496 1.77778 0.833496H30.2222C31.1947 0.833496 32 1.63883 32 2.61127Z" fill="#1B558B"/>
</svg>
