<svg width="264" height="198" viewBox="0 0 264 198" fill="none" xmlns="http://www.w3.org/2000/svg">
<g clip-path="url(#clip0_528_4120)">
<path d="M82.0827 20.3309C82.0827 21.8482 80.7172 24.1241 79.3517 25.1861C76.9241 27.0068 76.9241 27.0068 80.1103 26.2482C82.8414 25.6413 83.4483 26.0965 83.6 28.9792L83.7517 32.6206L84.8138 28.8275C85.4207 26.7034 85.4207 24.7309 84.8138 24.2758C84.2069 23.8206 83.4483 22.1516 82.9931 20.4827C82.3862 17.7516 82.2345 17.5999 82.0827 20.3309Z" fill="#F0941F"/>
<path d="M174.938 35.807C174.483 37.0208 174.786 38.8414 175.697 39.7518C176.91 40.9656 177.062 40.5104 176.455 38.2345C175.848 35.807 176.607 35.0483 179.338 34.4414L182.828 33.8345L179.338 33.5311C177.517 33.5311 175.545 34.4414 174.938 35.807Z" fill="#F0941F"/>
<path d="M108.179 41.876C107.724 43.0898 108.483 45.2139 109.848 46.4277C111.214 47.6415 111.517 47.7932 110.759 46.7312C108.179 43.545 108.938 40.5105 112.276 41.4208C113.945 41.876 115.007 41.5725 114.4 40.8139C113.034 38.5381 109.241 39.2967 108.179 41.876Z" fill="#F0941F"/>
<path d="M129.421 57.2001C131.697 57.5036 135.035 57.5036 137.007 57.2001C138.828 56.8967 137.007 56.5933 132.759 56.5933C128.662 56.5933 126.993 56.8967 129.421 57.2001Z" fill="#F0941F"/>
<path d="M145.655 60.538C151.724 63.7242 154.759 67.0621 158.248 73.5862C159.614 76.0138 160.676 77.3793 160.828 76.469C160.979 71.4621 147.021 57.5035 142.014 57.6552C141.103 57.8069 142.772 59.0207 145.655 60.538Z" fill="#F0941F"/>
<path d="M115.159 61.7518C113.186 64.3311 113.186 64.3311 116.069 62.207C117.738 60.9932 119.407 59.7794 119.71 59.6277C120.014 59.3242 119.71 59.1725 118.8 59.1725C117.89 59.1725 116.221 60.3863 115.159 61.7518Z" fill="#F0941F"/>
<path d="M36.5655 63.2689C36.4138 65.393 35.2 66.7585 33.0759 67.2137C29.5862 67.8206 29.5862 67.8206 32.9241 68.1241C35.0483 68.2758 36.4138 69.4896 36.869 71.6137C37.4759 75.1034 37.4759 75.1034 37.7793 71.7654C37.7793 69.9448 39.1448 68.1241 40.6621 67.8206C42.9379 67.2137 42.9379 67.062 40.6621 66.9103C39.2965 66.9103 37.7793 65.2413 37.4759 63.2689C36.869 59.931 36.869 59.931 36.5655 63.2689Z" fill="#F0941F"/>
<path d="M108.483 67.6689C107.117 69.9448 106.662 71.1586 107.572 70.7034C109.241 69.6413 112.883 63.7241 111.821 63.7241C111.366 63.7241 110 65.5448 108.483 67.6689Z" fill="#F0941F"/>
<path d="M129.421 67.8208C130.786 68.1242 133.214 68.1242 134.731 67.8208C136.097 67.3656 134.883 67.0621 132 67.0621C129.117 67.0621 127.903 67.3656 129.421 67.8208Z" fill="#F0941F"/>
<path d="M141.862 70.0966C147.172 72.9794 152.028 77.9863 154.152 82.6897C155.517 85.8759 156.124 86.3311 156.276 84.3587C156.276 81.1725 143.986 68.2759 140.952 68.2759C139.738 68.2759 140.041 69.0345 141.862 70.0966Z" fill="#F0941F"/>
<path d="M114.248 74.6482C112.579 76.6206 110.607 79.1999 110 80.4137C108.786 82.8413 109.09 82.5379 115.159 75.4068C117.283 73.131 118.497 71.3103 118.041 71.3103C117.738 71.3103 115.917 72.8275 114.248 74.6482Z" fill="#F0941F"/>
<path d="M104.083 75.1035C102.717 79.0484 103.021 79.9587 104.841 76.9242C105.752 75.407 106.207 73.738 105.752 73.4346C105.448 72.9794 104.69 73.738 104.083 75.1035Z" fill="#F0941F"/>
<path d="M217.572 79.6553C216.966 80.8691 215.6 81.9312 214.538 81.9312C210.745 81.9312 215.448 85.7243 219.545 85.876C222.883 86.1794 222.883 86.0277 220.607 84.207C219.09 83.145 218.331 81.3243 218.938 79.807C219.545 78.4415 219.545 77.3794 219.09 77.3794C218.786 77.3794 218.028 78.4415 217.572 79.6553Z" fill="#F0941F"/>
<path d="M161.131 81.931C161.131 84.0551 161.434 84.8137 161.89 83.7517C162.193 82.8413 162.193 81.0206 161.89 79.9586C161.434 79.0482 161.131 79.8068 161.131 81.931Z" fill="#F0941F"/>
<path d="M101.655 83.9034C101.655 85.5724 99.9862 86.4828 96.0414 86.7862C93.0069 87.0897 90.2759 88.1517 90.1242 89.2138C89.9724 90.2759 90.1242 90.4276 90.5793 89.5172C90.8828 88.7586 93.6138 88 96.4966 88C101.503 88 104.993 84.8138 102.566 82.3862C102.11 81.7793 101.655 82.5379 101.655 83.9034Z" fill="#F0941F"/>
<path d="M110.607 86.9381C111.214 87.545 121.228 87.8484 132.91 87.6967L154 87.2415L131.697 86.4829C119.407 86.0277 109.848 86.3312 110.607 86.9381Z" fill="#F0941F"/>
<path d="M166.593 87.5449C168.414 87.8483 171.145 87.8483 172.662 87.5449C174.028 87.0897 172.51 86.7863 169.172 86.938C165.834 86.938 164.621 87.2414 166.593 87.5449Z" fill="#F0941F"/>
<path d="M174.786 96.3448C174.786 98.7724 175.09 99.6827 175.545 98.1655C175.848 96.7999 175.848 94.6758 175.545 93.6137C175.09 92.7034 174.786 93.7655 174.786 96.3448Z" fill="#F0941F"/>
<path d="M18.0552 96.6484C16.3862 98.9243 16.3862 99.076 18.2069 97.407C21.2414 94.8277 25.3379 95.1312 27.1586 98.1657C28.0689 99.6829 28.8276 100.138 28.8276 99.2277C28.9793 94.3726 21.2414 92.4002 18.0552 96.6484Z" fill="#F0941F"/>
<path d="M88.3035 102.414C88.3035 104.841 88.6069 105.752 89.0621 104.235C89.3655 102.869 89.3655 100.745 89.0621 99.6828C88.6069 98.7725 88.3035 99.8346 88.3035 102.414Z" fill="#F0941F"/>
<path d="M22.7586 106.207C21.5448 106.966 21.2414 107.724 22 107.724C22.9104 107.724 24.5793 106.966 25.7931 106.207C27.0069 105.448 27.4621 104.69 26.5517 104.69C25.7931 104.69 23.9724 105.448 22.7586 106.207Z" fill="#F0941F"/>
<path d="M176.455 114.552C176.455 117.89 176.759 119.103 177.062 117.131C177.366 115.31 177.366 112.579 177.062 111.062C176.607 109.697 176.303 111.214 176.455 114.552Z" fill="#F0941F"/>
<path d="M85.7242 123.048C85.1173 123.959 85.1173 125.021 85.5724 125.476C86.0276 126.083 86.4828 125.628 86.4828 124.566C86.4828 123.352 87.6966 122.897 89.5173 123.352C91.1862 123.807 92.2483 123.504 91.6414 122.745C90.5793 120.924 86.938 121.076 85.7242 123.048Z" fill="#F0941F"/>
<path d="M177.972 131.241C177.972 134.579 178.276 135.793 178.579 133.821C178.883 132 178.883 129.269 178.579 127.752C178.124 126.386 177.821 127.904 177.972 131.241Z" fill="#F0941F"/>
<path d="M117.738 130.028C116.069 131.697 116.828 133.517 119.103 133.517C120.317 133.517 121.379 132.91 121.379 132.152C121.379 130.179 118.952 128.814 117.738 130.028Z" fill="#F0941F"/>
<path d="M148.234 130.028C146.414 131.697 147.021 133.517 149.448 133.517C150.662 133.517 151.724 132.455 151.724 131.241C151.724 128.814 149.903 128.207 148.234 130.028Z" fill="#F0941F"/>
<path d="M8.64825 135.945C5.76549 138.828 11.6827 139.586 35.8069 139.586C58.262 139.586 62.2069 139.283 62.2069 137.31C62.2069 135.338 58.262 135.034 35.9586 135.034C21.3931 135.034 9.10342 135.49 8.64825 135.945Z" fill="#F0941F"/>
<path d="M203.614 137.614C204.069 140.041 206.8 140.345 229.71 140.8C248.828 141.103 255.655 140.648 256.566 139.283C257.172 138.221 257.324 136.855 257.021 136.248C256.566 135.641 244.276 135.035 229.71 135.035C205.131 135.035 203.159 135.186 203.614 137.614Z" fill="#F0941F"/>
<path d="M128.055 144.897C124.869 147.324 125.172 147.324 134.276 147.779C137.614 147.931 141.559 148.69 143.076 149.297C144.897 150.207 145.655 149.903 145.655 148.386C145.655 145.807 139.434 142.621 134.428 142.621C132.607 142.621 129.724 143.683 128.055 144.897Z" fill="#F0941F"/>
<path d="M179.338 147.172C179.338 150.055 179.641 151.269 180.097 149.752C180.4 148.386 180.4 145.959 180.097 144.441C179.641 143.076 179.338 144.29 179.338 147.172Z" fill="#F0941F"/>
<path d="M83.7517 154C83.7517 156.428 84.0552 157.338 84.5103 155.821C84.8138 154.455 84.8138 152.331 84.5103 151.269C84.0552 150.359 83.7517 151.421 83.7517 154Z" fill="#F0941F"/>
<path d="M37.4759 154.152C35.3517 156.276 36.5655 157.793 40.3586 157.793C42.7862 157.793 44 157.035 43.6966 155.821C42.9379 153.697 38.9931 152.635 37.4759 154.152Z" fill="#F0941F"/>
<path d="M52.6483 154.304C49.7655 157.035 52.8 157.793 66 157.793C79.3517 157.793 83.9034 156.428 77.9862 154.152C74.8 152.938 53.8621 152.938 52.6483 154.304Z" fill="#F0941F"/>
<path d="M3.03448 157.641C3.03448 159.31 3.64138 160.979 4.4 161.435C5.0069 161.89 5.31035 160.524 4.85517 158.552C4.09655 154 3.03448 153.545 3.03448 157.641Z" fill="#F0941F"/>
<path d="M185.862 156.276C185.407 157.035 185.862 158.248 187.076 158.703C190.717 160.069 213.172 158.703 212.869 157.035C212.262 154.91 187.076 154.152 185.862 156.276Z" fill="#F0941F"/>
<path d="M221.517 157.034C221.517 158.4 222.883 159.31 225.31 159.31C227.738 159.31 229.103 158.4 229.103 157.034C229.103 155.669 227.738 154.759 225.31 154.759C222.883 154.759 221.517 155.669 221.517 157.034Z" fill="#F0941F"/>
<path d="M10.6207 161.738C8.04137 163.103 7.5862 163.862 9.25517 163.862C10.6207 163.862 12.5931 162.8 13.6552 161.586C15.931 158.855 15.6276 158.855 10.6207 161.738Z" fill="#F0941F"/>
<path d="M180.703 162.648L180.552 166.897L131.697 167.352L82.6896 167.655L131.697 168.11C183.89 168.414 183.434 168.414 181.614 161.283C181.159 159.462 180.855 159.917 180.703 162.648Z" fill="#F0941F"/>
<path d="M0 177.517C0 178.276 1.06207 179.034 2.27586 179.034C3.48966 179.034 4.55172 178.276 4.55172 177.517C4.55172 176.607 3.48966 176 2.27586 176C1.06207 176 0 176.607 0 177.517Z" fill="#F0941F"/>
<path d="M18.2069 177.517C18.2069 178.428 23.5173 179.034 31.1035 179.034C38.6897 179.034 44 178.428 44 177.517C44 176.607 38.6897 176 31.1035 176C23.5173 176 18.2069 176.607 18.2069 177.517Z" fill="#F0941F"/>
<path d="M221.821 177.821C222.276 179.186 226.221 179.793 234.869 179.793C251.71 179.793 251.103 176.91 234.262 176.304C224.097 176 221.366 176.304 221.821 177.821Z" fill="#F0941F"/>
<path d="M260.966 178.276C260.966 179.49 261.724 180.552 262.483 180.552C263.393 180.552 264 179.49 264 178.276C264 177.062 263.393 176 262.483 176C261.724 176 260.966 177.062 260.966 178.276Z" fill="#F0941F"/>
</g>
<defs>
<clipPath id="clip0_528_4120">
<rect width="264" height="197.241" fill="white"/>
</clipPath>
</defs>
</svg>
