<svg width="319" height="234" viewBox="0 0 319 234" fill="none" xmlns="http://www.w3.org/2000/svg">
<path d="M152.857 233.02C205.416 233.02 248.022 226.446 248.022 218.337C248.022 210.228 205.416 203.654 152.857 203.654C100.299 203.654 57.6926 210.228 57.6926 218.337C57.6926 226.446 100.299 233.02 152.857 233.02Z" fill="#FFC1EB"/>
<path d="M96.0758 188.77L95.5797 189.841C95.2659 190.518 95.5605 191.322 96.2378 191.636L121.912 203.532C122.59 203.845 123.393 203.551 123.707 202.873L124.203 201.803C124.517 201.125 124.222 200.322 123.545 200.008L97.8704 188.112C97.1931 187.798 96.3897 188.093 96.0758 188.77Z" fill="black"/>
<path d="M96.6178 179.934L109.394 183.296L126.653 191.295L123.707 197.656C123.437 198.237 122.947 198.688 122.345 198.908C121.743 199.129 121.078 199.102 120.496 198.833L97.7778 188.309L96.6178 179.934Z" fill="white"/>
<path d="M121.508 199.724C121.061 199.724 120.619 199.627 120.214 199.438L97.1622 188.763L95.8173 179.012L109.683 182.674L127.547 190.982L124.316 197.955C124.064 198.486 123.666 198.935 123.169 199.248C122.672 199.561 122.096 199.726 121.508 199.724ZM98.3961 187.852L120.779 198.224C120.987 198.323 121.214 198.378 121.444 198.389C121.675 198.399 121.905 198.363 122.122 198.284C122.339 198.204 122.537 198.083 122.707 197.926C122.876 197.769 123.013 197.58 123.109 197.37L125.775 191.617L109.165 183.921L97.4211 180.831L98.3961 187.852Z" fill="black"/>
<path d="M99.5726 193.174L85.041 186.45C84.5066 186.202 84.0925 185.752 83.8895 185.199C83.6865 184.646 83.7112 184.036 83.9583 183.501C84.9754 181.308 86.8218 179.608 89.0915 178.776C91.3613 177.944 93.8687 178.047 96.0624 179.063C97.1487 179.566 98.1252 180.278 98.9361 181.159C99.7471 182.04 100.377 183.071 100.789 184.195C101.201 185.319 101.388 186.514 101.338 187.71C101.289 188.906 101.004 190.081 100.501 191.167L99.5726 193.174Z" fill="black"/>
<path d="M213.946 51.412L206.492 51.8659C203.086 52.0728 199.738 50.9185 197.183 48.6568C194.628 46.3952 193.076 43.2113 192.868 39.8055L192.448 32.876C192.357 31.3768 192.562 29.8745 193.052 28.4547C193.542 27.0349 194.307 25.7256 195.303 24.6015C196.299 23.4774 197.507 22.5606 198.857 21.9035C200.208 21.2464 201.675 20.8619 203.174 20.7719L208.984 20.4189C213.188 20.1669 217.32 21.5941 220.472 24.387C223.624 27.1799 225.539 31.1099 225.795 35.3136L225.95 37.8689C226.154 41.2565 225.004 44.5865 222.753 47.1263C220.502 49.6661 217.334 51.2077 213.946 51.412Z" fill="black"/>
<path d="M86.6716 219.225C86.5114 219.227 86.3556 219.172 86.2324 219.07C86.1091 218.968 86.0264 218.825 85.9992 218.667L67.9675 115.106L40.4644 218.613C40.4145 218.779 40.302 218.92 40.1505 219.006C39.999 219.091 39.8203 219.115 39.6519 219.071C39.4835 219.028 39.3385 218.921 39.2474 218.772C39.1563 218.624 39.1261 218.447 39.1632 218.277L68.2365 108.839L87.334 218.448C87.3644 218.622 87.3251 218.801 87.2244 218.947C87.1237 219.092 86.9698 219.192 86.796 219.225C86.7546 219.229 86.713 219.229 86.6716 219.225Z" fill="black"/>
<path d="M191.409 102.612H55.2487C53.6165 102.612 52.2933 103.935 52.2933 105.567V109.017C52.2933 110.649 53.6165 111.973 55.2487 111.973H191.409C193.042 111.973 194.365 110.649 194.365 109.017V105.567C194.365 103.935 193.042 102.612 191.409 102.612Z" fill="black"/>
<path d="M182.025 5.09717H157.871C154.363 5.09717 151.52 7.94073 151.52 11.4484C151.52 14.9561 154.363 17.7997 157.871 17.7997H182.025C185.533 17.7997 188.376 14.9561 188.376 11.4484C188.376 7.94073 185.533 5.09717 182.025 5.09717Z" fill="white"/>
<path d="M182.028 18.4686H157.871C156.936 18.4891 156.006 18.3226 155.136 17.9789C154.266 17.6352 153.474 17.1212 152.805 16.4671C152.137 15.813 151.605 15.032 151.243 14.1699C150.88 13.3078 150.693 12.3819 150.693 11.4466C150.693 10.5113 150.88 9.58539 151.243 8.72325C151.605 7.86112 152.137 7.0801 152.805 6.42602C153.474 5.77194 154.266 5.25796 155.136 4.91427C156.006 4.57057 156.936 4.40407 157.871 4.42453H182.028C182.964 4.40407 183.893 4.57057 184.763 4.91427C185.633 5.25796 186.425 5.77194 187.094 6.42602C187.763 7.0801 188.294 7.86112 188.656 8.72325C189.019 9.58539 189.206 10.5113 189.206 11.4466C189.206 12.3819 189.019 13.3078 188.656 14.1699C188.294 15.032 187.763 15.813 187.094 16.4671C186.425 17.1212 185.633 17.6352 184.763 17.9789C183.893 18.3226 182.964 18.4891 182.028 18.4686ZM157.871 5.76943C157.114 5.751 156.36 5.88422 155.655 6.16124C154.951 6.43826 154.308 6.85348 153.766 7.38248C153.224 7.91147 152.793 8.54355 152.499 9.2415C152.205 9.93946 152.054 10.6892 152.054 11.4466C152.054 12.204 152.205 12.9537 152.499 13.6516C152.793 14.3496 153.224 14.9817 153.766 15.5107C154.308 16.0397 154.951 16.4549 155.655 16.7319C156.36 17.0089 157.114 17.1421 157.871 17.1237H182.028C182.786 17.1421 183.539 17.0089 184.244 16.7319C184.949 16.4549 185.591 16.0397 186.133 15.5107C186.675 14.9817 187.106 14.3496 187.4 13.6516C187.694 12.9537 187.845 12.204 187.845 11.4466C187.845 10.6892 187.694 9.93946 187.4 9.2415C187.106 8.54355 186.675 7.91147 186.133 7.38248C185.591 6.85348 184.949 6.43826 184.244 6.16124C183.539 5.88422 182.786 5.751 182.028 5.76943H157.871Z" fill="black"/>
<path d="M162.006 14.5079L160.285 13.6001C160.259 13.5869 160.231 13.5799 160.202 13.5799C160.174 13.5799 160.145 13.5869 160.12 13.6001L158.399 14.5079C158.369 14.5226 158.336 14.5289 158.304 14.5261C158.271 14.5233 158.24 14.5115 158.213 14.492C158.187 14.4725 158.166 14.4461 158.154 14.4157C158.141 14.3853 158.138 14.352 158.143 14.3196L158.479 12.4032C158.483 12.3744 158.481 12.3452 158.471 12.3177C158.462 12.2903 158.446 12.2654 158.425 12.2451L157.033 10.9002C157.01 10.8775 156.993 10.8485 156.985 10.8166C156.977 10.7848 156.978 10.7513 156.988 10.7201C156.999 10.6888 157.017 10.6611 157.043 10.64C157.068 10.619 157.098 10.6054 157.131 10.601L159.058 10.3186C159.086 10.3151 159.112 10.3047 159.135 10.2883C159.158 10.2718 159.176 10.2499 159.189 10.2244L160.053 8.47943C160.067 8.4495 160.089 8.42421 160.117 8.4065C160.145 8.38879 160.178 8.37939 160.211 8.37939C160.244 8.37939 160.276 8.38879 160.304 8.4065C160.332 8.42421 160.355 8.4495 160.369 8.47943L161.23 10.2244C161.243 10.2499 161.262 10.2719 161.285 10.2883C161.309 10.3047 161.336 10.3151 161.364 10.3186L163.287 10.601C163.32 10.6054 163.35 10.619 163.376 10.64C163.401 10.6611 163.42 10.6888 163.43 10.7201C163.44 10.7513 163.441 10.7848 163.433 10.8166C163.425 10.8485 163.408 10.8775 163.385 10.9002L161.993 12.2451C161.972 12.2656 161.957 12.2906 161.948 12.3181C161.94 12.3455 161.938 12.3747 161.942 12.4032L162.279 14.3196C162.287 14.3544 162.284 14.3907 162.271 14.424C162.258 14.4572 162.236 14.4858 162.206 14.5061C162.177 14.5264 162.142 14.5374 162.107 14.5377C162.071 14.538 162.036 14.5277 162.006 14.5079Z" fill="#F0941F"/>
<path d="M171.753 14.508L170.032 13.6002C170.007 13.587 169.978 13.58 169.95 13.58C169.921 13.58 169.893 13.587 169.867 13.6002L168.146 14.508C168.116 14.5236 168.083 14.5306 168.05 14.5283C168.016 14.5259 167.985 14.5143 167.958 14.4946C167.931 14.475 167.91 14.4482 167.897 14.4173C167.885 14.3864 167.881 14.3526 167.887 14.3197L168.223 12.4033C168.228 12.3748 168.227 12.3455 168.218 12.3179C168.209 12.2903 168.194 12.2653 168.173 12.2452L166.781 10.9003C166.757 10.8776 166.74 10.8486 166.732 10.8167C166.724 10.7849 166.725 10.7514 166.736 10.7202C166.746 10.6889 166.765 10.6612 166.79 10.6401C166.815 10.6191 166.846 10.6055 166.878 10.6011L168.805 10.3187C168.833 10.3152 168.859 10.3048 168.882 10.2884C168.905 10.2719 168.924 10.25 168.936 10.2245L169.797 8.47952C169.811 8.44975 169.834 8.42469 169.862 8.40717C169.891 8.38965 169.923 8.38037 169.956 8.38037C169.99 8.38037 170.022 8.38965 170.05 8.40717C170.079 8.42469 170.101 8.44975 170.116 8.47952L170.977 10.2245C170.989 10.25 171.007 10.2719 171.03 10.2884C171.053 10.3048 171.08 10.3152 171.108 10.3187L173.034 10.6011C173.067 10.6055 173.098 10.6191 173.123 10.6401C173.148 10.6612 173.167 10.6889 173.177 10.7202C173.187 10.7514 173.188 10.7849 173.18 10.8167C173.172 10.8486 173.156 10.8776 173.132 10.9003L171.74 12.2452C171.719 12.2653 171.704 12.2903 171.695 12.3179C171.686 12.3455 171.684 12.3748 171.69 12.4033L172.026 14.3197C172.034 14.3545 172.031 14.3908 172.018 14.4241C172.005 14.4573 171.983 14.4859 171.953 14.5062C171.924 14.5265 171.889 14.5375 171.854 14.5378C171.818 14.5381 171.783 14.5278 171.753 14.508Z" fill="#F0941F"/>
<path d="M181.501 14.5079L179.779 13.6001C179.754 13.5869 179.725 13.5799 179.697 13.5799C179.668 13.5799 179.64 13.5869 179.614 13.6001L177.893 14.5079C177.863 14.5235 177.83 14.5305 177.797 14.5282C177.764 14.5258 177.732 14.5142 177.705 14.4946C177.678 14.4749 177.657 14.4481 177.644 14.4172C177.632 14.3863 177.628 14.3525 177.634 14.3196L177.97 12.4032C177.975 12.3747 177.973 12.3455 177.964 12.3181C177.955 12.2906 177.94 12.2656 177.92 12.2451L176.528 10.9002C176.504 10.8775 176.487 10.8485 176.479 10.8166C176.471 10.7848 176.473 10.7513 176.483 10.7201C176.493 10.6888 176.512 10.6611 176.537 10.64C176.562 10.619 176.593 10.6054 176.625 10.601L178.549 10.3186C178.577 10.3148 178.604 10.3043 178.627 10.2879C178.651 10.2715 178.67 10.2498 178.683 10.2244L179.544 8.47943C179.558 8.4495 179.58 8.42421 179.608 8.4065C179.636 8.38879 179.669 8.37939 179.702 8.37939C179.735 8.37939 179.767 8.38879 179.795 8.4065C179.823 8.42421 179.846 8.4495 179.86 8.47943L180.721 10.2244C180.734 10.2498 180.753 10.2715 180.776 10.2879C180.8 10.3043 180.827 10.3148 180.855 10.3186L182.782 10.601C182.814 10.6054 182.845 10.619 182.87 10.64C182.895 10.6611 182.914 10.6888 182.924 10.7201C182.934 10.7513 182.936 10.7848 182.928 10.8166C182.92 10.8485 182.903 10.8775 182.879 10.9002L181.484 12.2451C181.463 12.2656 181.448 12.2906 181.44 12.3181C181.431 12.3455 181.429 12.3747 181.433 12.4032L181.77 14.3196C181.777 14.3539 181.774 14.3896 181.761 14.4222C181.748 14.4548 181.726 14.4829 181.698 14.503C181.669 14.5231 181.635 14.5343 181.6 14.5351C181.565 14.536 181.53 14.5266 181.501 14.5079Z" fill="#F0941F"/>
<path d="M165.136 24.4233H79.5673C75.9983 24.4233 73.1051 27.3166 73.1051 30.8856V83.7702C73.1051 87.3392 75.9983 90.2325 79.5673 90.2325H165.136C168.705 90.2325 171.599 87.3392 171.599 83.7702V30.8856C171.599 27.3166 168.705 24.4233 165.136 24.4233Z" fill="black"/>
<path d="M160.154 30.1021H84.5503C81.8299 30.1021 79.6246 32.3074 79.6246 35.0277V80.9526C79.6246 83.6729 81.8299 85.8782 84.5503 85.8782H160.154C162.874 85.8782 165.079 83.6729 165.079 80.9526V35.0277C165.079 32.3074 162.874 30.1021 160.154 30.1021Z" fill="white"/>
<path d="M128.317 39.4224H106.859C104.954 39.4224 103.409 40.9668 103.409 42.872V74.857C103.409 76.7622 104.954 78.3067 106.859 78.3067H128.317C130.222 78.3067 131.766 76.7622 131.766 74.857V42.872C131.766 40.9668 130.222 39.4224 128.317 39.4224Z" fill="#6DC8C2"/>
<path d="M95.7298 38.3665H88.1547C87.3581 38.3665 86.7123 39.0122 86.7123 39.8089V47.384C86.7123 48.1806 87.3581 48.8264 88.1547 48.8264H95.7298C96.5264 48.8264 97.1722 48.1806 97.1722 47.384V39.8089C97.1722 39.0122 96.5264 38.3665 95.7298 38.3665Z" fill="#6DC8C2"/>
<path d="M95.4507 53.7454H88.4337C87.483 53.7454 86.7123 54.5161 86.7123 55.4668V62.4838C86.7123 63.4346 87.483 64.2053 88.4337 64.2053H95.4507C96.4015 64.2053 97.1722 63.4346 97.1722 62.4838V55.4668C97.1722 54.5161 96.4015 53.7454 95.4507 53.7454Z" fill="#FFC1EB"/>
<path d="M95.4306 69.1208H88.4539C87.492 69.1208 86.7123 69.9006 86.7123 70.8625V77.8391C86.7123 78.801 87.492 79.5808 88.4539 79.5808H95.4306C96.3924 79.5808 97.1722 78.801 97.1722 77.8391V70.8625C97.1722 69.9006 96.3924 69.1208 95.4306 69.1208Z" fill="#F0941F"/>
<path d="M159.781 40.8547H137.334C137.156 40.8547 136.985 40.7838 136.859 40.6577C136.733 40.5316 136.662 40.3606 136.662 40.1822C136.662 40.0039 136.733 39.8328 136.859 39.7067C136.985 39.5806 137.156 39.5098 137.334 39.5098H159.781C159.959 39.5098 160.13 39.5806 160.256 39.7067C160.382 39.8328 160.453 40.0039 160.453 40.1822C160.453 40.3606 160.382 40.5316 160.256 40.6577C160.13 40.7838 159.959 40.8547 159.781 40.8547Z" fill="black"/>
<path d="M159.781 47.0781H137.334C137.156 47.0781 136.985 47.0072 136.859 46.8811C136.733 46.755 136.662 46.5839 136.662 46.4056C136.662 46.2273 136.733 46.0562 136.859 45.9301C136.985 45.804 137.156 45.7332 137.334 45.7332H159.781C159.959 45.7332 160.13 45.804 160.256 45.9301C160.382 46.0562 160.453 46.2273 160.453 46.4056C160.453 46.5839 160.382 46.755 160.256 46.8811C160.13 47.0072 159.959 47.0781 159.781 47.0781Z" fill="black"/>
<path d="M152.811 53.2714H137.344C137.166 53.2714 136.995 53.2006 136.869 53.0745C136.743 52.9483 136.672 52.7773 136.672 52.599C136.672 52.4206 136.743 52.2496 136.869 52.1235C136.995 51.9974 137.166 51.9265 137.344 51.9265H152.811C152.989 51.9265 153.16 51.9974 153.286 52.1235C153.412 52.2496 153.483 52.4206 153.483 52.599C153.483 52.7773 153.412 52.9483 153.286 53.0745C153.16 53.2006 152.989 53.2714 152.811 53.2714Z" fill="black"/>
<path d="M149.022 57.9514H139.668C138.021 57.9514 136.686 59.2866 136.686 60.9337C136.686 62.5808 138.021 63.916 139.668 63.916H149.022C150.669 63.916 152.004 62.5808 152.004 60.9337C152.004 59.2866 150.669 57.9514 149.022 57.9514Z" fill="#FFC1EB"/>
<path d="M158.231 63.738C159.778 63.738 161.032 62.484 161.032 60.9372C161.032 59.3904 159.778 58.1365 158.231 58.1365C156.684 58.1365 155.43 59.3904 155.43 60.9372C155.43 62.484 156.684 63.738 158.231 63.738Z" fill="#FB6D6D"/>
<path d="M123.24 102.612H99.8119L109.404 90.2324H133.794L123.24 102.612Z" fill="black"/>
<path d="M224.547 145.982C224.492 145.982 224.437 145.975 224.383 145.961C224.297 145.94 224.216 145.902 224.146 145.849C224.075 145.796 224.015 145.73 223.97 145.654C223.924 145.578 223.894 145.494 223.882 145.407C223.869 145.319 223.874 145.23 223.895 145.144L232.745 110.177C232.789 110.004 232.901 109.856 233.055 109.765C233.208 109.674 233.392 109.648 233.565 109.693C233.738 109.738 233.886 109.849 233.977 110.003C234.068 110.157 234.094 110.34 234.049 110.513L225.2 145.481C225.162 145.625 225.077 145.752 224.959 145.842C224.841 145.933 224.696 145.982 224.547 145.982Z" fill="black"/>
<path d="M175.946 217.755C175.916 217.759 175.886 217.759 175.856 217.755C175.768 217.744 175.683 217.715 175.607 217.671C175.53 217.626 175.463 217.567 175.409 217.497C175.356 217.427 175.316 217.347 175.294 217.261C175.271 217.176 175.265 217.087 175.277 216.999L184.332 150.154C184.343 150.066 184.372 149.981 184.417 149.904C184.462 149.827 184.521 149.759 184.592 149.705C184.662 149.651 184.743 149.611 184.829 149.588C184.915 149.565 185.005 149.559 185.093 149.571C185.182 149.583 185.267 149.611 185.344 149.656C185.421 149.701 185.489 149.76 185.543 149.831C185.597 149.901 185.637 149.982 185.66 150.068C185.683 150.154 185.688 150.244 185.677 150.332L176.612 217.174C176.59 217.335 176.511 217.482 176.388 217.589C176.266 217.696 176.109 217.755 175.946 217.755Z" fill="black"/>
<path d="M234.424 74.1411L227.604 104.185C227.029 106.718 228.616 109.238 231.149 109.813L236.284 110.979C238.817 111.554 241.337 109.967 241.912 107.433L248.733 77.3894C249.308 74.856 247.72 72.3361 245.187 71.761L240.052 70.5954C237.519 70.0203 234.999 71.6078 234.424 74.1411Z" fill="#C7B8F8"/>
<path d="M225.021 217.755C224.858 217.757 224.7 217.699 224.576 217.593C224.453 217.486 224.372 217.339 224.349 217.177L214.898 150.329C214.873 150.151 214.92 149.97 215.028 149.826C215.137 149.682 215.298 149.587 215.476 149.562C215.654 149.538 215.835 149.584 215.979 149.693C216.123 149.801 216.218 149.962 216.243 150.141L225.69 216.989C225.715 217.165 225.669 217.345 225.562 217.487C225.455 217.63 225.295 217.724 225.119 217.749C225.087 217.755 225.054 217.757 225.021 217.755Z" fill="black"/>
<path d="M221.891 195.598H178.945C178.767 195.598 178.596 195.527 178.47 195.401C178.344 195.275 178.273 195.104 178.273 194.926C178.273 194.748 178.344 194.576 178.47 194.45C178.596 194.324 178.767 194.253 178.945 194.253H221.891C222.07 194.253 222.241 194.324 222.367 194.45C222.493 194.576 222.564 194.748 222.564 194.926C222.564 195.104 222.493 195.275 222.367 195.401C222.241 195.527 222.07 195.598 221.891 195.598Z" fill="black"/>
<path d="M221.296 134.459H180.593C178.027 134.459 175.946 136.54 175.946 139.106V145.588C175.946 148.155 178.027 150.235 180.593 150.235H221.296C223.862 150.235 225.943 148.155 225.943 145.588V139.106C225.943 136.54 223.862 134.459 221.296 134.459Z" fill="#C7B8F8"/>
<path d="M227.18 32.3514C232.686 32.3514 237.149 27.8881 237.149 22.3824C237.149 16.8766 232.686 12.4133 227.18 12.4133C221.674 12.4133 217.211 16.8766 217.211 22.3824C217.211 27.8881 221.674 32.3514 227.18 32.3514Z" fill="black"/>
<path d="M245.484 26.7634C252.875 26.7634 258.866 20.7722 258.866 13.3817C258.866 5.9912 252.875 0 245.484 0C238.093 0 232.102 5.9912 232.102 13.3817C232.102 20.7722 238.093 26.7634 245.484 26.7634Z" fill="black"/>
<path d="M220.667 41.2514C220.667 40.0921 220.207 38.9804 219.387 38.1607C218.567 37.341 217.456 36.8805 216.296 36.8805C216.092 36.8825 215.887 36.8982 215.684 36.9275L214.847 25.4556L198.53 27.2073C196.854 27.3858 195.304 28.178 194.177 29.4313C193.051 30.6846 192.427 32.3104 192.428 33.9957V35.8415C192.442 37.9807 191.848 40.0799 190.713 41.8936L190.683 41.9373V41.9541C190.559 42.1409 190.476 42.352 190.441 42.5732C190.405 42.7945 190.416 43.0208 190.475 43.2372C190.534 43.4535 190.638 43.6549 190.78 43.8279C190.923 44.0009 191.1 44.1415 191.301 44.2404L192.438 44.7985V49.1224C192.438 49.9819 192.624 50.8312 192.983 51.612C193.343 52.3928 193.867 53.0864 194.52 53.6452C195.173 54.2041 195.939 54.6148 196.766 54.8492C197.593 55.0835 198.461 55.136 199.31 55.0029L203.5 54.3507L204.34 61.5358L217.678 59.9622L216.774 52.293H216.814L216.327 45.6189C217.48 45.6109 218.584 45.1474 219.397 44.3292C220.21 43.5111 220.666 42.4048 220.667 41.2514Z" fill="white"/>
<path d="M203.752 62.2822L202.908 55.1475L199.411 55.6922C198.466 55.8398 197.501 55.781 196.581 55.5198C195.66 55.2586 194.808 54.8013 194.081 54.1793C193.355 53.5572 192.772 52.7852 192.372 51.9164C191.972 51.0475 191.765 50.1023 191.766 49.1459V45.2356L191.002 44.8624C190.718 44.724 190.467 44.5269 190.264 44.284C190.062 44.0412 189.914 43.7581 189.829 43.4536C189.745 43.1426 189.726 42.8172 189.776 42.4987C189.825 42.1801 189.94 41.8755 190.115 41.6044L190.152 41.5472C191.222 39.8405 191.782 37.863 191.766 35.8483V34.0024C191.762 32.1511 192.445 30.3642 193.682 28.9869C194.919 27.6095 196.622 26.7395 198.463 26.5449L215.473 24.7192L216.313 36.2147C217.569 36.2401 218.771 36.7333 219.682 37.5979C220.594 38.4624 221.15 39.6361 221.241 40.889C221.333 42.1419 220.954 43.384 220.178 44.372C219.402 45.36 218.285 46.0229 217.046 46.2309L217.527 52.8578L218.435 60.5506L203.752 62.2822ZM204.088 53.5942L204.935 60.7893L216.939 59.3738L216.038 51.7315H216.105L215.611 44.9566H216.33C217.311 44.9539 218.251 44.5617 218.942 43.8662C219.634 43.1707 220.021 42.2289 220.018 41.248C220.016 40.2671 219.624 39.3275 218.928 38.6358C218.233 37.9441 217.291 37.557 216.31 37.5596C216.137 37.5613 215.964 37.5748 215.792 37.6L215.079 37.7008L214.225 26.2054L198.598 27.8865C197.087 28.0461 195.689 28.76 194.674 29.8901C193.658 31.0203 193.098 32.4865 193.1 34.0057V35.8516C193.117 38.1226 192.484 40.351 191.275 42.2735L191.241 42.3273C191.167 42.4396 191.118 42.5663 191.097 42.699C191.075 42.8317 191.082 42.9674 191.117 43.0972C191.15 43.2189 191.208 43.332 191.289 43.4289C191.37 43.5258 191.47 43.6042 191.584 43.6587L193.1 44.3984V49.1426C193.101 49.9046 193.266 50.6576 193.584 51.3498C193.903 52.0421 194.368 52.6572 194.946 53.1529C195.525 53.6486 196.204 54.0132 196.937 54.2217C197.67 54.4302 198.44 54.4776 199.193 54.3607L204.088 53.5942Z" fill="black"/>
<path d="M196.742 49.8251C196.57 49.8251 196.399 49.8105 196.231 49.7814C195.581 49.669 194.978 49.3699 194.496 48.9206C194.362 48.8003 194.282 48.6317 194.272 48.452C194.263 48.2723 194.325 48.0962 194.445 47.9624C194.566 47.8286 194.734 47.7482 194.914 47.7387C195.094 47.7293 195.27 47.7916 195.404 47.912C195.696 48.1826 196.058 48.3655 196.449 48.4398C197.693 48.6449 198.672 47.4312 198.682 47.4312C198.794 47.2987 198.953 47.2148 199.126 47.1971C199.299 47.1794 199.472 47.2292 199.609 47.3361C199.745 47.443 199.836 47.5987 199.86 47.7706C199.885 47.9424 199.842 48.1172 199.741 48.2583C199.67 48.3356 198.483 49.8251 196.742 49.8251Z" fill="black"/>
<path d="M199.495 40.71C200.08 40.71 200.554 40.2358 200.554 39.6509C200.554 39.066 200.08 38.5918 199.495 38.5918C198.91 38.5918 198.436 39.066 198.436 39.6509C198.436 40.2358 198.91 40.71 199.495 40.71Z" fill="black"/>
<path d="M215.853 43.5209C215.495 43.5209 215.145 43.4148 214.848 43.216C214.55 43.0172 214.319 42.7347 214.182 42.4042C214.045 42.0737 214.009 41.71 214.079 41.3591C214.148 41.0082 214.321 40.6859 214.574 40.4329C214.827 40.1799 215.149 40.0076 215.5 39.9378C215.851 39.868 216.215 39.9039 216.545 40.0408C216.876 40.1777 217.158 40.4095 217.357 40.707C217.556 41.0045 217.662 41.3542 217.662 41.712C217.662 42.1917 217.471 42.6518 217.132 42.991C216.793 43.3303 216.333 43.5209 215.853 43.5209ZM215.853 41.248C215.761 41.248 215.671 41.2752 215.595 41.3262C215.519 41.3772 215.459 41.4496 215.424 41.5344C215.389 41.6192 215.38 41.7125 215.398 41.8025C215.416 41.8925 215.46 41.9752 215.525 42.0401C215.59 42.1049 215.672 42.1491 215.762 42.167C215.852 42.1849 215.946 42.1757 216.03 42.1406C216.115 42.1055 216.188 42.0461 216.239 41.9697C216.29 41.8934 216.317 41.8037 216.317 41.712C216.317 41.5889 216.268 41.4709 216.181 41.3839C216.094 41.2969 215.976 41.248 215.853 41.248Z" fill="black"/>
<path d="M205.026 59.72L225.488 58.792C228.549 58.621 231.553 59.6663 233.847 61.7004C236.796 64.3902 239.102 69.3293 235.891 78.3065L231.372 86.7289L205.819 83.6356L201.405 92.2228L185.367 94.0552C184.97 94.0989 183.743 91.9874 183.571 91.7218C182.295 89.7765 181.464 87.5734 181.137 85.2697C180.297 78.7066 185.172 73.4346 188.948 68.6367C192.955 63.5194 198.281 60.026 205.026 59.72Z" fill="#FFC1EB"/>
<path d="M214.757 42.6803C214.599 42.6834 214.445 42.6308 214.322 42.5318C214.199 42.4329 214.115 42.2938 214.084 42.139C213.993 41.6866 214.022 41.2181 214.168 40.7803C214.315 40.3426 214.573 39.9509 214.918 39.6442C215.252 39.3652 215.648 39.1695 216.072 39.073C216.496 38.9766 216.937 38.9822 217.359 39.0894C217.444 39.1131 217.524 39.1532 217.594 39.2077C217.664 39.2621 217.722 39.3298 217.765 39.4067C217.809 39.4837 217.837 39.5685 217.848 39.6562C217.858 39.744 217.852 39.833 217.828 39.9182C217.805 40.0035 217.764 40.0832 217.71 40.1529C217.656 40.2226 217.588 40.2809 217.511 40.3244C217.434 40.368 217.349 40.3959 217.261 40.4067C217.174 40.4175 217.085 40.4109 216.999 40.3873C216.793 40.3373 216.579 40.3352 216.372 40.3813C216.165 40.4273 215.971 40.5202 215.806 40.6529C215.638 40.8036 215.513 40.9955 215.442 41.2095C215.371 41.4236 215.357 41.6524 215.402 41.8734C215.42 41.9599 215.42 42.0491 215.404 42.1358C215.387 42.2225 215.353 42.3051 215.304 42.3788C215.256 42.4525 215.193 42.5158 215.12 42.5653C215.047 42.6147 214.964 42.6492 214.878 42.6669C214.838 42.6739 214.797 42.6784 214.757 42.6803Z" fill="black"/>
<path d="M198.537 27.2139C198.537 27.2139 198.319 40.7603 215.822 36.9139L214.854 25.4622L198.537 27.2139Z" fill="black"/>
<path d="M199.741 45.5348C196.963 45.5348 194.697 42.9156 194.697 39.6912C194.697 36.4668 196.96 33.8477 199.741 33.8477C202.521 33.8477 204.784 36.4702 204.784 39.6912C204.784 42.9123 202.521 45.5348 199.741 45.5348ZM199.741 35.1926C197.703 35.1926 196.042 37.2099 196.042 39.6912C196.042 42.1726 197.7 44.1899 199.741 44.1899C201.782 44.1899 203.439 42.1726 203.439 39.6912C203.439 37.2099 201.785 35.1926 199.741 35.1926Z" fill="black"/>
<path d="M222.779 116.303H197.078V99.2432H220.825C222.503 104.765 223.17 110.544 222.792 116.303H222.779Z" fill="black"/>
<path d="M157.985 102.612H144.745C144.007 102.613 143.279 102.443 142.619 102.114C141.958 101.786 141.384 101.308 140.94 100.719C140.496 100.13 140.195 99.4458 140.061 98.7204C139.927 97.9951 139.964 97.2485 140.169 96.5398C140.446 95.5876 141.025 94.7511 141.819 94.1563C142.612 93.5615 143.578 93.2405 144.57 93.2415H158.157C159.113 93.241 160.046 93.54 160.824 94.0966C161.601 94.6532 162.186 95.4394 162.494 96.3448C162.735 97.0599 162.803 97.8223 162.691 98.5688C162.579 99.3153 162.291 100.024 161.85 100.637C161.409 101.25 160.829 101.749 160.156 102.092C159.484 102.436 158.74 102.614 157.985 102.612Z" fill="#F3EAD6"/>
<path d="M205.423 83.6357L201.072 92.2229L176.013 94.7177C175.076 94.8113 174.132 94.6302 173.296 94.1965L162.446 88.5614C162.446 88.5614 158.657 86.4398 153.18 88.7262L143.954 92.9122C143.567 93.0796 143.242 93.3642 143.024 93.7261C142.807 94.088 142.709 94.5089 142.744 94.9295V94.9497C142.767 95.1219 142.826 95.2871 142.919 95.4343C143.011 95.5814 143.134 95.7071 143.279 95.8027C143.424 95.8983 143.588 95.9617 143.759 95.9885C143.931 96.0154 144.106 96.0051 144.274 95.9583L154.041 93.2181L149.465 97.357C148.791 97.9605 148.321 98.7582 148.12 99.64C147.811 101.076 148.184 103.022 151.902 103.91C151.902 103.91 153.614 106.785 156.526 105.255C156.542 105.255 156.956 105.621 156.99 105.645C157.444 105.996 157.93 106.303 158.442 106.563C160.044 107.359 161.798 107.805 163.586 107.871C164.696 107.925 165.738 107.44 165.883 106.237L166.817 106.334C169.731 106.632 172.633 107.06 175.522 107.619L197.622 111.892C203.674 112.749 208.005 111.455 210.214 110.581C216.669 108.029 220.852 103.49 224.207 97.7235L230.596 86.7256L205.423 83.6357Z" fill="white"/>
<path d="M201.573 112.853C200.223 112.85 198.875 112.753 197.538 112.561H197.505L175.391 108.271C172.54 107.719 169.632 107.292 166.747 106.993L166.384 106.956C165.974 107.988 164.904 108.604 163.55 108.536C161.665 108.464 159.818 107.993 158.13 107.154C157.583 106.874 157.062 106.545 156.573 106.173L156.442 106.058L156.418 106.038C154.065 107.023 152.256 105.598 151.479 104.488C147.286 103.389 147.155 100.894 147.444 99.4885C147.676 98.4658 148.224 97.5422 149.011 96.8492L151.472 94.6234L144.432 96.5903C144.173 96.6629 143.902 96.6794 143.636 96.6387C143.371 96.598 143.117 96.501 142.892 96.3542C142.667 96.2075 142.476 96.0143 142.331 95.7877C142.187 95.5611 142.093 95.3063 142.055 95.0403C141.994 94.4742 142.115 93.9036 142.4 93.4106C142.684 92.9176 143.118 92.5276 143.638 92.2967L152.901 88.104C158.634 85.7101 162.608 87.872 162.776 87.9661L173.593 93.5878C174.316 93.9652 175.134 94.1219 175.946 94.0383L200.635 91.5805L205.033 82.9026L231.709 86.1841L224.793 98.0663C220.933 104.693 216.387 108.869 210.466 111.209C207.632 112.315 204.615 112.873 201.573 112.853ZM197.73 111.229C202.135 111.851 206.253 111.424 209.965 109.959C215.661 107.706 219.874 103.829 223.623 97.3905L229.513 87.2701L205.82 84.3618L201.516 92.8548L176.091 95.3866C175.024 95.4932 173.949 95.2864 172.997 94.7915L162.161 89.1597C161.999 89.0723 158.543 87.2231 153.463 89.348L144.23 93.5239C143.973 93.6313 143.756 93.8158 143.609 94.0519C143.461 94.2879 143.39 94.564 143.406 94.8419C143.416 94.92 143.443 94.9951 143.484 95.0621C143.525 95.1292 143.58 95.1866 143.645 95.2306C143.711 95.2745 143.785 95.304 143.862 95.317C143.94 95.33 144.02 95.3262 144.096 95.3059L156.617 91.7957L149.929 97.8477C149.351 98.3517 148.947 99.0244 148.772 99.7709C148.406 101.469 149.509 102.639 152.054 103.244L152.33 103.311L152.474 103.557C152.619 103.792 153.947 105.84 156.21 104.65C156.633 104.428 156.912 104.676 157.336 105.053L157.413 105.124C157.836 105.442 158.286 105.722 158.758 105.961C160.276 106.71 161.935 107.129 163.627 107.191C164.067 107.212 165.103 107.158 165.221 106.149L165.298 105.477L166.895 105.641C169.817 105.941 172.765 106.374 175.657 106.936L197.73 111.229Z" fill="black"/>
<path d="M167.214 213.395H138.918C138.171 213.395 137.566 214 137.566 214.746V215.927C137.566 216.673 138.171 217.278 138.918 217.278H167.214C167.961 217.278 168.566 216.673 168.566 215.927V214.746C168.566 214 167.961 213.395 167.214 213.395Z" fill="black"/>
<path d="M134.342 206.505L147.347 204.186H166.37V211.199C166.37 211.84 166.116 212.455 165.662 212.909C165.209 213.362 164.594 213.617 163.953 213.617H138.911L134.342 206.505Z" fill="white"/>
<path d="M163.953 214.289H138.551L133.229 206.021L147.35 203.513H167.046V211.199C167.045 212.019 166.719 212.805 166.139 213.384C165.559 213.963 164.773 214.289 163.953 214.289ZM139.284 212.944H163.953C164.415 212.943 164.859 212.759 165.186 212.432C165.513 212.105 165.697 211.662 165.698 211.199V204.858H147.407L135.451 206.989L139.284 212.944Z" fill="black"/>
<path d="M118.21 190.921L110.393 185.206C109.188 184.327 108.167 183.219 107.39 181.946C106.613 180.673 106.094 179.259 105.863 177.785C105.633 176.312 105.694 174.807 106.045 173.357C106.396 171.907 107.029 170.541 107.908 169.336L141.968 122.628C143.256 120.86 144.881 119.363 146.748 118.223C148.616 117.083 150.689 116.322 152.851 115.983C155.012 115.645 157.22 115.735 159.346 116.25C161.473 116.765 163.477 117.693 165.244 118.983C167.012 120.272 168.509 121.896 169.649 123.764C170.789 125.631 171.55 127.705 171.889 129.866C172.227 132.028 172.136 134.235 171.622 136.361C171.107 138.488 170.178 140.492 168.889 142.26L135.374 188.235C133.454 190.867 130.567 192.629 127.348 193.133C124.13 193.636 120.842 192.841 118.21 190.921Z" fill="black"/>
<path d="M199.479 140.212H139.967V128.518C139.968 124.019 141.756 119.705 144.937 116.524C148.119 113.343 152.434 111.556 156.933 111.556H222.779V116.912C222.779 123.091 220.324 129.018 215.954 133.388C211.585 137.757 205.658 140.212 199.479 140.212Z" fill="black"/>
<path d="M161.015 205.83H151.352C148.339 205.83 145.45 204.633 143.319 202.503C141.189 200.373 139.992 197.484 139.991 194.472V138.776H173.311V193.544C173.311 195.158 172.993 196.757 172.375 198.248C171.757 199.74 170.852 201.095 169.71 202.236C168.568 203.377 167.212 204.281 165.72 204.898C164.228 205.515 162.629 205.831 161.015 205.83Z" fill="black"/>
<path d="M122.204 191.157C122.081 191.156 121.961 191.122 121.856 191.058C121.751 190.994 121.666 190.903 121.609 190.793C121.553 190.684 121.527 190.562 121.535 190.439C121.544 190.316 121.585 190.198 121.656 190.098L139.429 164.881C139.532 164.735 139.689 164.636 139.865 164.606C140.04 164.576 140.221 164.617 140.367 164.72C140.513 164.823 140.612 164.979 140.642 165.155C140.672 165.331 140.631 165.512 140.528 165.658L122.756 190.874C122.693 190.962 122.61 191.034 122.514 191.083C122.418 191.132 122.312 191.157 122.204 191.157Z" fill="white"/>
<path d="M162.749 206.378C162.571 206.378 162.4 206.307 162.274 206.181C162.148 206.055 162.077 205.884 162.077 205.705V137.391C162.079 134.862 163.084 132.436 164.873 130.647C166.661 128.858 169.086 127.852 171.616 127.849H197.767C200.515 127.846 203.149 126.754 205.092 124.811C207.034 122.868 208.127 120.234 208.13 117.487V111.556C208.13 111.377 208.2 111.206 208.327 111.08C208.453 110.954 208.624 110.883 208.802 110.883C208.98 110.883 209.151 110.954 209.278 111.08C209.404 111.206 209.475 111.377 209.475 111.556V117.487C209.471 120.591 208.236 123.566 206.042 125.761C203.847 127.956 200.871 129.19 197.767 129.194H171.616C169.443 129.197 167.36 130.061 165.824 131.598C164.287 133.135 163.424 135.218 163.422 137.391V205.705C163.422 205.884 163.351 206.055 163.225 206.181C163.099 206.307 162.928 206.378 162.749 206.378Z" fill="white"/>
<path d="M151.896 104.572C151.751 104.572 151.611 104.524 151.495 104.437C151.379 104.35 151.295 104.227 151.254 104.088C149.694 98.7456 155.42 95.4439 155.48 95.4103C155.557 95.3661 155.642 95.3375 155.73 95.3262C155.818 95.3148 155.907 95.3208 155.993 95.3439C156.078 95.367 156.158 95.4067 156.229 95.4608C156.299 95.5149 156.358 95.5823 156.402 95.6591C156.446 95.7359 156.474 95.8207 156.486 95.9086C156.497 95.9965 156.491 96.0857 156.468 96.1713C156.445 96.2568 156.405 96.337 156.351 96.4072C156.297 96.4773 156.23 96.5362 156.153 96.5804C155.276 97.1211 154.489 97.7949 153.82 98.5775C152.475 100.198 152.034 101.923 152.559 103.712C152.609 103.883 152.588 104.067 152.503 104.223C152.417 104.38 152.273 104.496 152.101 104.546C152.035 104.564 151.966 104.573 151.896 104.572Z" fill="black"/>
<path d="M156.522 105.917C156.413 105.917 156.305 105.89 156.208 105.838C156.112 105.787 156.029 105.712 155.968 105.621C155.604 105.128 155.352 104.562 155.229 103.961C155.106 103.361 155.115 102.741 155.255 102.145C155.927 99.3138 159.347 97.3872 159.495 97.3065C159.572 97.2573 159.659 97.2244 159.749 97.2099C159.84 97.1954 159.932 97.1995 160.021 97.2221C160.11 97.2446 160.193 97.285 160.266 97.341C160.338 97.3969 160.399 97.467 160.443 97.5472C160.488 97.6273 160.516 97.7157 160.525 97.8069C160.534 97.8981 160.524 97.9902 160.496 98.0776C160.469 98.1649 160.423 98.2457 160.363 98.3149C160.303 98.3841 160.23 98.4403 160.147 98.48C160.093 98.5136 157.094 100.215 156.563 102.457C156.468 102.872 156.465 103.302 156.553 103.718C156.642 104.134 156.821 104.525 157.077 104.865C157.146 104.966 157.187 105.084 157.194 105.206C157.201 105.328 157.174 105.45 157.117 105.558C157.06 105.667 156.975 105.757 156.87 105.821C156.765 105.884 156.645 105.917 156.522 105.917Z" fill="black"/>
<path d="M165.879 106.926C165.714 106.927 165.554 106.867 165.43 106.758C165.306 106.649 165.227 106.498 165.207 106.334C165.076 105.258 162.887 103.981 161.845 103.54L160.917 103.143L164.138 100.027C164.267 99.9122 164.436 99.8521 164.609 99.8589C164.782 99.8657 164.945 99.9388 165.066 100.063C165.186 100.187 165.254 100.353 165.255 100.526C165.256 100.699 165.191 100.866 165.072 100.992L163.267 102.74C164.447 103.372 166.35 104.623 166.538 106.173C166.559 106.349 166.509 106.527 166.4 106.667C166.29 106.807 166.13 106.897 165.953 106.919L165.879 106.926Z" fill="black"/>
<path d="M142.579 217.282H126.565C125.975 217.282 125.41 217.047 124.993 216.631C124.577 216.214 124.342 215.648 124.342 215.059C124.343 212.641 125.304 210.322 127.014 208.612C128.724 206.903 131.043 205.942 133.461 205.941C135.879 205.941 138.198 206.901 139.908 208.611C141.619 210.321 142.579 212.641 142.579 215.059V217.282Z" fill="black"/>
<path d="M204.112 39.402C203.933 39.4118 203.758 39.3504 203.625 39.2312C203.492 39.112 203.412 38.9449 203.402 38.7666C203.392 38.5882 203.454 38.4133 203.573 38.2802C203.692 38.1472 203.859 38.0669 204.038 38.0571L214.642 36.8837C214.82 36.8641 214.999 36.9161 215.139 37.0284C215.279 37.1406 215.369 37.3038 215.389 37.4822C215.408 37.6605 215.356 37.8394 215.244 37.9793C215.132 38.1193 214.968 38.209 214.79 38.2286L204.186 39.3987L204.112 39.402Z" fill="black"/>
<path d="M203.58 53.6782L204.054 57.7129L211.075 53.0831C211.124 53.0513 211.161 53.0036 211.179 52.9479C211.198 52.8922 211.196 52.8319 211.175 52.777C211.154 52.7222 211.115 52.6763 211.065 52.6469C211.014 52.6175 210.954 52.6065 210.897 52.6157L203.58 53.6782Z" fill="black"/>
<path d="M205.423 84.3082C205.331 84.309 205.239 84.2906 205.154 84.2544C204.993 84.181 204.867 84.047 204.804 83.8814C204.741 83.7158 204.746 83.5321 204.818 83.3701L207.575 77.0222C207.609 76.94 207.66 76.8654 207.723 76.8028C207.786 76.7402 207.861 76.6908 207.944 76.6575C208.027 76.6241 208.115 76.6076 208.204 76.6087C208.293 76.6098 208.381 76.6286 208.463 76.6641C208.545 76.6995 208.619 76.7508 208.68 76.815C208.742 76.8792 208.79 76.955 208.823 77.0381C208.855 77.1212 208.87 77.2098 208.868 77.2988C208.865 77.3879 208.845 77.4756 208.809 77.5568L206.049 83.9047C205.996 84.0261 205.908 84.1291 205.797 84.2009C205.686 84.2727 205.556 84.31 205.423 84.3082Z" fill="black"/>
<path d="M140.182 181.268C140.003 181.268 139.832 181.198 139.706 181.071C139.58 180.945 139.509 180.774 139.509 180.596V125.886C139.509 125.707 139.58 125.536 139.706 125.41C139.832 125.284 140.003 125.213 140.182 125.213C140.36 125.213 140.531 125.284 140.657 125.41C140.783 125.536 140.854 125.707 140.854 125.886V180.596C140.854 180.774 140.783 180.945 140.657 181.071C140.531 181.198 140.36 181.268 140.182 181.268Z" fill="white"/>
<path d="M310.509 38.5818H249.354C245.246 38.5818 241.916 41.9116 241.916 46.0191V83.3668C241.916 87.4743 245.246 90.8041 249.354 90.8041H310.509C314.617 90.8041 317.947 87.4743 317.947 83.3668V46.0191C317.947 41.9116 314.617 38.5818 310.509 38.5818Z" fill="white"/>
<path d="M310.51 91.4764H249.354C247.204 91.4737 245.143 90.6184 243.622 89.0982C242.102 87.5779 241.247 85.5167 241.244 83.3667V46.0189C241.247 43.8689 242.102 41.8077 243.622 40.2874C245.143 38.7671 247.204 37.9118 249.354 37.9092H310.51C312.66 37.9118 314.721 38.7671 316.241 40.2874C317.761 41.8077 318.617 43.8689 318.619 46.0189V83.3667C318.617 85.5167 317.761 87.5779 316.241 89.0982C314.721 90.6184 312.66 91.4737 310.51 91.4764ZM249.354 39.2541C247.56 39.2559 245.841 39.9691 244.572 41.2374C243.304 42.5057 242.591 44.2253 242.589 46.0189V83.3667C242.591 85.1603 243.304 86.8799 244.572 88.1482C245.841 89.4164 247.56 90.1297 249.354 90.1315H310.51C312.303 90.1288 314.022 89.4152 315.29 88.1472C316.558 86.8791 317.272 85.16 317.274 83.3667V46.0189C317.273 44.2253 316.559 42.5057 315.291 41.2374C314.023 39.9691 312.303 39.2559 310.51 39.2541H249.354Z" fill="black"/>
<path d="M283.373 57.676C284.627 57.676 285.643 56.6599 285.643 55.4065C285.643 54.1531 284.627 53.137 283.373 53.137C282.12 53.137 281.104 54.1531 281.104 55.4065C281.104 56.6599 282.12 57.676 283.373 57.676Z" fill="#FFC1EB"/>
<path d="M291.234 57.676C292.487 57.676 293.503 56.6599 293.503 55.4065C293.503 54.1531 292.487 53.137 291.234 53.137C289.98 53.137 288.964 54.1531 288.964 55.4065C288.964 56.6599 289.98 57.676 291.234 57.676Z" fill="#FFC1EB"/>
<path d="M299.098 57.676C300.352 57.676 301.368 56.6599 301.368 55.4065C301.368 54.1531 300.352 53.137 299.098 53.137C297.845 53.137 296.829 54.1531 296.829 55.4065C296.829 56.6599 297.845 57.676 299.098 57.676Z" fill="#FFC1EB"/>
<path d="M306.963 57.676C308.216 57.676 309.232 56.6599 309.232 55.4065C309.232 54.1531 308.216 53.137 306.963 53.137C305.709 53.137 304.693 54.1531 304.693 55.4065C304.693 56.6599 305.709 57.676 306.963 57.676Z" fill="#FFC1EB"/>
<path d="M261.438 66.4916C263.872 66.4916 265.846 64.5181 265.846 62.0837C265.846 59.6493 263.872 57.6758 261.438 57.6758C259.004 57.6758 257.03 59.6493 257.03 62.0837C257.03 64.5181 259.004 66.4916 261.438 66.4916Z" fill="#6DC8C2"/>
<path d="M261.048 68.7444C259.579 68.7345 258.132 69.0977 256.842 69.7998C255.551 70.502 254.46 71.5201 253.671 72.7589C255.792 74.4374 258.399 75.3852 261.102 75.4609C263.806 75.5366 266.462 74.7363 268.673 73.1792C267.917 71.8244 266.809 70.698 265.468 69.9178C264.126 69.1376 262.6 68.7323 261.048 68.7444Z" fill="#6DC8C2"/>
<path d="M309.232 64.5617H280.653C280.475 64.5617 280.304 64.4908 280.178 64.3647C280.052 64.2386 279.981 64.0676 279.981 63.8892C279.981 63.7109 280.052 63.5399 280.178 63.4138C280.304 63.2876 280.475 63.2168 280.653 63.2168H309.232C309.411 63.2168 309.582 63.2876 309.708 63.4138C309.834 63.5399 309.905 63.7109 309.905 63.8892C309.905 64.0676 309.834 64.2386 309.708 64.3647C309.582 64.4908 309.411 64.5617 309.232 64.5617Z" fill="black"/>
<path d="M309.232 69.8405H280.653C280.475 69.8405 280.304 69.7697 280.178 69.6435C280.052 69.5174 279.981 69.3464 279.981 69.1681C279.981 68.9897 280.052 68.8187 280.178 68.6926C280.304 68.5665 280.475 68.4956 280.653 68.4956H309.232C309.411 68.4956 309.582 68.5665 309.708 68.6926C309.834 68.8187 309.905 68.9897 309.905 69.1681C309.905 69.3464 309.834 69.5174 309.708 69.6435C309.582 69.7697 309.411 69.8405 309.232 69.8405Z" fill="black"/>
<path d="M298.617 75.1259H280.666C280.488 75.1259 280.317 75.0551 280.191 74.9289C280.065 74.8028 279.994 74.6318 279.994 74.4535C279.994 74.2751 280.065 74.1041 280.191 73.978C280.317 73.8519 280.488 73.781 280.666 73.781H298.617C298.796 73.781 298.967 73.8519 299.093 73.978C299.219 74.1041 299.29 74.2751 299.29 74.4535C299.29 74.6318 299.219 74.8028 299.093 74.9289C298.967 75.0551 298.796 75.1259 298.617 75.1259Z" fill="black"/>
<path d="M261.172 75.778C258.827 75.778 256.534 75.0825 254.584 73.7795C252.634 72.4765 251.114 70.6244 250.216 68.4575C249.318 66.2906 249.084 63.9063 249.541 61.6059C249.999 59.3056 251.128 57.1926 252.787 55.5341C254.445 53.8756 256.558 52.7462 258.858 52.2887C261.159 51.8311 263.543 52.0659 265.71 52.9635C267.877 53.861 269.729 55.381 271.032 57.3311C272.335 59.2813 273.031 61.574 273.031 63.9194C273.027 67.0634 271.777 70.0776 269.553 72.3008C267.33 74.5239 264.316 75.7745 261.172 75.778ZM261.172 53.409C259.092 53.409 257.06 54.0258 255.331 55.1812C253.601 56.3366 252.254 57.9788 251.458 59.9001C250.663 61.8215 250.455 63.9356 250.861 65.9751C251.266 68.0147 252.268 69.888 253.739 71.3583C255.21 72.8285 257.083 73.8296 259.123 74.2349C261.163 74.6402 263.277 74.4315 265.198 73.6352C267.119 72.839 268.761 71.4909 269.915 69.7614C271.07 68.032 271.686 65.999 271.686 63.9194C271.682 61.1324 270.573 58.4606 268.602 56.4902C266.631 54.5198 263.959 53.4117 261.172 53.409Z" fill="black"/>
<path d="M275.327 111.556H253.143C250.328 111.556 248.046 113.838 248.046 116.653V138.837C248.046 141.652 250.328 143.934 253.143 143.934H275.327C278.142 143.934 280.424 141.652 280.424 138.837V116.653C280.424 113.838 278.142 111.556 275.327 111.556Z" fill="white"/>
<path d="M275.327 144.606H253.137C251.606 144.606 250.139 143.998 249.057 142.916C247.974 141.834 247.365 140.367 247.364 138.837V116.646C247.365 115.116 247.974 113.649 249.057 112.567C250.139 111.485 251.606 110.877 253.137 110.876H275.327C276.858 110.877 278.325 111.485 279.407 112.567C280.49 113.649 281.099 115.116 281.1 116.646V138.837C281.099 140.367 280.49 141.834 279.407 142.916C278.325 143.998 276.858 144.606 275.327 144.606ZM253.137 112.228C251.963 112.229 250.838 112.695 250.008 113.525C249.178 114.354 248.71 115.479 248.709 116.653V138.844C248.71 140.017 249.178 141.142 250.008 141.972C250.838 142.801 251.963 143.267 253.137 143.268H275.327C276.501 143.267 277.626 142.801 278.456 141.972C279.286 141.142 279.754 140.017 279.755 138.844V116.653C279.754 115.479 279.286 114.354 278.456 113.525C277.626 112.695 276.501 112.229 275.327 112.228H253.137Z" fill="black"/>
<path d="M259.057 135.407V127.799C259.054 127.662 259.089 127.527 259.157 127.409C259.225 127.29 259.324 127.192 259.444 127.126C260.507 126.531 263.428 124.551 263.768 120.54C263.892 119.09 264.528 118.408 265.197 118.243C265.97 118.055 266.767 118.862 266.878 118.969C268.697 120.866 266.797 125.213 266.622 125.603L269.026 125.539C269.497 125.527 269.965 125.608 270.405 125.777C270.844 125.946 271.246 126.2 271.587 126.525C271.928 126.849 272.201 127.238 272.392 127.668C272.583 128.098 272.687 128.562 272.698 129.033L272.782 132.476C272.794 132.953 272.71 133.427 272.535 133.871C272.361 134.316 272.099 134.72 271.766 135.062C271.432 135.403 271.034 135.675 270.594 135.86C270.154 136.045 269.682 136.141 269.205 136.14H259.811C259.614 136.14 259.426 136.064 259.285 135.927C259.144 135.79 259.063 135.604 259.057 135.407Z" fill="#6DC8C2"/>
<path d="M259.141 126.155H256.895C256.438 126.155 256.068 126.525 256.068 126.982V135.992C256.068 136.449 256.438 136.82 256.895 136.82H259.141C259.598 136.82 259.968 136.449 259.968 135.992V126.982C259.968 126.525 259.598 126.155 259.141 126.155Z" fill="#FFC1EB"/>
<path d="M69.6015 25.664C74.0563 25.664 77.6676 22.0527 77.6676 17.598C77.6676 13.1433 74.0563 9.53198 69.6015 9.53198C65.1468 9.53198 61.5355 13.1433 61.5355 17.598C61.5355 22.0527 65.1468 25.664 69.6015 25.664Z" fill="#F0941F"/>
<path d="M70.0514 40.986C74.1116 33.2751 72.8639 24.634 67.2644 21.6855C61.6649 18.737 53.8341 22.5976 49.7738 30.3084C45.7135 38.0192 46.9613 46.6603 52.5608 49.6088C58.1603 52.5573 65.9911 48.6968 70.0514 40.986Z" fill="#F0941F"/>
<path d="M68.2433 69.5414C69.8915 57.8863 63.5482 47.352 54.0752 46.0124C44.6022 44.6728 35.5867 53.0352 33.9385 64.6903C32.2904 76.3454 38.6336 86.8797 48.1066 88.2193C57.5796 89.5589 66.5951 81.1965 68.2433 69.5414Z" fill="#F0941F"/>
<path d="M8.35186 51.4894C12.4705 51.4894 15.8093 48.1505 15.8093 44.0319C15.8093 39.9133 12.4705 36.5745 8.35186 36.5745C4.23322 36.5745 0.894409 39.9133 0.894409 44.0319C0.894409 48.1505 4.23322 51.4894 8.35186 51.4894Z" fill="#F0941F"/>
<path d="M16.3672 74.3769C21.9846 73.0614 25.1515 66.0722 23.4406 58.7661C21.7296 51.46 15.7888 46.6036 10.1713 47.9191C4.55385 49.2346 1.387 56.2238 3.09794 63.5299C4.80889 70.8361 10.7497 75.6924 16.3672 74.3769Z" fill="#F0941F"/>
<path d="M23.3965 107.269C31.5527 105.865 36.7635 96.5894 35.0352 86.5519C33.3068 76.5145 25.2938 69.516 17.1376 70.9204C8.98132 72.3249 3.7705 81.6003 5.49885 91.6378C7.22721 101.675 15.2403 108.674 23.3965 107.269Z" fill="#F0941F"/>
<path d="M33.0743 140.501C32.9096 140.503 32.7502 140.443 32.6262 140.335C32.5023 140.226 32.4225 140.076 32.4019 139.913C28.4311 108.412 17.4903 81.0366 17.3794 80.7778C17.3432 80.6953 17.324 80.6063 17.3228 80.5162C17.3217 80.4262 17.3386 80.3368 17.3727 80.2534C17.4067 80.17 17.4572 80.0943 17.5211 80.0308C17.585 79.9672 17.661 79.9172 17.7446 79.8837C17.8282 79.8501 17.9177 79.8336 18.0077 79.8353C18.0978 79.837 18.1866 79.8568 18.2689 79.8934C18.3512 79.9301 18.4253 79.9829 18.4868 80.0488C18.5482 80.1146 18.5958 80.1922 18.6268 80.2768C18.7377 80.5491 29.7423 108.066 33.7569 139.745C33.7681 139.833 33.762 139.922 33.7386 140.007C33.7153 140.093 33.6753 140.173 33.6209 140.243C33.5666 140.313 33.4989 140.371 33.4218 140.415C33.3448 140.459 33.2598 140.487 33.1718 140.498L33.0743 140.501Z" fill="black"/>
<path d="M41.1978 140.848C41.0194 140.848 40.8484 140.777 40.7223 140.651C40.5962 140.525 40.5253 140.354 40.5253 140.175C40.4413 108.57 44.8963 83.229 48.6451 67.5206C52.7135 50.4841 56.8726 40.7807 56.9062 40.6899C56.9787 40.5287 57.1117 40.4025 57.2765 40.3386C57.4413 40.2748 57.6246 40.2784 57.7868 40.3486C57.949 40.4189 58.077 40.5502 58.1431 40.7141C58.2092 40.878 58.2082 41.0614 58.1401 41.2245C58.0998 41.3187 53.9844 50.9414 49.943 67.8803C46.2142 83.508 41.7862 108.742 41.8736 140.169C41.8736 140.347 41.8028 140.518 41.6766 140.644C41.5505 140.77 41.3795 140.841 41.2011 140.841L41.1978 140.848Z" fill="black"/>
<path d="M45.0606 140.175H28.1015C22.982 140.175 18.8318 144.325 18.8318 149.445V213.529C18.8318 218.649 22.982 222.799 28.1015 222.799H45.0606C50.1801 222.799 54.3303 218.649 54.3303 213.529V149.445C54.3303 144.325 50.1801 140.175 45.0606 140.175Z" fill="#6DC8C2"/>
<path d="M20.56 218.384C20.4284 218.384 20.2996 218.346 20.1897 218.274C20.0797 218.201 19.9934 218.098 19.9414 217.977C19.8697 217.815 19.8647 217.632 19.9277 217.466C19.9906 217.301 20.1164 217.166 20.2776 217.093C25.5388 214.814 31.2 213.603 36.933 213.529C42.666 213.455 48.3566 214.52 53.6747 216.663C53.8347 216.733 53.9611 216.863 54.0271 217.024C54.0932 217.186 54.0937 217.367 54.0286 217.529C53.9635 217.691 53.8379 217.822 53.6783 217.893C53.5188 217.964 53.3378 217.97 53.1737 217.91C48.0199 215.834 42.5052 214.802 36.9495 214.874C31.3938 214.946 25.9075 216.119 20.8088 218.327C20.7303 218.362 20.6458 218.381 20.56 218.384Z" fill="black"/>
<path d="M49.4082 153.883H24.2586C24.0803 153.883 23.9092 153.812 23.7831 153.686C23.657 153.56 23.5862 153.389 23.5862 153.211C23.5862 153.032 23.657 152.861 23.7831 152.735C23.9092 152.609 24.0803 152.538 24.2586 152.538H49.4082C49.5865 152.538 49.7576 152.609 49.8837 152.735C50.0098 152.861 50.0806 153.032 50.0806 153.211C50.0806 153.389 50.0098 153.56 49.8837 153.686C49.7576 153.812 49.5865 153.883 49.4082 153.883Z" fill="black"/>
<path d="M42.9559 214.871C42.7776 214.871 42.6065 214.8 42.4804 214.674C42.3543 214.548 42.2834 214.377 42.2834 214.198V153.409C42.2834 153.231 42.3543 153.06 42.4804 152.934C42.6065 152.807 42.7776 152.737 42.9559 152.737C43.1342 152.737 43.3053 152.807 43.4314 152.934C43.5575 153.06 43.6283 153.231 43.6283 153.409V214.198C43.6283 214.377 43.5575 214.548 43.4314 214.674C43.3053 214.8 43.1342 214.871 42.9559 214.871Z" fill="black"/>
<path d="M30.6942 214.871C30.5158 214.871 30.3448 214.8 30.2187 214.674C30.0926 214.548 30.0217 214.377 30.0217 214.198V153.409C30.0217 153.231 30.0926 153.06 30.2187 152.934C30.3448 152.807 30.5158 152.737 30.6942 152.737C30.8725 152.737 31.0436 152.807 31.1697 152.934C31.2958 153.06 31.3666 153.231 31.3666 153.409V214.198C31.3666 214.377 31.2958 214.548 31.1697 214.674C31.0436 214.8 30.8725 214.871 30.6942 214.871Z" fill="black"/>
</svg>
