<svg width="25" height="24" viewBox="0 0 25 24" fill="none" xmlns="http://www.w3.org/2000/svg">
<path d="M6.33337 18.4667C6.60004 18.4667 6.83337 18.3667 7.03337 18.1667C7.23337 17.9667 7.33337 17.7333 7.33337 17.4667C7.33337 17.2 7.23337 16.9667 7.03337 16.7667C6.83337 16.5667 6.60004 16.4667 6.33337 16.4667C6.06671 16.4667 5.83337 16.5667 5.63337 16.7667C5.43337 16.9667 5.33337 17.2 5.33337 17.4667C5.33337 17.7333 5.43337 17.9667 5.63337 18.1667C5.83337 18.3667 6.06671 18.4667 6.33337 18.4667ZM6.33337 13C6.60004 13 6.83337 12.9 7.03337 12.7C7.23337 12.5 7.33337 12.2667 7.33337 12C7.33337 11.7333 7.23337 11.5 7.03337 11.3C6.83337 11.1 6.60004 11 6.33337 11C6.06671 11 5.83337 11.1 5.63337 11.3C5.43337 11.5 5.33337 11.7333 5.33337 12C5.33337 12.2667 5.43337 12.5 5.63337 12.7C5.83337 12.9 6.06671 13 6.33337 13ZM6.33337 7.53333C6.60004 7.53333 6.83337 7.43333 7.03337 7.23333C7.23337 7.03333 7.33337 6.8 7.33337 6.53333C7.33337 6.26667 7.23337 6.03333 7.03337 5.83333C6.83337 5.63333 6.60004 5.53333 6.33337 5.53333C6.06671 5.53333 5.83337 5.63333 5.63337 5.83333C5.43337 6.03333 5.33337 6.26667 5.33337 6.53333C5.33337 6.8 5.43337 7.03333 5.63337 7.23333C5.83337 7.43333 6.06671 7.53333 6.33337 7.53333ZM10.7334 18.4667H18.8667V16.4667H10.7334V18.4667ZM10.7334 13H18.8667V11H10.7334V13ZM10.7334 7.53333H18.8667V5.53333H10.7334V7.53333ZM2.33337 24C1.80004 24 1.33337 23.8 0.933374 23.4C0.533374 23 0.333374 22.5333 0.333374 22V2C0.333374 1.46667 0.533374 1 0.933374 0.6C1.33337 0.2 1.80004 0 2.33337 0H22.3334C22.8667 0 23.3334 0.2 23.7334 0.6C24.1334 1 24.3334 1.46667 24.3334 2V22C24.3334 22.5333 24.1334 23 23.7334 23.4C23.3334 23.8 22.8667 24 22.3334 24H2.33337ZM2.33337 22H22.3334V2H2.33337V22Z" fill="#6C6C6C"/>
</svg>
