<svg width="16" height="22" viewBox="0 0 16 22" fill="none" xmlns="http://www.w3.org/2000/svg">
<path d="M1.5 21.5C1.08333 21.5 0.729167 21.3542 0.4375 21.0625C0.145833 20.7708 0 20.4167 0 20V9.15C0 8.73333 0.145833 8.37917 0.4375 8.0875C0.729167 7.79583 1.08333 7.65 1.5 7.65H3.25V5.25C3.25 3.93333 3.7125 2.8125 4.6375 1.8875C5.5625 0.9625 6.68333 0.5 8 0.5C9.31667 0.5 10.4375 0.9625 11.3625 1.8875C12.2875 2.8125 12.75 3.93333 12.75 5.25V7.65H14.5C14.9167 7.65 15.2708 7.79583 15.5625 8.0875C15.8542 8.37917 16 8.73333 16 9.15V20C16 20.4167 15.8542 20.7708 15.5625 21.0625C15.2708 21.3542 14.9167 21.5 14.5 21.5H1.5ZM8 16.5C8.53333 16.5 8.9875 16.3167 9.3625 15.95C9.7375 15.5833 9.925 15.1417 9.925 14.625C9.925 14.125 9.7375 13.6708 9.3625 13.2625C8.9875 12.8542 8.53333 12.65 8 12.65C7.46667 12.65 7.0125 12.8542 6.6375 13.2625C6.2625 13.6708 6.075 14.125 6.075 14.625C6.075 15.1417 6.2625 15.5833 6.6375 15.95C7.0125 16.3167 7.46667 16.5 8 16.5ZM4.75 7.65H11.25V5.25C11.25 4.35 10.9333 3.58333 10.3 2.95C9.66667 2.31667 8.9 2 8 2C7.1 2 6.33333 2.31667 5.7 2.95C5.06667 3.58333 4.75 4.35 4.75 5.25V7.65Z" fill="black"/>
</svg>
