<svg width="255" height="255" viewBox="0 0 255 255" fill="none" xmlns="http://www.w3.org/2000/svg">
<path d="M197.276 40.3915C190.553 41.6865 184.377 47.3642 182.285 54.1376C178.002 68.0331 188.959 81.7294 203.353 80.5341C214.808 79.538 223.673 68.332 221.681 57.2255C219.639 45.4716 208.931 38.1005 197.276 40.3915Z" fill="white"/>
<path d="M76.5997 50.502C74.4581 52.0957 74.7071 55.6318 76.9981 56.7275C77.8946 57.126 89.3995 57.2754 118.236 57.2754C157.981 57.2754 158.23 57.2754 159.574 56.2295C161.268 54.8848 161.367 52.3945 159.724 50.9004L158.578 49.8047H117.987C85.3653 49.8545 77.2969 49.9541 76.5997 50.502Z" fill="white"/>
<path d="M144.981 70.9716C134.672 73.3125 126.056 78.1435 118.286 86.0126C108.076 96.2724 106.632 101.452 112.509 106.731C115.696 109.62 120.428 110.367 124.362 108.624C125.757 107.977 127.6 106.233 130.09 103.345C138.407 93.4335 147.173 89.5488 157.532 91.0927C159.823 91.4414 161.965 91.8896 162.363 92.1386C162.861 92.4375 161.766 94.8779 157.532 102.697C154.494 108.226 150.062 116.742 147.671 121.523C140.399 136.116 137.461 140.549 131.783 145.728C124.063 152.801 114.8 156.038 106.831 154.394C105.188 154.096 101.95 152.9 99.6592 151.854C94.7285 149.563 92.5869 149.115 89.8477 149.862C84.917 151.207 81.5303 155.391 81.4805 160.271C81.4805 165.352 83.6221 167.892 90.8936 171.378C98.6133 175.014 103.295 176.06 112.31 176.01C118.236 176.01 120.677 175.761 124.014 174.964C133.676 172.523 141.246 168.34 148.518 161.417L153.398 156.785L156.237 157.881C165.65 161.616 181.488 171.428 186.768 176.757C189.955 179.944 192.445 184.477 199.518 199.717C202.157 205.345 204.847 210.674 205.544 211.62C207.984 214.808 212.367 215.903 216.7 214.409C221.033 212.865 223.623 209.528 223.623 205.345C223.623 203.004 223.075 201.41 219.34 193.342C211.172 175.661 207.038 168.091 203.253 163.758C200.165 160.271 187.714 151.157 178.948 145.978C176.956 144.782 175.313 143.686 175.313 143.587C175.313 143.139 184.078 126.753 189.606 116.892C194.238 108.624 194.985 107.528 195.932 107.777C203.801 109.919 215.754 110.068 222.428 108.126C227.508 106.682 232.986 104.042 237.419 101.004C244.392 96.2226 253.307 86.3613 254.552 82.1279C256.096 77.0478 252.311 71.9677 245.985 70.6728C240.806 69.5771 238.764 70.7724 231.891 78.8906C228.404 82.9746 223.274 86.4111 218.294 88.0048C214.608 89.1503 213.562 89.25 209.03 89.0507C202.307 88.7021 198.521 87.3076 186.618 80.7334C171.876 72.6152 166.298 70.7724 155.142 70.4238C150.161 70.2744 147.272 70.4238 144.981 70.9716Z" fill="white"/>
<path d="M7.17187 86.6602C5.87695 87.1582 4.48242 89.0508 4.48242 90.1963C4.48242 90.6445 4.93066 91.5908 5.52832 92.3379L6.52441 93.6328H47.5635H88.6025L89.6484 92.5371C91.4912 90.5449 90.7441 87.6562 88.1045 86.71C86.1621 86.0625 8.81543 86.0127 7.17187 86.6602Z" fill="white"/>
<path d="M31.626 129.094C29.2353 130.488 28.7871 132.58 30.4307 134.672L31.4268 135.967H72.4658H113.505L114.501 134.672C116.194 132.53 115.796 130.389 113.505 129.243C112.31 128.596 106.283 128.496 72.3662 128.496C43.4297 128.546 32.373 128.695 31.626 129.094Z" fill="white"/>
<path d="M2.14163 176.309C-0.19919 177.255 -0.647432 180.193 1.24515 182.036L2.44046 183.281H39.0967H75.753L76.9483 182.036C78.4424 180.592 78.542 178.849 77.2471 177.255L76.3008 176.06L39.7442 175.96C19.3242 175.91 2.73929 176.06 2.14163 176.309Z" fill="white"/>
</svg>
