<svg width="14" height="14" viewBox="0 0 14 14" fill="none" xmlns="http://www.w3.org/2000/svg">
<path d="M9.18812 10.197C8.23429 10.944 7.01708 11.3948 5.69453 11.3948C2.54973 11.3948 0 8.84403 0 5.69795C0 2.55186 2.54973 0.00109863 5.69453 0.00109863C8.83933 0.00109863 11.3891 2.55186 11.3891 5.69795C11.3891 7.02104 10.9385 8.23803 10.1825 9.20507L10.1918 9.19225L14 12.9878L12.9892 13.999L9.19524 10.1963L9.18812 10.197ZM5.70022 9.96916C8.05918 9.96916 9.97112 8.05644 9.97112 5.69652C9.97112 3.3366 8.05918 1.42389 5.70022 1.42389C3.34127 1.42389 1.42933 3.3366 1.42933 5.69652C1.42933 8.05644 3.34127 9.96916 5.70022 9.96916Z" fill="#6C6C6C"/>
</svg>
