<svg width="23" height="22" viewBox="0 0 23 22" fill="none" xmlns="http://www.w3.org/2000/svg">
<path d="M15.1051 16.0246C13.6062 17.1987 11.6935 17.9071 9.61517 17.9071C4.67334 17.9071 0.666626 13.8982 0.666626 8.95355C0.666626 4.00895 4.67334 0 9.61517 0C14.557 0 18.5637 4.00895 18.5637 8.95355C18.5637 11.033 17.8557 12.9457 16.6677 14.4656L16.6823 14.4454L22.6666 20.4107L21.0783 22L15.1163 16.0235L15.1051 16.0246ZM9.62412 15.6665C13.3311 15.6665 16.3355 12.6603 16.3355 8.95131C16.3355 5.24231 13.3311 2.23615 9.62412 2.23615C5.91719 2.23615 2.91271 5.24231 2.91271 8.95131C2.91271 12.6603 5.91719 15.6665 9.62412 15.6665Z" fill="#6C6C6C"/>
</svg>
