<svg width="23" height="22" viewBox="0 0 23 22" fill="none" xmlns="http://www.w3.org/2000/svg">
<path d="M15.1052 16.0246C13.6063 17.1987 11.6935 17.9071 9.61523 17.9071C4.6734 17.9071 0.666687 13.8982 0.666687 8.95355C0.666687 4.00895 4.6734 0 9.61523 0C14.5571 0 18.5638 4.00895 18.5638 8.95355C18.5638 11.033 17.8557 12.9457 16.6678 14.4656L16.6823 14.4454L22.6667 20.4107L21.0783 22L15.1164 16.0235L15.1052 16.0246ZM9.62418 15.6665C13.3311 15.6665 16.3356 12.6603 16.3356 8.95131C16.3356 5.24231 13.3311 2.23615 9.62418 2.23615C5.91725 2.23615 2.91277 5.24231 2.91277 8.95131C2.91277 12.6603 5.91725 15.6665 9.62418 15.6665Z" fill="#F0941F"/>
</svg>
