<svg width="28" height="28" viewBox="0 0 28 28" fill="none" xmlns="http://www.w3.org/2000/svg">
<path d="M8.99984 20.2338L13.9998 15.2338L18.9998 20.2338L20.3998 18.8338L15.3998 13.8338L20.3998 8.83382L18.9998 7.43382L13.9998 12.4338L8.99984 7.43382L7.59984 8.83382L12.5998 13.8338L7.59984 18.8338L8.99984 20.2338ZM13.9998 27.1672C12.1776 27.1672 10.4554 26.8172 8.83317 26.1172C7.21095 25.4172 5.79428 24.4616 4.58317 23.2505C3.37206 22.0394 2.4165 20.6227 1.7165 19.0005C1.0165 17.3783 0.666504 15.656 0.666504 13.8338C0.666504 11.9894 1.0165 10.256 1.7165 8.63382C2.4165 7.0116 3.37206 5.60049 4.58317 4.40049C5.79428 3.20049 7.21095 2.25049 8.83317 1.55049C10.4554 0.850488 12.1776 0.500488 13.9998 0.500488C15.8443 0.500488 17.5776 0.850488 19.1998 1.55049C20.8221 2.25049 22.2332 3.20049 23.4332 4.40049C24.6332 5.60049 25.5832 7.0116 26.2832 8.63382C26.9832 10.256 27.3332 11.9894 27.3332 13.8338C27.3332 15.656 26.9832 17.3783 26.2832 19.0005C25.5832 20.6227 24.6332 22.0394 23.4332 23.2505C22.2332 24.4616 20.8221 25.4172 19.1998 26.1172C17.5776 26.8172 15.8443 27.1672 13.9998 27.1672Z" fill="#FF2626"/>
</svg>
