<svg width="14" height="14" viewBox="0 0 14 14" fill="none" xmlns="http://www.w3.org/2000/svg">
<path d="M8.31683 13.3835C8.11683 13.5835 7.87516 13.6835 7.59183 13.6835C7.3085 13.6835 7.06683 13.5835 6.86683 13.3835L0.616829 7.1335C0.505718 7.02238 0.430718 6.90572 0.391829 6.7835C0.352941 6.66127 0.333496 6.5335 0.333496 6.40016V1.3335C0.333496 1.04461 0.427941 0.805718 0.616829 0.616829C0.805718 0.427941 1.04461 0.333496 1.3335 0.333496H6.40016C6.5335 0.333496 6.66683 0.352941 6.80016 0.391829C6.9335 0.430718 7.05572 0.505718 7.16683 0.616829L13.3835 6.8335C13.5946 7.04461 13.7002 7.29183 13.7002 7.57516C13.7002 7.8585 13.5946 8.10572 13.3835 8.31683L8.31683 13.3835ZM7.6335 12.7002L12.7002 7.6335L6.40016 1.3335H1.3335V6.40016L7.6335 12.7002ZM3.0835 3.9335C3.31683 3.9335 3.51961 3.84738 3.69183 3.67516C3.86405 3.50294 3.95016 3.30016 3.95016 3.06683C3.95016 2.8335 3.86405 2.63072 3.69183 2.4585C3.51961 2.28627 3.31683 2.20016 3.0835 2.20016C2.85016 2.20016 2.64738 2.28627 2.47516 2.4585C2.30294 2.63072 2.21683 2.8335 2.21683 3.06683C2.21683 3.30016 2.30294 3.50294 2.47516 3.67516C2.64738 3.84738 2.85016 3.9335 3.0835 3.9335Z" fill="black"/>
</svg>
