<svg width="18" height="22" viewBox="0 0 18 22" fill="none" xmlns="http://www.w3.org/2000/svg">
<path d="M5.65312 16.0906L9 12.6875L12.375 16.0906L13.6969 14.7406L10.35 11.3375L13.6969 7.93437L12.375 6.58437L9 9.9875L5.65312 6.58437L4.30312 7.93437L7.67812 11.3375L4.30312 14.7406L5.65312 16.0906ZM2.84063 21.125C2.39062 21.125 1.99687 20.9562 1.65937 20.6187C1.32187 20.2812 1.15313 19.8875 1.15313 19.4375V3.40625H0V1.71875H5.2875V0.875H12.7125V1.71875H18V3.40625H16.8469V19.4375C16.8469 19.8875 16.6781 20.2812 16.3406 20.6187C16.0031 20.9562 15.6094 21.125 15.1594 21.125H2.84063Z" fill="black"/>
</svg>
