<svg width="24" height="25" viewBox="0 0 24 25" fill="none" xmlns="http://www.w3.org/2000/svg">
<path d="M10.23 17.96L18.72 9.47L17.34 8.12L10.23 15.23L6.63 11.63L5.28 12.98L10.23 17.96ZM12 24.5C10.36 24.5 8.81 24.185 7.35 23.555C5.89 22.925 4.615 22.065 3.525 20.975C2.435 19.885 1.575 18.61 0.945 17.15C0.315 15.69 0 14.14 0 12.5C0 10.84 0.315 9.28 0.945 7.82C1.575 6.36 2.435 5.09 3.525 4.01C4.615 2.93 5.89 2.075 7.35 1.445C8.81 0.815 10.36 0.5 12 0.5C13.66 0.5 15.22 0.815 16.68 1.445C18.14 2.075 19.41 2.93 20.49 4.01C21.57 5.09 22.425 6.36 23.055 7.82C23.685 9.28 24 10.84 24 12.5C24 14.14 23.685 15.69 23.055 17.15C22.425 18.61 21.57 19.885 20.49 20.975C19.41 22.065 18.14 22.925 16.68 23.555C15.22 24.185 13.66 24.5 12 24.5ZM12 22.7C14.84 22.7 17.25 21.705 19.23 19.715C21.21 17.725 22.2 15.32 22.2 12.5C22.2 9.66 21.21 7.25 19.23 5.27C17.25 3.29 14.84 2.3 12 2.3C9.18 2.3 6.775 3.29 4.785 5.27C2.795 7.25 1.8 9.66 1.8 12.5C1.8 15.32 2.795 17.725 4.785 19.715C6.775 21.705 9.18 22.7 12 22.7Z" fill="#71D34E"/>
</svg>
